<svg xmlns="http://www.w3.org/2000/svg" xmlns:xlink="http://www.w3.org/1999/xlink" width="178.57666015625" height="150.214599609375" viewBox="0 0 178.57666015625 150.214599609375" fill="none">
<path   fill-rule="evenodd"  fill="url(#linear_fill_PxnZTo1KpEhLJ8kN00188_0)"  d="M58.0009 48.403L58.0009 47.5823L50.9009 47.5823L50.9009 48.5354L49.3413 48.5354L49.3413 70.8776L59.7025 70.8776L59.7025 48.403L58.0009 48.403ZM58.8048 68.3168L50.1307 68.3168L50.1307 67.6549L58.8048 67.6549L58.8048 68.3168ZM58.8048 65.265L50.1307 65.265L50.1307 64.6031L58.8048 64.6031L58.8048 65.265ZM58.8048 62.2131L50.1307 62.2131L50.1307 61.5513L58.8048 61.5513L58.8048 62.2131ZM58.8048 59.2432L50.1307 59.2432L50.1307 58.5813L58.8048 58.5813L58.8048 59.2432ZM58.8048 56.2804L50.1307 56.2804L50.1307 55.6185L58.8048 55.6185L58.8048 56.2804ZM58.8048 53.2286L50.1307 53.2286L50.1307 52.5667L58.8048 52.5667L58.8048 53.2286ZM58.8048 50.2586L50.1307 50.2586L50.1307 49.5968L58.8048 49.5968L58.8048 50.2586Z">
</path>
<path d="M37.5029 84.5502L37.5029 59.4168C37.5029 53.7924 38.9911 48.2735 41.9675 42.8601C44.9439 48.2735 46.4321 53.7924 46.4321 59.4168L46.4321 84.5502L37.5029 84.5502Z"   fill="url(#linear_fill_LWDdWpWgyl-AJ6pzbhXf8)" >
</path>
<path d="M121.618 74.5648C121.704 73.4456 121.618 36.9033 121.618 36.9033L126.077 36.9033L126.077 45.0166L133.177 45.0166L133.177 61.9724L137.204 61.9724L137.204 74.5648L121.618 74.5648Z"   fill="url(#linear_fill_lw6jvjxleXwBvfVVPyC8w)" >
</path>
<path   fill-rule="evenodd"  fill="url(#linear_fill_RwajuWCwoVpxFnme42zSr_0)"  d="M150.792 58.1623L150.792 56.995L149.589 56.995L149.589 46.8071L146.653 46.8071L146.653 45.6759L144.672 45.6759L144.672 44.0128L143.639 44.0128L143.639 39.1655L142.896 39.1655L142.896 44.0465L141.948 44.0465L141.948 45.7096L139.011 45.7096L139.011 48.4341L137.314 48.4341L137.314 80.0184L151.606 80.0184L151.606 58.1599L150.792 58.1623ZM139.839 70.8653L138.872 70.8653L138.872 67.1974L139.839 67.1974L139.839 70.8653ZM139.839 66.3767L138.872 66.3767L138.872 62.7087L139.839 62.7087L139.839 66.3767ZM139.839 61.888L138.872 61.888L138.872 58.2201L139.839 58.2201L139.839 61.888ZM139.839 57.3199L138.872 57.3199L138.872 53.652L139.839 53.652L139.839 57.3199ZM139.839 52.7494L138.872 52.7494L138.872 49.0815L139.839 49.0815L139.839 52.7494ZM141.83 70.8653L140.862 70.8653L140.862 67.1974L141.83 67.1974L141.83 70.8653ZM141.83 66.3767L140.862 66.3767L140.862 62.7087L141.83 62.7087L141.83 66.3767ZM141.83 61.888L140.862 61.888L140.862 58.2201L141.83 58.2201L141.83 61.888ZM141.83 57.3199L140.862 57.3199L140.862 53.652L141.83 53.652L141.83 57.3199ZM141.83 52.7494L140.862 52.7494L140.862 49.0815L141.83 49.0815L141.83 52.7494ZM143.822 70.8653L142.855 70.8653L142.855 67.1974L143.822 67.1974L143.822 70.8653ZM143.822 66.3767L142.855 66.3767L142.855 62.7087L143.822 62.7087L143.822 66.3767ZM143.822 61.888L142.855 61.888L142.855 58.2201L143.822 58.2201L143.822 61.888ZM143.822 57.3199L142.855 57.3199L142.855 53.652L143.822 53.652L143.822 57.3199ZM143.822 52.7494L142.855 52.7494L142.855 49.0815L143.822 49.0815L143.822 52.7494ZM145.815 70.8653L144.848 70.8653L144.848 67.1974L145.815 67.1974L145.815 70.8653ZM145.815 66.3767L144.848 66.3767L144.848 62.7087L145.815 62.7087L145.815 66.3767ZM145.815 61.888L144.848 61.888L144.848 58.2201L145.815 58.2201L145.815 61.888ZM145.815 57.3199L144.848 57.3199L144.848 53.652L145.815 53.652L145.815 57.3199ZM145.815 52.7494L144.848 52.7494L144.848 49.0815L145.815 49.0815L145.815 52.7494ZM147.808 70.8653L146.841 70.8653L146.841 67.1974L147.808 67.1974L147.808 70.8653ZM147.808 66.3767L146.841 66.3767L146.841 62.7087L147.808 62.7087L147.808 66.3767ZM147.808 61.888L146.841 61.888L146.841 58.2201L147.808 58.2201L147.808 61.888ZM147.808 57.3199L146.841 57.3199L146.841 53.652L147.808 53.652L147.808 57.3199ZM147.808 52.7494L146.841 52.7494L146.841 49.0815L147.808 49.0815L147.808 52.7494Z">
</path>
<path d="M15.6152 90.1465L15.6152 68.5961L18.0846 68.5961L18.0846 57.597L26.5709 53.9219L26.5709 68.4228L28.4314 68.4228L28.4314 90.1465L15.6152 90.1465Z"   fill="url(#linear_fill_5-3djUFjn7Sse4BS__3J9)" >
</path>
<path d="M161.171 86.1509L153.724 86.1509L153.724 56.5161L161.171 60.1191L161.171 86.1509Z"   fill="url(#linear_fill_1uaqH1imepG7MMSjj96tC)" >
</path>
<path d="M14.3682 14.715C14.3682 14.715 16.6162 8.58251 22.1422 10.9893C23.4178 9.69444 24.9966 8.75339 27.1314 9.17698C29.2663 9.60298 30.6429 11.2011 31.1099 12.2649C31.7789 12.2336 37.1365 12.4117 37.1365 17.969C37.1365 23.5263 30.6526 23.4204 30.1832 22.9799C29.6056 23.495 26.8282 26.2893 23.4587 23.1003C22.7294 23.7236 20.3467 26.3639 16.5801 22.72C14.8352 23.4492 10.6883 24.01 9.88439 19.7283C9.08052 15.4491 13.2034 14.2385 14.3682 14.715Z"   fill="url(#linear_fill_PuMwmGvcZ0VI2IRH_orIj)" >
</path>
<path d="M138.816 5.85343C138.816 5.85343 141.064 -0.279067 146.59 2.12772C147.866 0.832869 149.445 -0.108185 151.58 0.315409C153.714 0.741411 155.091 2.33952 155.558 3.40332C156.227 3.37203 161.585 3.55013 161.585 9.10741C161.585 14.6647 155.101 14.5588 154.631 14.1183C154.054 14.6334 151.276 17.4277 147.907 14.2387C147.178 14.862 144.795 17.5023 141.028 13.8584C139.283 14.5877 135.137 15.1484 134.333 10.8668C133.529 6.5875 137.652 5.37689 138.816 5.85343Z"   fill="url(#linear_fill_cHB78Z1rv_RBfXGjuDpDd)" >
</path>
<path d="M110.094 18.9751C110.094 18.9751 111.721 14.5346 115.721 16.2795C116.645 15.3409 117.786 14.6597 119.334 14.9678C120.879 15.2759 121.875 16.4335 122.212 17.2013C122.696 17.1797 126.576 17.3072 126.576 21.329C126.576 25.3507 121.883 25.2737 121.543 24.956C121.124 25.329 119.115 27.3507 116.674 25.045C116.147 25.4951 114.421 27.4085 111.697 24.7707C110.433 25.2977 107.432 25.7045 106.85 22.6046C106.265 19.507 109.252 18.6309 110.094 18.9751Z"   fill="url(#linear_fill_CWx7AMmNBOFIcTJvVOmyC)" >
</path>
<path d="M178.577 107.839C178.577 131.241 138.601 150.212 89.2895 150.212C39.9776 150.212 0.00244141 131.241 0.00244141 107.839C0.00244141 84.436 39.9776 65.4646 89.2895 65.4646C138.601 65.4646 178.577 84.436 178.577 107.839Z"   fill="url(#linear_fill_rKOaysog4kgfnhIHRZsER)" >
</path>
<path d="M129.695 97.41L168.786 125.086L100.041 147.209L69.1206 86.825L114.679 88.4664L129.695 97.41Z"   fill="url(#linear_fill_3f9_NUekTklC85AaKuaZh)" >
</path>
<path d="M69.436 38.4004L52.4537 38.4004L52.4537 30.6145C52.4537 30.6145 52.0253 23.127 62.3648 23.127C72.3482 23.127 69.436 38.4004 69.436 38.4004Z"   fill="url(#linear_fill_Rv2ReyzX2Z-9bA9lH-DKH)" >
</path>
<path d="M61.9482 23.127C61.9482 23.127 68.4249 23.9597 68.4249 32.7541C68.4249 41.5485 68.4249 83.7034 68.4249 83.7034C68.4249 83.7034 68.2853 90.2788 75.0219 90.2788C81.7561 90.2788 94.4351 90.2788 94.4351 90.2788L104.26 59.7727L104.26 34.8913C104.26 34.8913 105.003 23.1294 94.9285 23.1294C85.8958 23.127 61.9482 23.127 61.9482 23.127Z"   fill="url(#linear_fill_B1F3SA8UZMYMPpcaRVKJ8)" >
</path>
<path d="M77.6357 90.2787L107.586 90.2787L104.269 64.8437C104.269 64.8437 100.098 58.6631 91.896 58.6631C82.6563 58.6631 83.1064 67.8739 83.1064 68.3504C83.1064 68.827 83.1064 84.2184 83.1064 84.2184C83.1064 84.2184 83.0438 90.2787 77.6357 90.2787Z"   fill="url(#linear_fill_K80fyWXjThkGyggCaCjTt)" >
</path>
<path d="M129.695 97.4099L102.12 97.4099L102.12 68.8053C102.12 68.8053 102.794 58.663 91.8984 58.663C104.26 58.663 117.651 58.663 117.651 58.663C117.651 58.663 129.695 58.3453 129.695 71.3396C129.695 84.3338 129.695 97.4099 129.695 97.4099Z"   fill="url(#linear_fill_eirvMNkZGRmoGaNDJ-eh3)" >
</path>
<path d="M98.3773 37.8635L75.082 37.8635C74.1626 37.8635 73.4189 37.1174 73.4189 36.2004C73.4189 35.2811 74.165 34.5374 75.082 34.5374L98.3773 34.5374C99.2967 34.5374 100.04 35.2835 100.04 36.2004C100.04 37.1198 99.2943 37.8635 98.3773 37.8635Z"   fill="url(#linear_fill_HNNpJlNQrqnpdLx50cKcA)" >
</path>
<path d="M98.3773 45.1152L75.082 45.1152C74.1626 45.1152 73.4189 44.3691 73.4189 43.4522C73.4189 42.5328 74.165 41.7891 75.082 41.7891L98.3773 41.7891C99.2967 41.7891 100.04 42.5352 100.04 43.4522C100.04 44.3691 99.2943 45.1152 98.3773 45.1152Z"   fill="url(#linear_fill_lJK5ARREFJ6BrCRQAbyq2)" >
</path>
<path d="M98.3773 52.3645L75.082 52.3645C74.1626 52.3645 73.4189 51.6184 73.4189 50.7014C73.4189 49.782 74.165 49.0383 75.082 49.0383L98.3773 49.0383C99.2967 49.0383 100.04 49.7844 100.04 50.7014C100.04 51.6208 99.2943 52.3645 98.3773 52.3645Z"   fill="url(#linear_fill_r7X_MLh06wg_8vu81M3oF)" >
</path>
<path d="M125.059 71.501L108.005 71.501C107.085 71.501 106.342 70.7549 106.342 69.8379C106.342 68.9185 107.088 68.1748 108.005 68.1748L125.059 68.1748C125.979 68.1748 126.722 68.9209 126.722 69.8379C126.722 70.7549 125.979 71.501 125.059 71.501Z"   fill="url(#linear_fill_bGE4vHK3UcQrj7rOoJacW)" >
</path>
<path d="M125.059 78.75L108.005 78.75C107.085 78.75 106.342 78.0039 106.342 77.0869C106.342 76.1675 107.088 75.4238 108.005 75.4238L125.059 75.4238C125.979 75.4238 126.722 76.1699 126.722 77.0869C126.722 78.0039 125.979 78.75 125.059 78.75Z"   fill="url(#linear_fill_x7eRyW6NiS4Ag0rCQqY9w)" >
</path>
<path d="M125.059 85.9995L108.005 85.9995C107.085 85.9995 106.342 85.2534 106.342 84.3364C106.342 83.417 107.088 82.6733 108.005 82.6733L125.059 82.6733C125.979 82.6733 126.722 83.4194 126.722 84.3364C126.722 85.2558 125.979 85.9995 125.059 85.9995Z"   fill="url(#linear_fill_aPpQ6dg7gSKDGUmhEBRfY)" >
</path>
<path d="M114.359 63.7752C114.359 63.7752 114.176 64.0231 114.708 64.9209C113.899 65.2 112.833 64.8679 112.833 64.8679L112.891 63.3733L114.359 63.7752Z"   fill="#FFBE92" >
</path>
<path d="M112.351 65.7654L117.054 66.0061C117.054 66.0061 117.364 64.6077 115.511 64.5692C115.136 64.562 114.847 64.124 114.539 64.1216C113.8 64.7233 112.58 64.5572 112.58 64.5572L112.351 65.7654Z"   fill="#F8B62D" >
</path>
<path d="M112.24 66.0689L114.3 66.3601L114.397 65.9846L117.047 66.2927L117.116 65.975L112.363 65.3757L112.24 66.0689Z"   fill="#E6E8E8" >
</path>
<path d="M116.717 64.4561C116.717 64.4561 116.402 64.822 117.151 65.556C116.443 66.0302 115.531 65.9026 115.531 65.9026L115.196 64.4441L116.717 64.4561Z"   fill="#FFBE92" >
</path>
<path d="M115.083 66.9088L119.788 66.7981C119.788 66.7981 119.983 65.3781 118.132 65.4816C117.759 65.5032 117.434 65.0869 117.126 65.1061C116.44 65.7632 115.211 65.6861 115.211 65.6861L115.083 66.9088Z"   fill="#F8B62D" >
</path>
<path d="M114.999 67.2192L117.076 67.354L117.141 66.9737L119.805 67.082L119.851 66.7619L115.066 66.5188L114.999 67.2192Z"   fill="#E6E8E8" >
</path>
<path d="M110.12 55.8014C110.12 55.8014 116.091 54.1888 116.659 55.5703C117.227 56.9518 116.06 59.1829 115.48 60.8556C114.9 62.5283 114.462 64.0254 114.462 64.0254L112.597 63.8521L113.288 58.0108C113.288 58.0108 112.886 56.9735 111.485 56.858C110.086 56.7448 110.12 55.8014 110.12 55.8014Z"   fill="url(#linear_fill_pdQZRx6JnJeF_IPrB7tS3)" >
</path>
<path d="M107.966 54.971C107.966 54.971 114.043 54.1791 114.753 55.1659C115.463 56.1527 116.869 64.8557 116.869 64.8557L115.307 65.479C115.307 65.479 112.912 58.9831 112.346 58.6847C111.863 58.4295 110.445 58.7039 109.1 59.1034C107.754 59.503 105.461 59.9771 104.421 57.4403C104.893 54.711 107.966 54.971 107.966 54.971Z"   fill="url(#linear_fill_a4CGSSVAzEbDouwpR10vG)" >
</path>
<path d="M108.833 43.9432C108.833 43.9432 109.629 44.9902 109.071 46.6485C108.929 46.9662 108.655 47.5173 107.899 47.101C107.834 47.0865 107.79 47.1804 107.774 47.2694C107.757 47.3585 107.552 48.8868 107.552 48.8868L105.376 48.8988C105.376 48.8988 106.385 45.1129 106.366 44.3693C106.358 43.9866 106.765 43.3175 107.571 43.2814C108.378 43.2453 108.833 43.9432 108.833 43.9432Z"   fill="#FDDCC6" >
</path>
<path d="M108.246 42.5401C108.246 42.5401 108.467 42.1237 109.076 42.427C109.685 42.7303 109.394 43.267 109.372 43.4018C109.35 43.5365 109.435 43.64 109.615 43.5678C109.796 43.4932 110.116 43.4427 110.337 43.8518C110.558 44.261 110.089 45.3464 109.377 45.2381C108.667 45.1322 108.308 44.7664 108.053 44.5065C107.796 44.2465 107.302 43.9385 107.23 44.2441C107.158 44.5498 107.177 45.1924 107.035 45.0985C106.903 45.0095 106.98 44.3524 106.585 44.35C106.19 44.3476 106.219 44.918 106.479 45.2237C106.59 45.3537 106.582 45.3296 106.544 45.462C106.505 45.5943 106.515 45.6858 106.373 45.8422C106.229 46.0011 106.171 46.0853 106.053 45.8567C105.935 45.6256 105.714 45.19 105.832 44.2634C105.88 44.0034 105.798 43.9866 105.663 43.8398C105.528 43.693 105.333 43.4619 105.531 43.1298C105.728 42.7952 105.918 42.8386 106.164 42.8482C106.412 42.8602 106.4 42.7688 106.402 42.622C106.404 42.4751 106.585 41.9095 107.073 41.9216C107.562 41.9312 107.771 42.208 107.897 42.4414C108.022 42.6749 108.166 42.6171 108.246 42.5401Z"   fill="#171C61" >
</path>
<path d="M110.209 51.2239C110.209 51.2239 110.291 52.1312 110.512 52.3455C110.734 52.5597 112.315 53.881 113.16 54.2805C112.991 54.7715 112.883 54.8341 112.883 54.8341C112.883 54.8341 110.563 54.1891 109.81 53.4357C109.547 53.1445 109.068 52.5067 108.934 51.5608C109.533 50.9567 110.209 51.2239 110.209 51.2239Z"   fill="#FDDCC6" >
</path>
<path d="M110.51 51.6304L108.609 52.7135C108.609 52.7135 107.112 49.3151 108.274 48.2537C108.642 47.9432 109.646 48.3909 110.014 49.5221C110.385 50.6509 110.51 51.6304 110.51 51.6304Z"   fill="url(#linear_fill_5fpvCD9Zc6UAX_Zy_XyVK)" >
</path>
<path d="M103.759 48.5643C103.759 48.5643 104.57 47.0071 105.829 47.1082C106.002 47.9843 106.998 48.0228 107.699 47.7845C108.211 47.8543 108.5 47.888 108.852 48.4055C109.203 48.923 109.167 49.0457 109.408 50.136C109.581 51.2479 109.145 52.1914 109.333 53.207C109.518 54.2251 110.476 54.3815 109.978 54.8051C109.48 55.2287 106.353 55.4646 104.916 57.585C104.474 58.2396 104.125 56.7595 104.117 55.6427C104.11 54.5236 104.693 51.6378 103.759 48.5643Z"   fill="url(#linear_fill_In_Us8XAFeJNBpnUslZQL)" >
</path>
<path d="M115.309 54.663L113.066 54.6028L108.688 54.894L112.221 55.4018L115.309 54.663Z"   fill="url(#linear_fill_7H3NkAn_gzAv3UAX-EfC4)" >
</path>
<path d="M108.645 54.7065L112.221 55.2023L112.221 55.4021L108.645 54.9063L108.645 54.7065Z"   fill="url(#linear_fill_IYOJ1GZfzZwrctE5AOZqC)" >
</path>
<path d="M105.442 51.2527C105.442 51.2527 105.969 52.9447 106.123 52.9976C106.277 53.0506 108.799 54.1095 109.097 54.124C109.396 54.1384 110.717 53.5103 111.223 54.8316C111.254 54.9688 111.285 55.0626 110.915 55.0313C110.546 55.0001 109.983 54.8605 109.593 54.9832C109.203 55.106 109.04 54.8918 108.686 54.8918C108.332 54.8918 105.507 54.6463 105.138 54.2925C104.77 53.9387 104.325 53.3081 104.094 51.9579C105.032 51.361 105.442 51.2527 105.442 51.2527Z"   fill="#FDDCC6" >
</path>
<path d="M105.995 51.5606L104.094 52.6437C104.094 52.6437 102.597 49.2453 103.759 48.1839C104.127 47.8734 105.131 48.3211 105.499 49.4523C105.867 50.5811 105.995 51.5606 105.995 51.5606Z"   fill="url(#linear_fill_A527TrKfQmpsf-dEwwqGl)" >
</path>
<path d="M117.169 51.1707L113.285 51.2477C113.174 51.2501 113.078 51.3247 113.049 51.433L112.089 55.0553C112.045 55.2213 112.18 55.3826 112.351 55.3681L116.096 55.0504C116.197 55.0408 116.281 54.9734 116.313 54.8796L117.413 51.498C117.466 51.3344 117.34 51.1683 117.169 51.1707Z"   fill="url(#linear_fill_H1JM4XH0xrYHOm_nDEljC)" >
</path>
<g >
<path     fill="#8D9EAE"  d="M74.9391 120.257L74.9391 121.907C74.9391 122.809 74.8511 123.997 74.1471 124.888C74.3231 124.965 74.6421 125.174 74.7851 125.306C75.3681 124.58 75.5771 123.557 75.6431 122.666L77.1281 122.666L77.1281 125.284L77.8981 125.284L77.8981 122.666L79.1851 122.666L79.1851 121.995L75.6761 121.995L75.6761 121.918L75.6761 120.818C76.7981 120.73 78.0301 120.554 78.8881 120.29L78.4261 119.674C77.6011 119.949 76.1601 120.158 74.9391 120.257ZM71.4301 127.682L77.0291 127.682L77.0291 128.595L71.4301 128.595L71.4301 127.682ZM71.4301 127.077L71.4301 126.175L77.0291 126.175L77.0291 127.077L71.4301 127.077ZM70.6491 125.526L70.6491 129.64L71.4301 129.64L71.4301 129.255L77.0291 129.255L77.0291 129.618L77.8431 129.618L77.8431 125.526L70.6491 125.526ZM69.3291 123.898L69.3951 124.591L71.9251 124.316L71.9251 125.306L72.6951 125.306L72.6951 124.228L74.3781 124.041L74.3671 123.414L72.6951 123.579L72.6951 122.754L74.4331 122.754L74.4331 122.083L72.6951 122.083L72.6951 121.368L71.9251 121.368L71.9251 122.083L70.5061 122.083C70.8031 121.731 71.1111 121.335 71.3971 120.906L74.4111 120.906L74.4111 120.257L71.8151 120.257L72.1231 119.718L71.2981 119.487C71.1881 119.751 71.0561 120.004 70.9241 120.257L69.3071 120.257L69.3071 120.906L70.5391 120.906C70.3081 121.269 70.0991 121.555 70.0001 121.676C69.8021 121.94 69.6151 122.116 69.4391 122.149C69.5381 122.369 69.6591 122.743 69.7031 122.908C69.8021 122.82 70.1321 122.754 70.5941 122.754L71.9251 122.754L71.9251 123.656L69.3291 123.898ZM80.9781 120.257L80.9781 121.071L84.6301 121.071C84.5971 121.852 84.5641 122.688 84.4321 123.513L80.2961 123.513L80.2961 124.316L84.2781 124.316C83.8271 126.208 82.7601 127.979 80.1531 128.969C80.3621 129.134 80.6041 129.431 80.7141 129.64C83.5521 128.507 84.6521 126.472 85.1141 124.316L85.3451 124.316L85.3451 128.1C85.3451 129.101 85.6531 129.387 86.7971 129.387C87.0281 129.387 88.6011 129.387 88.8541 129.387C89.9101 129.387 90.1741 128.925 90.2841 127.165C90.0421 127.11 89.6791 126.967 89.4811 126.813C89.4261 128.32 89.3381 128.573 88.7991 128.573C88.4581 128.573 87.1381 128.573 86.8741 128.573C86.3131 128.573 86.2031 128.496 86.2031 128.1L86.2031 124.316L90.1851 124.316L90.1851 123.513L85.2571 123.513C85.3781 122.688 85.4331 121.863 85.4551 121.071L89.5581 121.071L89.5581 120.257L80.9781 120.257ZM95.5971 119.729C95.3991 120.158 95.0471 120.807 94.7721 121.192L95.3111 121.456C95.5971 121.093 95.9711 120.543 96.2901 120.037L95.5971 119.729ZM91.6921 120.037C91.9781 120.499 92.2751 121.104 92.3741 121.489L93.0011 121.214C92.9021 120.818 92.6051 120.224 92.2971 119.795L91.6921 120.037ZM95.2341 125.9C94.9811 126.472 94.6291 126.956 94.2111 127.374C93.7931 127.165 93.3641 126.956 92.9571 126.78C93.1111 126.516 93.2871 126.219 93.4411 125.9L95.2341 125.9ZM91.9341 127.077C92.4731 127.286 93.0781 127.561 93.6281 127.847C92.9241 128.353 92.0771 128.705 91.1751 128.914C91.3181 129.068 91.4941 129.354 91.5711 129.552C92.5831 129.277 93.5181 128.848 94.3101 128.21C94.6731 128.43 95.0031 128.639 95.2561 128.826L95.7841 128.287C95.5311 128.111 95.2121 127.913 94.8491 127.715C95.4321 127.088 95.8941 126.318 96.1691 125.361L95.7181 125.174L95.5861 125.207L93.7821 125.207L94.0241 124.635L93.2871 124.503C93.2101 124.723 93.1001 124.965 92.9901 125.207L91.4941 125.207L91.4941 125.9L92.6491 125.9C92.4181 126.34 92.1651 126.747 91.9341 127.077ZM93.5511 119.509L93.5511 121.566L91.2741 121.566L91.2741 122.248L93.2981 122.248C92.7701 122.963 91.9231 123.645 91.1531 123.975C91.3181 124.129 91.5051 124.415 91.6041 124.602C92.2751 124.239 93.0011 123.623 93.5511 122.974L93.5511 124.316L94.3211 124.316L94.3211 122.82C94.8491 123.205 95.5201 123.722 95.7951 123.975L96.2571 123.381C95.9931 123.194 95.0251 122.578 94.4861 122.248L96.5651 122.248L96.5651 121.566L94.3211 121.566L94.3211 119.509L93.5511 119.509ZM97.6431 119.608C97.3681 121.544 96.8731 123.392 96.0151 124.547C96.1911 124.657 96.5101 124.921 96.6421 125.053C96.9281 124.646 97.1701 124.162 97.3901 123.623C97.6321 124.701 97.9511 125.702 98.3581 126.571C97.7421 127.616 96.8841 128.419 95.6851 129.002C95.8391 129.167 96.0701 129.497 96.1471 129.673C97.2691 129.068 98.1161 128.309 98.7651 127.341C99.3151 128.276 99.9971 129.024 100.855 129.541C100.987 129.332 101.229 129.046 101.416 128.892C100.492 128.397 99.7661 127.594 99.2051 126.582C99.7881 125.449 100.162 124.074 100.404 122.424L101.152 122.424L101.152 121.654L98.0171 121.654C98.1711 121.038 98.3031 120.389 98.4021 119.729L97.6431 119.608ZM99.6231 122.424C99.4471 123.689 99.1831 124.789 98.7871 125.724C98.3691 124.734 98.0611 123.612 97.8521 122.424L99.6231 122.424ZM107.048 126.142L107.048 129.651L107.774 129.651L107.774 129.2L111.162 129.2L111.162 129.607L111.921 129.607L111.921 126.142L109.798 126.142L109.798 124.778L112.262 124.778L112.262 124.063L109.798 124.063L109.798 122.853L111.877 122.853L111.877 120.004L106.069 120.004L106.069 123.326C106.069 125.075 105.97 127.473 104.826 129.167C105.013 129.255 105.354 129.497 105.508 129.629C106.421 128.287 106.729 126.417 106.828 124.778L109.017 124.778L109.017 126.142L107.048 126.142ZM106.872 120.719L111.085 120.719L111.085 122.127L106.872 122.127L106.872 120.719ZM106.872 122.853L109.017 122.853L109.017 124.063L106.861 124.063L106.872 123.326L106.872 122.853ZM107.774 128.518L107.774 126.846L111.162 126.846L111.162 128.518L107.774 128.518ZM103.561 119.531L103.561 121.742L102.186 121.742L102.186 122.512L103.561 122.512L103.561 124.921C102.989 125.097 102.461 125.251 102.043 125.361L102.263 126.175L103.561 125.757L103.561 128.606C103.561 128.76 103.506 128.804 103.374 128.804C103.242 128.815 102.813 128.815 102.34 128.804C102.439 129.024 102.549 129.365 102.571 129.563C103.264 129.574 103.693 129.541 103.957 129.409C104.232 129.288 104.331 129.057 104.331 128.606L104.331 125.504L105.596 125.086L105.475 124.327L104.331 124.69L104.331 122.512L105.574 122.512L105.574 121.742L104.331 121.742L104.331 119.531L103.561 119.531Z">
</path>
</g>
<defs>
<linearGradient id="linear_fill_PxnZTo1KpEhLJ8kN00188_0" x1="54.52197265625" y1="61.79150390625" x2="54.52197265625" y2="42.794677734375" gradientUnits="userSpaceOnUse">
<stop offset="0" stop-color="#EDF1F9"  />
<stop offset="0.999999464" stop-color="#C9D7E7"  />
</linearGradient>
<linearGradient id="linear_fill_LWDdWpWgyl-AJ6pzbhXf8" x1="41.96728515625" y1="84.54931640625" x2="41.96728515625" y2="42.859375" gradientUnits="userSpaceOnUse">
<stop offset="5.358273e-7" stop-color="#FFFFFF"  />
<stop offset="1" stop-color="#DBE3EE"  />
</linearGradient>
<linearGradient id="linear_fill_lw6jvjxleXwBvfVVPyC8w" x1="129.41064453125" y1="59.87548828125" x2="129.41064453125" y2="29.1630859375" gradientUnits="userSpaceOnUse">
<stop offset="0" stop-color="#EDF1F9"  />
<stop offset="0.999999464" stop-color="#C9D7E7"  />
</linearGradient>
<linearGradient id="linear_fill_RwajuWCwoVpxFnme42zSr_0" x1="144.46044921875" y1="64.084228515625" x2="144.46044921875" y2="30.769287109375" gradientUnits="userSpaceOnUse">
<stop offset="0" stop-color="#EDF1F9"  />
<stop offset="0.999999464" stop-color="#C9D7E7"  />
</linearGradient>
<linearGradient id="linear_fill_5-3djUFjn7Sse4BS__3J9" x1="22.0234375" y1="76.017578125" x2="22.0234375" y2="46.47705078125" gradientUnits="userSpaceOnUse">
<stop offset="0" stop-color="#EDF1F9"  />
<stop offset="0.999999464" stop-color="#C9D7E7"  />
</linearGradient>
<linearGradient id="linear_fill_1uaqH1imepG7MMSjj96tC" x1="157.447265625" y1="74.59228515625" x2="157.447265625" y2="50.425537109375" gradientUnits="userSpaceOnUse">
<stop offset="0" stop-color="#EDF1F9"  />
<stop offset="0.999999464" stop-color="#C9D7E7"  />
</linearGradient>
<linearGradient id="linear_fill_PuMwmGvcZ0VI2IRH_orIj" x1="23.458984375" y1="40.481201171875" x2="23.458984375" y2="16.84130859375" gradientUnits="userSpaceOnUse">
<stop offset="0" stop-color="#D3DFEE" stop-opacity="0" />
<stop offset="1" stop-color="#FFFFFF"  />
</linearGradient>
<linearGradient id="linear_fill_cHB78Z1rv_RBfXGjuDpDd" x1="147.9072265625" y1="31.61962890625" x2="147.9072265625" y2="7.979736328125" gradientUnits="userSpaceOnUse">
<stop offset="0" stop-color="#D3DFEE" stop-opacity="0" />
<stop offset="1" stop-color="#FFFFFF"  />
</linearGradient>
<linearGradient id="linear_fill_CWx7AMmNBOFIcTJvVOmyC" x1="116.67529296875" y1="37.62646484375" x2="116.67529296875" y2="20.514892578125" gradientUnits="userSpaceOnUse">
<stop offset="0" stop-color="#D3DFEE" stop-opacity="0" />
<stop offset="1" stop-color="#FFFFFF"  />
</linearGradient>
<linearGradient id="linear_fill_rKOaysog4kgfnhIHRZsER" x1="89.28857421875" y1="136.754150390625" x2="89.28857421875" y2="65.463623046875" gradientUnits="userSpaceOnUse">
<stop offset="0" stop-color="#FFFFFF" stop-opacity="0" />
<stop offset="1" stop-color="#CCDCED"  />
</linearGradient>
<linearGradient id="linear_fill_3f9_NUekTklC85AaKuaZh" x1="131.33544921875" y1="138.96044921875" x2="117.96337890625" y2="78.427978515625" gradientUnits="userSpaceOnUse">
<stop offset="0" stop-color="#FFFFFF" stop-opacity="0" />
<stop offset="1" stop-color="#BBCBE0"  />
</linearGradient>
<linearGradient id="linear_fill_Rv2ReyzX2Z-9bA9lH-DKH" x1="52.45068359375" y1="30.76318359375" x2="69.8310546875" y2="30.76318359375" gradientUnits="userSpaceOnUse">
<stop offset="0" stop-color="#EFF3F9"  />
<stop offset="1" stop-color="#B6C9DE"  />
</linearGradient>
<linearGradient id="linear_fill_B1F3SA8UZMYMPpcaRVKJ8" x1="61.94775390625" y1="56.702880859375" x2="104.27197265625" y2="56.702880859375" gradientUnits="userSpaceOnUse">
<stop offset="0" stop-color="#EFF3F9"  />
<stop offset="1" stop-color="#B6C9DE"  />
</linearGradient>
<linearGradient id="linear_fill_K80fyWXjThkGyggCaCjTt" x1="77.63671875" y1="74.471435546875" x2="107.58740234375" y2="74.471435546875" gradientUnits="userSpaceOnUse">
<stop offset="0" stop-color="#EFF3F9"  />
<stop offset="1" stop-color="#B6C9DE"  />
</linearGradient>
<linearGradient id="linear_fill_eirvMNkZGRmoGaNDJ-eh3" x1="91.89892578125" y1="78.03662109375" x2="129.6943359375" y2="78.03662109375" gradientUnits="userSpaceOnUse">
<stop offset="0" stop-color="#EFF3F9"  />
<stop offset="1" stop-color="#B6C9DE"  />
</linearGradient>
<linearGradient id="linear_fill_HNNpJlNQrqnpdLx50cKcA" x1="73.4169921875" y1="36.20068359375" x2="100.0400390625" y2="36.20068359375" gradientUnits="userSpaceOnUse">
<stop offset="0.14529999999999998" stop-color="#FFFFFF"  />
<stop offset="1" stop-color="#D8E3EF"  />
</linearGradient>
<linearGradient id="linear_fill_lJK5ARREFJ6BrCRQAbyq2" x1="73.4169921875" y1="43.45068359375" x2="100.0400390625" y2="43.45068359375" gradientUnits="userSpaceOnUse">
<stop offset="0.14529999999999998" stop-color="#FFFFFF"  />
<stop offset="1" stop-color="#D8E3EF"  />
</linearGradient>
<linearGradient id="linear_fill_r7X_MLh06wg_8vu81M3oF" x1="73.4169921875" y1="50.70068359375" x2="100.0400390625" y2="50.70068359375" gradientUnits="userSpaceOnUse">
<stop offset="0.14529999999999998" stop-color="#FFFFFF"  />
<stop offset="1" stop-color="#D8E3EF"  />
</linearGradient>
<linearGradient id="linear_fill_bGE4vHK3UcQrj7rOoJacW" x1="106.33984375" y1="69.836181640625" x2="126.72314453125" y2="69.836181640625" gradientUnits="userSpaceOnUse">
<stop offset="0.14529999999999998" stop-color="#FFFFFF"  />
<stop offset="1" stop-color="#D8E3EF"  />
</linearGradient>
<linearGradient id="linear_fill_x7eRyW6NiS4Ag0rCQqY9w" x1="106.33984375" y1="77.0859375" x2="126.72314453125" y2="77.0859375" gradientUnits="userSpaceOnUse">
<stop offset="0.14529999999999998" stop-color="#FFFFFF"  />
<stop offset="1" stop-color="#D8E3EF"  />
</linearGradient>
<linearGradient id="linear_fill_aPpQ6dg7gSKDGUmhEBRfY" x1="106.33984375" y1="84.336181640625" x2="126.72314453125" y2="84.336181640625" gradientUnits="userSpaceOnUse">
<stop offset="0.14529999999999998" stop-color="#FFFFFF"  />
<stop offset="1" stop-color="#D8E3EF"  />
</linearGradient>
<linearGradient id="linear_fill_pdQZRx6JnJeF_IPrB7tS3" x1="116.8125" y1="59.518798828125" x2="110.1201171875" y2="59.518798828125" gradientUnits="userSpaceOnUse">
<stop offset="0" stop-color="#4EA2F4"  />
<stop offset="0.6903" stop-color="#1E77CF"  />
</linearGradient>
<linearGradient id="linear_fill_a4CGSSVAzEbDouwpR10vG" x1="115.09326171875" y1="64.452880859375" x2="108.244140625" y2="55.5087890625" gradientUnits="userSpaceOnUse">
<stop offset="0" stop-color="#78C8FF"  />
<stop offset="0.6903" stop-color="#2A80E2"  />
</linearGradient>
<linearGradient id="linear_fill_5fpvCD9Zc6UAX_Zy_XyVK" x1="109.171875" y1="52.714111328125" x2="109.171875" y2="48.1591796875" gradientUnits="userSpaceOnUse">
<stop offset="0" stop-color="#F2A319"  />
<stop offset="0.4796" stop-color="#FFC552"  />
</linearGradient>
<linearGradient id="linear_fill_In_Us8XAFeJNBpnUslZQL" x1="106.939453125" y1="57.74267578125" x2="106.939453125" y2="47.103515625" gradientUnits="userSpaceOnUse">
<stop offset="0" stop-color="#F2A319"  />
<stop offset="0.4796" stop-color="#FFC552"  />
</linearGradient>
<linearGradient id="linear_fill_7H3NkAn_gzAv3UAX-EfC4" x1="108.68701171875" y1="55.001953125" x2="115.30859375" y2="55.001953125" gradientUnits="userSpaceOnUse">
<stop offset="0" stop-color="#171C61"  />
<stop offset="0.7868999999999999" stop-color="#272F7C"  />
</linearGradient>
<linearGradient id="linear_fill_IYOJ1GZfzZwrctE5AOZqC" x1="112.22021484375" y1="55.05419921875" x2="108.64453125" y2="55.05419921875" gradientUnits="userSpaceOnUse">
<stop offset="0" stop-color="#171C61"  />
<stop offset="0.7868999999999999" stop-color="#272F7C"  />
</linearGradient>
<linearGradient id="linear_fill_A527TrKfQmpsf-dEwwqGl" x1="104.65625" y1="52.643798828125" x2="104.65625" y2="48.088623046875" gradientUnits="userSpaceOnUse">
<stop offset="0" stop-color="#F2A319"  />
<stop offset="0.4796" stop-color="#FFC552"  />
</linearGradient>
<linearGradient id="linear_fill_H1JM4XH0xrYHOm_nDEljC" x1="112.080078125" y1="53.271728515625" x2="117.42431640625" y2="53.271728515625" gradientUnits="userSpaceOnUse">
<stop offset="0" stop-color="#171C61"  />
<stop offset="0.7868999999999999" stop-color="#272F7C"  />
</linearGradient>
</defs>
</svg>
