<svg xmlns="http://www.w3.org/2000/svg" xmlns:xlink="http://www.w3.org/1999/xlink" width="12.25" height="12.25" viewBox="0 0 12.25 12.25" fill="none">
<path d="M6.13 0C6.02976 0 5.93012 0.01 5.83 0.01C5.72988 0.01 5.62976 0.03 5.53 0.03C5.43024 0.03 5.32916 0.0552917 5.23 0.07C5.13084 0.0847083 5.02831 0.0904441 4.93 0.11C4.83168 0.129555 4.73723 0.155644 4.64 0.18C4.54277 0.204356 4.44593 0.230903 4.35 0.26C4.25408 0.289099 4.15439 0.32623 4.06 0.36C3.96562 0.39377 3.8726 0.43164 3.78 0.47C3.6874 0.50836 3.60062 0.547142 3.51 0.59C3.41938 0.632858 3.32841 0.672748 3.24 0.72C3.15159 0.767252 3.06598 0.818466 2.98 0.87C2.89402 0.921534 2.81335 0.974309 2.73 1.03C2.64665 1.08569 2.55051 1.14028 2.47 1.2C2.38949 1.25971 2.31748 1.32641 2.24 1.39C2.16252 1.45358 2.08428 1.51268 2.01 1.58C1.93572 1.64732 1.86088 1.71912 1.79 1.79C1.71912 1.86088 1.64732 1.93572 1.58 2.01C1.51268 2.08428 1.45358 2.16252 1.39 2.24C1.32641 2.31748 1.25971 2.38949 1.2 2.47C1.14028 2.55051 1.08569 2.64665 1.03 2.73C0.974309 2.81335 0.921534 2.89402 0.87 2.98C0.818466 3.06598 0.767252 3.15159 0.72 3.24C0.672748 3.32841 0.632858 3.41938 0.59 3.51C0.547142 3.60062 0.50836 3.6874 0.47 3.78C0.43164 3.8726 0.39377 3.96562 0.36 4.06C0.32623 4.15439 0.289099 4.25408 0.26 4.35C0.230903 4.44593 0.204356 4.54277 0.18 4.64C0.155644 4.73723 0.129555 4.83168 0.11 4.93C0.0904441 5.02831 0.0847083 5.13084 0.07 5.23C0.0552917 5.32916 0.03 5.43024 0.03 5.53C0.03 5.62976 0.01 5.72988 0.01 5.83C0.01 5.93012 0 6.02976 0 6.13C0 6.23024 0.01 6.31988 0.01 6.42C0.01 6.52012 0.03 6.62024 0.03 6.72C0.03 6.81976 0.0552917 6.92084 0.07 7.02C0.0847083 7.11916 0.0904441 7.22169 0.11 7.32C0.129555 7.41832 0.155644 7.51277 0.18 7.61C0.204356 7.70723 0.230903 7.80407 0.26 7.9C0.289099 7.99592 0.32623 8.09562 0.36 8.19C0.39377 8.28439 0.43164 8.3774 0.47 8.47C0.50836 8.5626 0.547142 8.64938 0.59 8.74C0.632858 8.83062 0.672748 8.92159 0.72 9.01C0.767252 9.09841 0.818466 9.18402 0.87 9.27C0.921534 9.35598 0.974309 9.43665 1.03 9.52C1.08569 9.60335 1.14028 9.69948 1.2 9.78C1.25971 9.86051 1.32641 9.93252 1.39 10.01C1.45358 10.0875 1.51268 10.1657 1.58 10.24C1.64732 10.3143 1.71912 10.3891 1.79 10.46C1.86088 10.5309 1.93572 10.6027 2.01 10.67C2.08428 10.7373 2.16252 10.7964 2.24 10.86C2.31748 10.9236 2.38949 10.9903 2.47 11.05C2.55051 11.1097 2.64665 11.1643 2.73 11.22C2.81335 11.2757 2.89402 11.3285 2.98 11.38C3.06598 11.4315 3.15159 11.4827 3.24 11.53C3.32841 11.5773 3.41938 11.6171 3.51 11.66C3.60062 11.7029 3.6874 11.7416 3.78 11.78C3.8726 11.8184 3.96562 11.8562 4.06 11.89C4.15439 11.9238 4.25408 11.9609 4.35 11.99C4.44593 12.0191 4.54277 12.0456 4.64 12.07C4.73723 12.0943 4.83168 12.1205 4.93 12.14C5.02831 12.1595 5.13084 12.1653 5.23 12.18C5.32916 12.1947 5.43024 12.22 5.53 12.22C5.62976 12.22 5.72988 12.24 5.83 12.24C5.93012 12.24 6.02976 12.25 6.13 12.25C6.23024 12.25 6.31988 12.24 6.42 12.24C6.52012 12.24 6.62024 12.22 6.72 12.22C6.81976 12.22 6.92084 12.1947 7.02 12.18C7.11916 12.1653 7.22169 12.1595 7.32 12.14C7.41832 12.1205 7.51277 12.0943 7.61 12.07C7.70723 12.0456 7.80407 12.0191 7.9 11.99C7.99592 11.9609 8.09562 11.9238 8.19 11.89C8.28439 11.8562 8.3774 11.8184 8.47 11.78C8.5626 11.7416 8.64938 11.7029 8.74 11.66C8.83062 11.6171 8.92159 11.5773 9.01 11.53C9.09841 11.4827 9.18402 11.4315 9.27 11.38C9.35598 11.3285 9.43665 11.2757 9.52 11.22C9.60335 11.1643 9.69948 11.1097 9.78 11.05C9.86051 10.9903 9.93252 10.9236 10.01 10.86C10.0875 10.7964 10.1657 10.7373 10.24 10.67C10.3143 10.6027 10.3891 10.5309 10.46 10.46C10.5309 10.3891 10.6027 10.3143 10.67 10.24C10.7373 10.1657 10.7964 10.0875 10.86 10.01C10.9236 9.93252 10.9903 9.86051 11.05 9.78C11.1097 9.69948 11.1643 9.60335 11.22 9.52C11.2757 9.43665 11.3285 9.35598 11.38 9.27C11.4315 9.18402 11.4827 9.09841 11.53 9.01C11.5773 8.92159 11.6171 8.83062 11.66 8.74C11.7029 8.64938 11.7416 8.5626 11.78 8.47C11.8184 8.3774 11.8562 8.28438 11.89 8.19C11.9238 8.09561 11.9609 7.99592 11.99 7.9C12.0191 7.80407 12.0456 7.70723 12.07 7.61C12.0943 7.51277 12.1205 7.41832 12.14 7.32C12.1595 7.22169 12.1653 7.11916 12.18 7.02C12.1947 6.92084 12.22 6.81976 12.22 6.72C12.22 6.62024 12.24 6.52012 12.24 6.42C12.24 6.31988 12.25 6.23024 12.25 6.13C12.25 6.02976 12.24 5.93012 12.24 5.83C12.24 5.72988 12.22 5.62976 12.22 5.53C12.22 5.43024 12.1947 5.32916 12.18 5.23C12.1653 5.13084 12.1595 5.02831 12.14 4.93C12.1205 4.83168 12.0943 4.73723 12.07 4.64C12.0456 4.54277 12.0191 4.44593 11.99 4.35C11.9609 4.25408 11.9238 4.15439 11.89 4.06C11.8562 3.96562 11.8184 3.8726 11.78 3.78C11.7416 3.6874 11.7029 3.60062 11.66 3.51C11.6171 3.41938 11.5773 3.32841 11.53 3.24C11.4827 3.15159 11.4315 3.06598 11.38 2.98C11.3285 2.89402 11.2757 2.81335 11.22 2.73C11.1643 2.64665 11.1097 2.55051 11.05 2.47C10.9903 2.38949 10.9236 2.31748 10.86 2.24C10.7964 2.16252 10.7373 2.08428 10.67 2.01C10.6027 1.93572 10.5309 1.86088 10.46 1.79C10.3891 1.71912 10.3143 1.64732 10.24 1.58C10.1657 1.51268 10.0875 1.45358 10.01 1.39C9.93252 1.32641 9.86051 1.25971 9.78 1.2C9.69948 1.14028 9.60335 1.08569 9.52 1.03C9.43665 0.974309 9.35598 0.921534 9.27 0.87C9.18402 0.818466 9.09841 0.767252 9.01 0.72C8.92159 0.672748 8.83062 0.632858 8.74 0.59C8.64938 0.547142 8.5626 0.50836 8.47 0.47C8.3774 0.43164 8.28438 0.39377 8.19 0.36C8.09561 0.32623 7.99592 0.289099 7.9 0.26C7.80407 0.230903 7.70723 0.204356 7.61 0.18C7.51277 0.155644 7.41832 0.129555 7.32 0.11C7.22169 0.0904441 7.11916 0.0847083 7.02 0.07C6.92084 0.0552917 6.81976 0.03 6.72 0.03C6.62024 0.03 6.52012 0.01 6.42 0.01C6.31988 0.01 6.23024 0 6.13 0ZM8.57 4.07L5.51 7.1L3.93 5.51L3.9 5.49L3.88 5.48L3.86 5.46L3.83 5.45L3.81 5.43L3.78 5.42L3.76 5.41L3.73 5.4L3.7 5.39L3.67 5.38L3.65 5.38L3.62 5.37L3.42 5.37L3.39 5.38L3.36 5.39L3.34 5.4L3.31 5.41L3.28 5.42L3.26 5.43L3.23 5.44L3.21 5.46L3.18 5.47L3.16 5.49L3.14 5.51L3.12 5.52L3.09 5.54L3.07 5.57L3.06 5.59L3.02 5.63L3.01 5.66L2.99 5.68L2.98 5.71L2.97 5.73L2.96 5.76L2.95 5.79L2.94 5.81L2.93 5.84L2.92 5.87L2.92 6.07L2.93 6.1L2.93 6.12L2.94 6.15L2.95 6.18L2.96 6.21L2.97 6.23L2.98 6.26L3 6.28L3.01 6.31L3.03 6.33L3.04 6.35L3.06 6.38L5.08 8.4L5.1 8.42L5.12 8.44L5.15 8.46L5.17 8.47L5.2 8.49L5.22 8.51L5.25 8.52L5.28 8.53L5.31 8.54L5.33 8.55L5.36 8.56L5.39 8.57L5.42 8.57C5.42 8.57 5.43998 8.58 5.45 8.58L5.57 8.58C5.58002 8.58 5.6 8.57 5.6 8.57L5.63 8.57L5.66 8.56L5.69 8.55L5.72 8.54L5.75 8.53L5.78 8.52L5.8 8.51L5.83 8.49L5.85 8.47L5.88 8.46L5.9 8.44L5.93 8.42L5.95 8.4L9.41 4.93L9.42 4.91L9.44 4.89L9.45 4.86L9.47 4.82L9.48 4.79L9.49 4.77L9.49 4.74L9.5 4.72L9.51 4.69L9.51 4.61L9.52 4.59L9.51 4.56L9.51 4.48L9.5 4.46L9.5 4.43L9.49 4.41L9.48 4.38L9.47 4.36L9.46 4.33L9.45 4.31L9.44 4.28L9.42 4.26L9.41 4.24L9.39 4.22L9.38 4.2L9.36 4.18L9.34 4.16L9.32 4.14L9.31 4.12L9.29 4.11L9.26 4.09L9.24 4.08L9.22 4.06L9.2 4.05L9.18 4.04L9.15 4.02L9.13 4.01L9.1 4.01L9.08 4L9.05 3.99L9.03 3.98L8.98 3.98L8.95 3.97L8.85 3.97L8.82 3.98L8.79 3.98L8.77 3.99L8.74 3.99L8.72 4L8.69 4.01L8.67 4.02L8.64 4.03L8.62 4.04L8.6 4.05L8.57 4.07Z" fill-rule="evenodd"  fill="#7DA626" >
</path>
</svg>
