<svg xmlns="http://www.w3.org/2000/svg" xmlns:xlink="http://www.w3.org/1999/xlink" width="14" height="14" viewBox="0 0 14 14" fill="none">
<path   fill-rule="evenodd"  fill="#FFFFFF"  d="M7 14C3.15 14 0 10.85 0 7C0 3.15 3.15 0 7 0C10.85 0 14 3.15 14 7C14 10.85 10.85 14 7 14ZM7 1.16667C3.79167 1.16667 1.16667 3.79167 1.16667 7C1.16667 10.2083 3.79167 12.8333 7 12.8333C10.2083 12.8333 12.8333 10.2083 12.8333 7C12.8333 3.79167 10.2083 1.16667 7 1.16667Z">
</path>
<path   fill-rule="evenodd"  fill="#FFFFFF"  d="M6.99991 4.20016C6.88324 4.0835 6.82491 3.96683 6.82491 3.79183C6.82491 3.61683 6.88324 3.50016 6.99991 3.3835C7.11657 3.26683 7.23324 3.2085 7.40824 3.2085C7.58324 3.2085 7.69991 3.26683 7.81657 3.3835C7.93324 3.50016 7.99157 3.61683 7.99157 3.79183C7.99157 3.96683 7.93324 4.0835 7.81657 4.20016C7.69991 4.31683 7.52491 4.37516 7.40824 4.37516C7.23324 4.37516 7.11657 4.31683 6.99991 4.20016ZM8.34157 9.80016C8.28324 9.80016 8.22491 9.8585 8.22491 9.8585C7.75824 10.6168 6.70824 11.3168 6.88324 10.3252C6.88324 10.2668 7.81657 5.54183 7.81657 5.54183C7.87491 5.25016 7.64157 4.90016 7.34991 4.84183C7.05824 4.7835 6.82491 4.9585 6.70824 5.25016L5.83324 9.8585C5.54157 11.9585 7.64157 11.6085 8.45824 10.0335C8.51657 9.97516 8.51657 9.91683 8.51657 9.8585C8.45824 9.8585 8.39991 9.80016 8.34157 9.80016Z">
</path>
</svg>
