<svg xmlns="http://www.w3.org/2000/svg" xmlns:xlink="http://www.w3.org/1999/xlink" width="18" height="18" viewBox="0 0 18 18" fill="none">
<path d="M9.59319 8.98511L9.22247 9.38759C9.20317 9.37664 9.18355 9.36632 9.1636 9.35662C9.14365 9.3469 9.1234 9.33783 9.10289 9.32939C9.08237 9.32096 9.06161 9.31317 9.04061 9.30605C9.0196 9.29891 8.99839 9.29244 8.97698 9.28664C8.95555 9.28084 8.93398 9.27573 8.91224 9.27128C8.89049 9.26683 8.86864 9.26309 8.84667 9.26001C8.8247 9.25694 8.80265 9.25456 8.78054 9.25287C8.75841 9.25119 8.73626 9.2502 8.71408 9.2499C8.68231 9.24938 8.6506 9.25054 8.61894 9.2534C8.5873 9.25627 8.55591 9.26082 8.52474 9.26706C8.49358 9.2733 8.46285 9.28118 8.43253 9.2907C8.40221 9.30021 8.3725 9.31134 8.34337 9.32405L6.8923 7.20571C6.9027 7.19585 6.91285 7.18574 6.92274 7.17539C6.93264 7.16502 6.94227 7.1544 6.95162 7.14355C6.96098 7.13271 6.97005 7.12161 6.97885 7.11029C6.98764 7.09899 6.99613 7.08746 7.00434 7.0757C7.01255 7.06396 7.02046 7.05201 7.02805 7.03986C7.03567 7.02771 7.04294 7.01539 7.04992 7.00287C7.0569 6.99034 7.06356 6.97765 7.06989 6.9648C7.07622 6.95195 7.08221 6.93896 7.08789 6.92579C7.09357 6.91263 7.09889 6.89934 7.1039 6.88591C7.1089 6.87248 7.11355 6.85893 7.11786 6.84527C7.12217 6.83159 7.12614 6.81783 7.12974 6.80396C7.13336 6.79009 7.13662 6.77615 7.13952 6.76211C7.14242 6.74808 7.14497 6.73398 7.14716 6.71981C7.14936 6.70566 7.15119 6.69146 7.15265 6.67721C7.15412 6.66295 7.15523 6.64866 7.15597 6.63435C7.15673 6.62004 7.15709 6.60571 7.15711 6.59139C7.15711 6.57717 7.15676 6.56296 7.15606 6.54878C7.15537 6.53458 7.15432 6.52041 7.15293 6.50626C7.15154 6.49211 7.1498 6.47801 7.14771 6.46395C7.14562 6.44988 7.14319 6.43589 7.14043 6.42195C7.13765 6.40801 7.13454 6.39414 7.13108 6.38036C7.12763 6.36656 7.12384 6.35287 7.11971 6.33927C7.11557 6.32568 7.11113 6.31218 7.10635 6.2988C7.10155 6.28542 7.09643 6.27215 7.091 6.25902C7.08557 6.24589 7.0798 6.2329 7.07372 6.22005C7.06766 6.2072 7.06126 6.19451 7.05456 6.18198C7.04786 6.16944 7.04085 6.15707 7.03354 6.14489C7.02624 6.13269 7.01863 6.12068 7.01074 6.10887C7.00285 6.09704 6.99466 6.08542 6.9862 6.07401C6.97773 6.0626 6.96899 6.05139 6.95997 6.0404C6.95096 6.02942 6.94167 6.01866 6.93213 6.00813C6.92259 5.9976 6.91278 5.9873 6.90272 5.97726C6.89268 5.96721 6.88238 5.9574 6.87185 5.94785C6.86132 5.93831 6.85057 5.92903 6.83958 5.92001C6.82859 5.91099 6.81738 5.90226 6.80597 5.89378C6.79456 5.88533 6.78294 5.87714 6.77111 5.86924C6.7593 5.86135 6.7473 5.85374 6.7351 5.84643C6.72291 5.83913 6.71054 5.83212 6.69801 5.82542C6.68547 5.81872 6.67278 5.81233 6.65993 5.80626C6.64708 5.80018 6.63409 5.79441 6.62096 5.78898C6.60783 5.78355 6.59456 5.77844 6.58118 5.77364C6.56781 5.76886 6.55431 5.76441 6.54072 5.76028C6.52711 5.75615 6.51342 5.75235 6.49962 5.7489C6.48584 5.74544 6.47197 5.74233 6.45803 5.73955C6.44409 5.73679 6.4301 5.73437 6.41604 5.73228C6.40197 5.73018 6.38788 5.72844 6.37373 5.72705C6.35958 5.72567 6.34541 5.72461 6.3312 5.72393C6.31702 5.72322 6.30282 5.72287 6.28859 5.72287C6.27437 5.72287 6.26017 5.72322 6.24599 5.72393C6.23178 5.72461 6.21761 5.72567 6.20346 5.72705C6.18931 5.72844 6.17522 5.73018 6.16115 5.73228C6.14709 5.73437 6.1331 5.73679 6.11916 5.73955C6.10522 5.74233 6.09135 5.74544 6.07757 5.7489C6.06377 5.75235 6.05008 5.75615 6.03647 5.76028C6.02288 5.76441 6.00938 5.76886 5.99601 5.77364C5.98263 5.77844 5.96936 5.78355 5.95623 5.78898C5.9431 5.79441 5.93011 5.80018 5.91726 5.80626C5.90441 5.81233 5.89172 5.81872 5.87918 5.82542C5.86665 5.83212 5.85427 5.83913 5.84209 5.84643C5.82989 5.85374 5.81789 5.86135 5.80608 5.86924C5.79424 5.87714 5.78263 5.88533 5.77122 5.89378C5.75981 5.90226 5.74859 5.91099 5.73761 5.92001C5.72662 5.92903 5.71586 5.93831 5.70533 5.94785C5.69481 5.9574 5.6845 5.96721 5.67447 5.97726C5.66441 5.9873 5.6546 5.9976 5.64506 6.00813C5.63551 6.01866 5.62623 6.02942 5.61722 6.0404C5.6082 6.05139 5.59946 6.0626 5.59099 6.07401C5.58253 6.08542 5.57434 6.09704 5.56645 6.10887C5.55856 6.12068 5.55095 6.13269 5.54363 6.14489C5.53634 6.15707 5.52933 6.16944 5.52263 6.18198C5.51593 6.19451 5.50953 6.2072 5.50347 6.22005C5.49739 6.2329 5.49162 6.24589 5.48619 6.25902C5.48076 6.27215 5.47564 6.28542 5.47084 6.2988C5.46606 6.31218 5.46161 6.32568 5.45748 6.33927C5.45335 6.35287 5.44956 6.36656 5.44611 6.38036C5.44265 6.39414 5.43954 6.40801 5.43676 6.42195C5.434 6.43589 5.43157 6.44988 5.42948 6.46395C5.42739 6.47801 5.42565 6.49211 5.42426 6.50626C5.42287 6.52041 5.42182 6.53458 5.42111 6.54878C5.42043 6.56296 5.42008 6.57717 5.42008 6.59139C5.41988 6.61211 5.42052 6.63282 5.42198 6.65351C5.42342 6.6742 5.42568 6.69478 5.42878 6.7153C5.43185 6.73579 5.43576 6.75613 5.44045 6.77633C5.44514 6.79653 5.45065 6.81651 5.45694 6.83627C5.46321 6.85603 5.47028 6.8755 5.47812 6.8947C5.48594 6.91389 5.49452 6.93276 5.50385 6.95127C5.51319 6.96978 5.52323 6.9879 5.534 7.00562C5.54476 7.02334 5.5562 7.0406 5.56835 7.05742L3.89488 8.67795C3.88575 8.67046 3.87651 8.66315 3.8671 8.65603C3.8577 8.64891 3.84817 8.64196 3.83849 8.63523C3.8288 8.62848 3.81899 8.62193 3.80906 8.61558C3.79911 8.60923 3.78904 8.60308 3.77886 8.59712C3.76868 8.59116 3.75838 8.58542 3.74798 8.57988C3.73755 8.57434 3.72704 8.569 3.71642 8.56388C3.70579 8.55875 3.69507 8.55383 3.68425 8.54914C3.67343 8.54444 3.66251 8.53996 3.65152 8.53571C3.64052 8.53143 3.62945 8.52739 3.61828 8.52356C3.60712 8.51974 3.59589 8.51614 3.58459 8.51277C3.57328 8.50939 3.56193 8.50624 3.5505 8.50331C3.53906 8.50037 3.52758 8.49768 3.51605 8.49522C3.50452 8.49274 3.49293 8.49051 3.48132 8.48851C3.4697 8.4865 3.45802 8.48473 3.44633 8.48318C3.43465 8.48163 3.42292 8.48032 3.41118 8.47924C3.39942 8.47817 3.38766 8.47733 3.37588 8.47671C3.36275 8.47817 3.34966 8.47993 3.33659 8.48199C3.32355 8.48404 3.31056 8.48638 3.29761 8.48903C3.28465 8.49169 3.27178 8.49463 3.25897 8.49786C3.24616 8.50109 3.23343 8.50463 3.22077 8.50844C3.20813 8.51226 3.19557 8.51637 3.1831 8.52075C3.17064 8.52514 3.1583 8.52982 3.14605 8.53477C3.1338 8.53973 3.12165 8.54497 3.10964 8.55047C3.09764 8.55597 3.08577 8.56176 3.07401 8.5678C3.06227 8.57385 3.05067 8.58016 3.03921 8.58675C3.02775 8.59333 3.01644 8.60016 3.0053 8.60725C2.99416 8.61435 2.98317 8.6217 2.97236 8.62929C2.96155 8.63688 2.95093 8.64472 2.94047 8.65281C2.93001 8.6609 2.91975 8.66921 2.90967 8.67775C2.8996 8.68631 2.88972 8.69509 2.88006 8.70409C2.87037 8.71309 2.86091 8.7223 2.85167 8.73174C2.84241 8.74118 2.83337 8.75081 2.82456 8.76065C2.81575 8.7705 2.80716 8.78053 2.79881 8.79078C2.79045 8.80101 2.78234 8.81144 2.77446 8.82205C2.76658 8.83265 2.75894 8.84344 2.75156 8.8544C2.74418 8.86535 2.73705 8.87647 2.73017 8.88774C2.72329 8.89903 2.71667 8.91045 2.7103 8.92204C2.70395 8.93362 2.69786 8.94534 2.69204 8.95721C2.68622 8.96908 2.68067 8.98106 2.67539 8.99318C2.67012 9.00529 2.66512 9.01752 2.6604 9.02986C2.65568 9.0422 2.65124 9.05465 2.64709 9.0672C2.64294 9.07973 2.63908 9.09237 2.63551 9.10509C2.63195 9.1178 2.62867 9.1306 2.62568 9.14349C2.62268 9.15635 2.61999 9.16929 2.6176 9.18228C2.61519 9.19527 2.61309 9.20831 2.61129 9.22141C2.60948 9.23451 2.60798 9.24762 2.60679 9.26077C2.60558 9.27393 2.60467 9.28712 2.60406 9.30032C2.60346 9.31352 2.60317 9.32672 2.60317 9.33994C2.60317 9.35314 2.60346 9.36634 2.60406 9.37954C2.60467 9.39274 2.60558 9.40593 2.60679 9.41909C2.60798 9.43224 2.60948 9.44536 2.61129 9.45845C2.61309 9.47155 2.61519 9.48459 2.6176 9.49758C2.61999 9.51057 2.62268 9.52351 2.62568 9.53638C2.62867 9.54926 2.63195 9.56206 2.63551 9.57477C2.63908 9.58749 2.64294 9.60013 2.64709 9.61266C2.65124 9.62521 2.65568 9.63766 2.6604 9.65C2.66512 9.66234 2.67012 9.67457 2.67539 9.68669C2.68067 9.6988 2.68622 9.71078 2.69204 9.72265C2.69786 9.73452 2.70395 9.74624 2.7103 9.75782C2.71667 9.76941 2.72329 9.78083 2.73017 9.79212C2.73705 9.80339 2.74418 9.81451 2.75156 9.82546C2.75894 9.83642 2.76658 9.84721 2.77446 9.85781C2.78234 9.86843 2.79045 9.87885 2.79881 9.88908C2.80716 9.89933 2.81575 9.90936 2.82456 9.91921C2.83337 9.92905 2.84241 9.93869 2.85167 9.94812C2.86091 9.95756 2.87037 9.96677 2.88006 9.97577C2.88972 9.98478 2.8996 9.99355 2.90967 10.0021C2.91975 10.0106 2.93001 10.019 2.94047 10.0271C2.95093 10.0351 2.96155 10.043 2.97236 10.0506C2.98317 10.0582 2.99416 10.0655 3.0053 10.0726C3.01644 10.0797 3.02775 10.0865 3.03921 10.0931C3.05067 10.0997 3.06227 10.106 3.07401 10.1121C3.08577 10.1181 3.09766 10.1239 3.10966 10.1294C3.12167 10.1349 3.1338 10.1401 3.14605 10.1451C3.1583 10.15 3.17066 10.1547 3.18312 10.1591C3.19558 10.1635 3.20813 10.1676 3.22077 10.1714C3.23343 10.1752 3.24616 10.1788 3.25897 10.182C3.27178 10.1852 3.28465 10.1882 3.29761 10.1908C3.31056 10.1935 3.32355 10.1958 3.33659 10.1979C3.34966 10.1999 3.36275 10.2017 3.37588 10.2031C3.3901 10.2031 3.40431 10.2028 3.41849 10.2021C3.43269 10.2014 3.44686 10.2004 3.46101 10.199C3.47516 10.1976 3.48926 10.1958 3.50332 10.1937C3.51739 10.1917 3.53138 10.1892 3.54532 10.1865C3.55926 10.1837 3.57313 10.1806 3.58691 10.1771C3.60071 10.1737 3.6144 10.1699 3.628 10.1657C3.64159 10.1616 3.65509 10.1572 3.66847 10.1524C3.68185 10.1476 3.69512 10.1425 3.70825 10.137C3.72138 10.1316 3.73437 10.1258 3.74722 10.1198C3.76007 10.1137 3.77276 10.1073 3.78529 10.1006C3.79783 10.0939 3.8102 10.0869 3.82238 10.0796C3.83458 10.0723 3.84659 10.0647 3.8584 10.0568C3.87023 10.0489 3.88185 10.0407 3.89326 10.0322C3.90467 10.0238 3.91588 10.015 3.92687 10.006C3.93785 9.99699 3.94861 9.98771 3.95914 9.97817C3.96967 9.96862 3.97997 9.95881 3.99001 9.94876C4.00006 9.93872 4.00987 9.92842 4.01942 9.91789C4.02896 9.90736 4.03824 9.8966 4.04726 9.88562C4.05628 9.87463 4.06501 9.86342 4.07349 9.85201C4.08194 9.8406 4.09013 9.82898 4.09803 9.81715C4.10592 9.80534 4.11353 9.79333 4.12084 9.78113C4.12814 9.76895 4.13515 9.75658 4.14185 9.74404C4.14855 9.73151 4.15494 9.71882 4.16101 9.70597C4.16709 9.69312 4.17286 9.68013 4.17829 9.667C4.18372 9.65387 4.18884 9.6406 4.19363 9.62722C4.19841 9.61384 4.20286 9.60034 4.20699 9.58675C4.21112 9.57315 4.21492 9.55945 4.21837 9.54566C4.22183 9.53187 4.22494 9.51801 4.22772 9.50407C4.23048 9.49013 4.2329 9.47613 4.23499 9.46207C4.23709 9.44801 4.23883 9.43391 4.24022 9.41976C4.2416 9.40561 4.24266 9.39144 4.24334 9.37724C4.24405 9.36305 4.2444 9.34885 4.2444 9.33463C4.24447 9.30742 4.24319 9.28028 4.24053 9.25321C4.23788 9.22612 4.23389 9.19924 4.22856 9.17258C4.22322 9.1459 4.21656 9.11954 4.20859 9.09353C4.20063 9.06753 4.19137 9.04197 4.18084 9.01689L5.90729 7.32222C5.92141 7.32986 5.93575 7.337 5.95036 7.34366C5.96496 7.35032 5.97976 7.35649 5.99478 7.36214C6.00981 7.3678 6.02499 7.37295 6.04036 7.37757C6.05572 7.38219 6.07122 7.38631 6.08687 7.38987C6.10251 7.39344 6.11826 7.39648 6.1341 7.399C6.14996 7.40151 6.16586 7.40348 6.18184 7.4049C6.19782 7.40633 6.21383 7.40722 6.22988 7.40756C6.24593 7.40789 6.26196 7.4077 6.278 7.40694C6.31134 7.41211 6.34488 7.4147 6.37861 7.4147C6.41234 7.4147 6.44588 7.41211 6.47923 7.40694L7.9303 9.52528C7.91953 9.53711 7.90903 9.54921 7.89882 9.56153C7.88861 9.57385 7.87868 9.58638 7.86903 9.59915C7.85938 9.61193 7.85001 9.6249 7.84095 9.63808C7.8319 9.65128 7.82313 9.66468 7.81467 9.67827C7.80622 9.69185 7.79808 9.70562 7.79026 9.71957C7.78242 9.73353 7.77491 9.74766 7.76772 9.76197C7.76053 9.77626 7.75366 9.79071 7.74714 9.80532C7.7406 9.81993 7.7344 9.83469 7.72854 9.84958C7.72267 9.86447 7.71715 9.87948 7.71197 9.89462C7.70678 9.90975 7.70193 9.92501 7.69745 9.94037C7.69295 9.95574 7.6888 9.97119 7.685 9.98674C7.68122 10.0023 7.67778 10.0179 7.67468 10.0336C7.67161 10.0493 7.66888 10.0651 7.66651 10.0809C7.66414 10.0967 7.66213 10.1126 7.66048 10.1285C7.65883 10.1445 7.65754 10.1604 7.65661 10.1764C7.65568 10.1924 7.6551 10.2083 7.65491 10.2243C7.65491 10.2417 7.65533 10.259 7.65619 10.2763C7.65703 10.2936 7.6583 10.3109 7.66 10.3282C7.66171 10.3454 7.66382 10.3626 7.66637 10.3798C7.66892 10.3969 7.67187 10.414 7.67526 10.431C7.67864 10.448 7.68243 10.4649 7.68665 10.4817C7.69085 10.4985 7.69548 10.5152 7.70052 10.5318C7.70555 10.5484 7.71098 10.5648 7.71682 10.5812C7.72267 10.5975 7.72891 10.6137 7.73554 10.6297C7.74216 10.6457 7.7492 10.6615 7.7566 10.6772C7.76401 10.6929 7.7718 10.7083 7.77998 10.7236C7.78815 10.7389 7.79669 10.754 7.8056 10.7689C7.81452 10.7837 7.82378 10.7984 7.83341 10.8128C7.84305 10.8272 7.85303 10.8414 7.86335 10.8553C7.87367 10.8692 7.88434 10.8829 7.89532 10.8963C7.90633 10.9097 7.91765 10.9228 7.92928 10.9356C7.94092 10.9485 7.95287 10.961 7.96513 10.9733C7.97738 10.9856 7.98993 10.9975 8.00278 11.0091C8.01563 11.0208 8.02874 11.0321 8.04215 11.0431C8.05555 11.0541 8.06921 11.0648 8.08313 11.0751C8.09705 11.0854 8.11122 11.0954 8.12563 11.105C8.14005 11.1146 8.15469 11.1239 8.16956 11.1328C8.18441 11.1417 8.1995 11.1503 8.21479 11.1584C8.23008 11.1666 8.24557 11.1744 8.26123 11.1818C8.27689 11.1892 8.29273 11.1963 8.30874 11.2029C8.32476 11.2095 8.34093 11.2158 8.35726 11.2216C8.37357 11.2274 8.39002 11.2329 8.40662 11.2379C8.42319 11.2429 8.43989 11.2476 8.45672 11.2518C8.47354 11.256 8.49045 11.2598 8.50745 11.2632C8.52444 11.2666 8.54153 11.2695 8.55867 11.2721C8.57581 11.2746 8.59302 11.2767 8.61026 11.2784C8.6275 11.2801 8.64478 11.2814 8.6621 11.2822C8.67941 11.2831 8.69674 11.2835 8.71408 11.2835C8.73141 11.2835 8.74874 11.2831 8.76606 11.2822C8.78337 11.2814 8.80065 11.2801 8.81789 11.2784C8.83514 11.2767 8.85235 11.2746 8.86948 11.2721C8.88662 11.2695 8.90371 11.2666 8.92071 11.2632C8.93771 11.2598 8.95462 11.256 8.97144 11.2518C8.98826 11.2476 9.00496 11.2429 9.02154 11.2379C9.03813 11.2329 9.05458 11.2274 9.0709 11.2216C9.08722 11.2158 9.1034 11.2095 9.11941 11.2029C9.13542 11.1963 9.15126 11.1892 9.16692 11.1818C9.18259 11.1744 9.19807 11.1666 9.21337 11.1584C9.22866 11.1503 9.24374 11.1417 9.25859 11.1328C9.27347 11.1239 9.28811 11.1146 9.30252 11.105C9.31694 11.0954 9.3311 11.0854 9.34503 11.0751C9.35895 11.0648 9.37261 11.0541 9.386 11.0431C9.39941 11.0321 9.41253 11.0208 9.42538 11.0091C9.43823 10.9975 9.45078 10.9856 9.46303 10.9733C9.47528 10.961 9.48723 10.9485 9.49887 10.9356C9.51051 10.9228 9.52183 10.9097 9.53283 10.8963C9.54382 10.8829 9.55449 10.8692 9.56481 10.8553C9.57512 10.8414 9.58511 10.8272 9.59474 10.8128C9.60437 10.7984 9.61364 10.7837 9.62255 10.7689C9.63146 10.754 9.64 10.7389 9.64818 10.7236C9.65635 10.7083 9.66414 10.6929 9.67156 10.6772C9.67896 10.6615 9.68599 10.6457 9.69262 10.6297C9.69924 10.6137 9.70548 10.5975 9.71134 10.5812C9.71717 10.5648 9.7226 10.5484 9.72763 10.5318C9.73268 10.5152 9.7373 10.4985 9.7415 10.4817C9.74572 10.4649 9.74952 10.448 9.75289 10.431C9.75628 10.414 9.75924 10.3969 9.76179 10.3798C9.76433 10.3626 9.76644 10.3454 9.76815 10.3282C9.76985 10.3109 9.77112 10.2936 9.77196 10.2763C9.77283 10.259 9.77325 10.2417 9.77325 10.2243C9.77305 10.1986 9.77191 10.1728 9.76982 10.1471C9.76775 10.1214 9.76474 10.0958 9.76078 10.0704C9.75683 10.0449 9.75196 10.0196 9.74616 9.99448C9.74038 9.96936 9.73366 9.94447 9.72605 9.91984C9.71844 9.89522 9.70993 9.87089 9.70054 9.84688C9.69116 9.82286 9.68091 9.79922 9.66978 9.77596C9.65867 9.75271 9.64672 9.72987 9.63394 9.7075C9.62116 9.6851 9.60757 9.6632 9.59319 9.64181L9.9533 9.2499L9.61438 8.93216L9.59319 8.98511ZM3.37588 9.7689C3.36952 9.76874 3.36316 9.76842 3.35681 9.76795C3.35046 9.76747 3.34412 9.76686 3.33779 9.7661C3.33148 9.76533 3.32517 9.76442 3.31889 9.76334C3.31262 9.76227 3.30636 9.76106 3.30014 9.7597C3.29392 9.75833 3.28773 9.75682 3.28158 9.75517C3.27544 9.7535 3.26932 9.75171 3.26326 9.74976C3.25719 9.7478 3.25118 9.74573 3.24522 9.7435C3.23926 9.74127 3.23334 9.73887 3.22749 9.73636C3.22163 9.73385 3.21585 9.73121 3.21012 9.72842C3.20441 9.72562 3.19875 9.7227 3.19316 9.71964C3.18757 9.7166 3.18205 9.7134 3.17662 9.71008C3.17118 9.70676 3.16582 9.70331 3.16055 9.69975C3.15528 9.69618 3.15009 9.69249 3.14501 9.68867C3.13991 9.68486 3.1349 9.6809 3.13 9.67684C3.12509 9.67278 3.12028 9.66862 3.11555 9.66434C3.11084 9.66005 3.10623 9.65566 3.10173 9.65116C3.09723 9.64664 3.09284 9.64204 3.08855 9.63733C3.08426 9.63262 3.08009 9.6278 3.07603 9.62289C3.07197 9.61799 3.06804 9.61298 3.06422 9.60788C3.06041 9.60279 3.0567 9.5976 3.05313 9.59233C3.04956 9.58707 3.04612 9.58171 3.04279 9.57628C3.03947 9.57085 3.03629 9.56533 3.03323 9.55974C3.03017 9.55415 3.02725 9.54849 3.02446 9.54277C3.02167 9.53704 3.01903 9.53126 3.01651 9.52541C3.014 9.51955 3.01163 9.51363 3.0094 9.50767C3.00716 9.50171 3.00507 9.4957 3.00312 9.48963C3.00117 9.48357 2.99938 9.47745 2.99771 9.47132C2.99605 9.46517 2.99454 9.45898 2.99319 9.45276C2.99182 9.44653 2.9906 9.44028 2.98953 9.434C2.98846 9.42772 2.98755 9.42143 2.98677 9.4151C2.98602 9.40878 2.9854 9.40243 2.98493 9.39608C2.98445 9.38974 2.98414 9.38338 2.98398 9.37701C2.9838 9.37049 2.98378 9.36397 2.98394 9.35745C2.98408 9.35093 2.9844 9.3444 2.98487 9.3379C2.98535 9.33138 2.98598 9.32489 2.98679 9.31842C2.98758 9.31194 2.98855 9.30549 2.98967 9.29905C2.99078 9.29264 2.99206 9.28624 2.99351 9.27987C2.99495 9.27351 2.99655 9.26718 2.9983 9.26089C3.00006 9.25461 3.00198 9.24837 3.00405 9.24219C3.00611 9.236 3.00834 9.22987 3.01071 9.22378C3.01309 9.2177 3.01562 9.21169 3.01829 9.20573C3.02096 9.19979 3.02379 9.19392 3.02676 9.1881C3.02973 9.18228 3.03284 9.17655 3.0361 9.17089C3.03935 9.16525 3.04274 9.15968 3.04627 9.15417C3.04981 9.14869 3.05348 9.14329 3.05728 9.138C3.06109 9.13269 3.06503 9.12749 3.06909 9.12239C3.07315 9.11728 3.07733 9.11229 3.08164 9.10738C3.08597 9.10248 3.0904 9.09769 3.09495 9.09302C3.0995 9.08834 3.10416 9.08379 3.10894 9.07934C3.11372 9.0749 3.11861 9.07059 3.12362 9.06639C3.12861 9.06219 3.13371 9.05813 3.13891 9.05417C3.1441 9.05023 3.14939 9.04642 3.15478 9.04275C3.16018 9.03907 3.16565 9.03552 3.17122 9.03211C3.17679 9.02872 3.18243 9.02545 3.18816 9.02232C3.1939 9.01921 3.1997 9.01622 3.20559 9.01339C3.21146 9.01056 3.2174 9.00787 3.22343 9.00534C3.22944 9.00279 3.2355 9.00042 3.24164 8.99819C3.24777 8.99595 3.25394 8.99386 3.26018 8.99195C3.26642 8.99003 3.2727 8.98825 3.27903 8.98664C3.28535 8.98504 3.29172 8.98358 3.2981 8.98229C3.3045 8.98099 3.31093 8.97985 3.31738 8.97888C3.32383 8.97792 3.33032 8.97711 3.33681 8.97646C3.34329 8.97581 3.3498 8.97533 3.35632 8.975C3.36284 8.97468 3.36936 8.97453 3.37588 8.97453C3.38305 8.97335 3.39026 8.97236 3.39749 8.97157C3.40471 8.97078 3.41195 8.9702 3.41921 8.96981C3.42647 8.96941 3.43373 8.96922 3.44099 8.96922C3.44827 8.96922 3.45553 8.96941 3.46279 8.9698C3.47005 8.9702 3.47729 8.97078 3.48451 8.97157C3.49174 8.97236 3.49895 8.97333 3.50612 8.97451C3.51329 8.97569 3.52043 8.97706 3.52753 8.97862C3.53463 8.98019 3.54168 8.98193 3.54869 8.98388C3.55569 8.98583 3.56263 8.98796 3.56952 8.99028C3.57641 8.9926 3.58323 8.99511 3.58998 8.9978C3.59673 9.00049 3.60341 9.00335 3.61 9.00641C3.6166 9.00945 3.62312 9.01269 3.62953 9.0161C3.63597 9.01949 3.6423 9.02308 3.64852 9.02682C3.65476 9.03056 3.66088 9.03448 3.66689 9.03856C3.6729 9.04264 3.67881 9.04688 3.68459 9.05127C3.69037 9.05568 3.69605 9.06024 3.70159 9.06493C3.70712 9.06964 3.71254 9.07449 3.71781 9.07948C3.72308 9.08449 3.72822 9.08963 3.73323 9.0949C3.73824 9.10017 3.74309 9.10559 3.74778 9.11112C3.75249 9.11666 3.75705 9.12234 3.76144 9.12812C3.76585 9.13391 3.77009 9.13981 3.77417 9.14582C3.77824 9.15184 3.78217 9.15795 3.78591 9.16419C3.78965 9.17042 3.79324 9.17674 3.79663 9.18316C3.80004 9.18958 3.80328 9.1961 3.80632 9.20269C3.80938 9.20928 3.81224 9.21596 3.81493 9.22273C3.81762 9.22948 3.82013 9.2363 3.82245 9.24319C3.82477 9.25006 3.8269 9.25701 3.82885 9.26402C3.8308 9.27103 3.83254 9.27808 3.83411 9.28518C3.83567 9.29227 3.83704 9.2994 3.83822 9.30658C3.8394 9.31377 3.84037 9.32096 3.84116 9.32818C3.84195 9.3354 3.84253 9.34265 3.84293 9.34991C3.84334 9.35717 3.84353 9.36444 3.84353 9.3717C3.84353 9.37896 3.84334 9.38624 3.84293 9.3935C3.84253 9.40076 3.84195 9.408 3.84116 9.41523C3.84037 9.42245 3.8394 9.42964 3.83822 9.43683C3.83704 9.444 3.83567 9.45114 3.83411 9.45822C3.83254 9.46532 3.8308 9.47237 3.82885 9.47939C3.8269 9.4864 3.82477 9.49334 3.82245 9.50023C3.82013 9.50711 3.81762 9.51393 3.81493 9.52069C3.81224 9.52744 3.80938 9.53412 3.80632 9.54072C3.80328 9.54731 3.80004 9.55383 3.79663 9.56025C3.79324 9.56666 3.78965 9.57299 3.78591 9.57921C3.78217 9.58545 3.77824 9.59157 3.77417 9.59758C3.77009 9.60361 3.76585 9.6095 3.76144 9.61528C3.75705 9.62107 3.75249 9.62674 3.74778 9.63228C3.74309 9.63782 3.73824 9.64323 3.73323 9.64851C3.72822 9.65378 3.72308 9.65891 3.71781 9.66392C3.71254 9.66893 3.70712 9.67378 3.70159 9.67848C3.69605 9.68319 3.69037 9.68774 3.68459 9.69213C3.67881 9.69653 3.6729 9.70077 3.66689 9.70484C3.66088 9.70892 3.65476 9.71284 3.64852 9.71659C3.6423 9.72033 3.63597 9.72392 3.62953 9.72731C3.62312 9.73072 3.6166 9.73395 3.61 9.73699C3.60341 9.74005 3.59673 9.74292 3.58998 9.74561C3.58323 9.7483 3.57641 9.75081 3.56952 9.75313C3.56263 9.75545 3.55569 9.75758 3.54869 9.75953C3.54168 9.76148 3.53463 9.76322 3.52753 9.76478C3.52043 9.76635 3.51329 9.76772 3.50612 9.7689C3.49895 9.77008 3.49174 9.77104 3.48451 9.77183C3.47729 9.77262 3.47005 9.7732 3.46279 9.77361C3.45553 9.774 3.44827 9.77419 3.44099 9.77419C3.43373 9.77419 3.42647 9.774 3.41921 9.77359C3.41195 9.7732 3.40471 9.77262 3.39749 9.77183C3.39026 9.77104 3.38305 9.77006 3.37588 9.76888L3.37588 9.7689ZM6.278 6.94093C6.27158 6.94093 6.26518 6.94077 6.25876 6.94045C6.25235 6.94014 6.24597 6.93966 6.23959 6.93905C6.23321 6.93842 6.22684 6.93762 6.2205 6.93669C6.21415 6.93574 6.20782 6.93465 6.20153 6.93341C6.19525 6.93216 6.189 6.93075 6.18277 6.92919C6.17655 6.92762 6.17036 6.92592 6.16423 6.92405C6.15809 6.92219 6.152 6.92019 6.14597 6.91803C6.13994 6.91586 6.13394 6.91354 6.12802 6.9111C6.12209 6.90864 6.11622 6.90604 6.11044 6.90329C6.10464 6.90055 6.09891 6.89767 6.09325 6.89465C6.08759 6.89162 6.08202 6.88846 6.07651 6.88517C6.07101 6.88188 6.0656 6.87846 6.06025 6.87489C6.05493 6.87132 6.04969 6.86763 6.04454 6.8638C6.03939 6.85998 6.03433 6.85603 6.02937 6.85197C6.02441 6.84791 6.01956 6.8437 6.01482 6.8394C6.01005 6.83509 6.00541 6.83068 6.00088 6.82614C5.99634 6.82161 5.99191 6.81697 5.9876 6.8122C5.9833 6.80746 5.97911 6.80261 5.97505 6.79765C5.97098 6.79269 5.96702 6.78763 5.96321 6.78248C5.95939 6.77733 5.9557 6.77207 5.95213 6.76675C5.94856 6.76142 5.94514 6.75601 5.94185 6.75051C5.93854 6.745 5.93538 6.73941 5.93236 6.73377C5.92933 6.72811 5.92645 6.72238 5.92371 6.71658C5.92097 6.7108 5.91836 6.70493 5.91592 6.699C5.91348 6.69308 5.91116 6.68708 5.909 6.68105C5.90683 6.67503 5.90483 6.66893 5.90297 6.66279C5.9011 6.65666 5.8994 6.65047 5.89783 6.64425C5.89627 6.63802 5.89486 6.63177 5.89361 6.62549C5.89237 6.6192 5.89128 6.61287 5.89033 6.60652C5.8894 6.60018 5.8886 6.59381 5.88797 6.58743C5.88736 6.58105 5.88688 6.57467 5.88657 6.56826C5.88625 6.56184 5.88609 6.55544 5.88609 6.54903C5.88609 6.54261 5.88625 6.53621 5.88657 6.52979C5.88688 6.52338 5.88736 6.517 5.88797 6.51062C5.8886 6.50424 5.8894 6.49787 5.89033 6.49153C5.89128 6.48518 5.89237 6.47885 5.89361 6.47256C5.89486 6.46629 5.89627 6.46003 5.89783 6.4538C5.8994 6.44758 5.9011 6.44139 5.90297 6.43526C5.90483 6.42912 5.90683 6.42303 5.909 6.417C5.91116 6.41097 5.91348 6.40497 5.91592 6.39905C5.91838 6.39313 5.92098 6.38725 5.92373 6.38147C5.92647 6.37567 5.92935 6.36994 5.93237 6.36428C5.9354 6.35864 5.93856 6.35305 5.94185 6.34754C5.94514 6.34204 5.94856 6.33663 5.95213 6.3313C5.9557 6.32596 5.95939 6.32072 5.96321 6.31557C5.96702 6.31042 5.97098 6.30536 5.97505 6.3004C5.97911 6.29544 5.9833 6.29059 5.9876 6.28585C5.99191 6.28108 5.99634 6.27644 6.00088 6.27191C6.00541 6.26737 6.01005 6.26294 6.01482 6.25863C6.01956 6.25433 6.02441 6.25014 6.02937 6.24608C6.03433 6.24202 6.03939 6.23807 6.04454 6.23424C6.04969 6.23042 6.05493 6.22673 6.06027 6.22316C6.0656 6.21959 6.07101 6.21617 6.07651 6.21288C6.08202 6.20959 6.08759 6.20643 6.09325 6.2034C6.09891 6.20038 6.10464 6.1975 6.11044 6.19476C6.11622 6.19201 6.12209 6.18941 6.12802 6.18695C6.13394 6.18451 6.13994 6.18219 6.14597 6.18003C6.152 6.17786 6.15809 6.17586 6.16423 6.174C6.17036 6.17213 6.17655 6.17043 6.18277 6.16886C6.189 6.1673 6.19525 6.16589 6.20153 6.16464C6.20782 6.1634 6.21415 6.16231 6.2205 6.16136C6.22684 6.16043 6.23321 6.15963 6.23959 6.159C6.24597 6.15839 6.25235 6.15791 6.25876 6.1576C6.26518 6.15728 6.27158 6.15712 6.278 6.15712C6.28441 6.15712 6.29081 6.15728 6.29723 6.1576C6.30364 6.15791 6.31002 6.15839 6.3164 6.159C6.32278 6.15963 6.32915 6.16043 6.33549 6.16136C6.34184 6.16231 6.34817 6.1634 6.35444 6.16464C6.36074 6.16589 6.36699 6.1673 6.37322 6.16886C6.37944 6.17043 6.38563 6.17213 6.39176 6.174C6.3979 6.17586 6.404 6.17786 6.41002 6.18003C6.41605 6.18219 6.42205 6.18451 6.42797 6.18695C6.4339 6.18941 6.43977 6.19201 6.44555 6.19476C6.45135 6.1975 6.45708 6.20038 6.46274 6.2034C6.46838 6.20643 6.47397 6.20959 6.47948 6.21288C6.48498 6.21617 6.49039 6.21959 6.49572 6.22316C6.50104 6.22673 6.5063 6.23042 6.51145 6.23424C6.5166 6.23807 6.52166 6.24202 6.52662 6.24608C6.53158 6.25014 6.53643 6.25433 6.54117 6.25863C6.54594 6.26294 6.55058 6.26737 6.55511 6.27191C6.55965 6.27644 6.56406 6.28108 6.56837 6.28585C6.57267 6.29059 6.57688 6.29544 6.58094 6.3004C6.585 6.30536 6.58895 6.31042 6.59277 6.31557C6.59658 6.32072 6.60029 6.32596 6.60386 6.3313C6.60743 6.33663 6.61085 6.34204 6.61414 6.34754C6.61743 6.35305 6.62059 6.35862 6.62362 6.36428C6.62664 6.36994 6.62952 6.37567 6.63226 6.38147C6.63501 6.38725 6.63761 6.39313 6.64007 6.39905C6.64251 6.40497 6.64483 6.41097 6.647 6.417C6.64916 6.42303 6.65116 6.42912 6.65302 6.43526C6.65489 6.44139 6.65659 6.44758 6.65816 6.4538C6.65972 6.46003 6.66113 6.46629 6.66238 6.47256C6.66362 6.47885 6.66471 6.48518 6.66566 6.49153C6.66659 6.49787 6.66739 6.50424 6.66802 6.51062C6.66863 6.517 6.66911 6.52338 6.66942 6.52979C6.66974 6.53621 6.6699 6.54261 6.6699 6.54903C6.6699 6.55544 6.66974 6.56184 6.66942 6.56826C6.66911 6.57467 6.66863 6.58105 6.66802 6.58743C6.66739 6.59381 6.66659 6.60018 6.66566 6.60652C6.66471 6.61287 6.66362 6.6192 6.66238 6.62549C6.66113 6.63177 6.65972 6.63802 6.65816 6.64425C6.65659 6.65047 6.65489 6.65666 6.65302 6.66279C6.65116 6.66893 6.64916 6.67503 6.647 6.68105C6.64483 6.68708 6.64251 6.69308 6.64007 6.699C6.63761 6.70493 6.63501 6.7108 6.63226 6.71658C6.62952 6.72238 6.62664 6.72811 6.62362 6.73377C6.62059 6.73941 6.61743 6.745 6.61414 6.75051C6.61085 6.75601 6.60743 6.76142 6.60386 6.76675C6.60029 6.77207 6.59658 6.77733 6.59277 6.78248C6.58895 6.78763 6.585 6.79269 6.58094 6.79765C6.57688 6.80261 6.57267 6.80746 6.56837 6.8122C6.56406 6.81697 6.55965 6.82161 6.55511 6.82614C6.55058 6.83068 6.54594 6.83509 6.54117 6.8394C6.53643 6.8437 6.53158 6.84791 6.52662 6.85197C6.52166 6.85603 6.5166 6.85998 6.51145 6.8638C6.5063 6.86763 6.50104 6.87132 6.49572 6.87489C6.49039 6.87846 6.48498 6.88188 6.47948 6.88517C6.47397 6.88846 6.46838 6.89162 6.46274 6.89465C6.45708 6.89767 6.45135 6.90055 6.44555 6.90329C6.43975 6.90604 6.4339 6.90864 6.42797 6.9111C6.42205 6.91354 6.41605 6.91586 6.41002 6.91803C6.404 6.92019 6.3979 6.92219 6.39176 6.92405C6.38563 6.92592 6.37944 6.92762 6.37322 6.92919C6.36699 6.93075 6.36074 6.93216 6.35444 6.93341C6.34817 6.93465 6.34184 6.93574 6.33549 6.93669C6.32915 6.93762 6.32278 6.93842 6.3164 6.93905C6.31002 6.93966 6.30364 6.94014 6.29723 6.94045C6.29081 6.94077 6.28441 6.94093 6.278 6.94093ZM12.8766 4.51543C12.8582 4.51448 12.8397 4.51402 12.8212 4.51404C12.8028 4.51406 12.7843 4.51455 12.7659 4.51554C12.7474 4.51652 12.729 4.51798 12.7107 4.51993C12.6923 4.52188 12.674 4.52431 12.6558 4.52721C12.6375 4.53011 12.6194 4.53348 12.6013 4.53733C12.5833 4.54118 12.5653 4.54551 12.5475 4.5503C12.5296 4.55509 12.5119 4.56034 12.4944 4.56605C12.4768 4.57177 12.4594 4.57796 12.4422 4.58458C12.4249 4.59121 12.4079 4.59828 12.391 4.6058C12.3742 4.6133 12.3575 4.62127 12.341 4.62965C12.3246 4.63804 12.3084 4.64686 12.2924 4.65611C12.2764 4.66534 12.2607 4.67499 12.2452 4.68506C12.2297 4.69511 12.2145 4.70557 12.1995 4.71644C12.1846 4.72728 12.17 4.73853 12.1556 4.75015C12.1412 4.76177 12.1272 4.77378 12.1135 4.78613C12.0998 4.79849 12.0864 4.8112 12.0733 4.82426C12.0602 4.83732 12.0475 4.8507 12.0352 4.86443C12.0228 4.87815 12.0108 4.89218 11.9992 4.90654C11.9876 4.92089 11.9763 4.93553 11.9655 4.95047C11.9546 4.96541 11.9442 4.98062 11.9341 4.9961C11.9241 5.01159 11.9144 5.02732 11.9052 5.04332C11.8959 5.0593 11.8871 5.07552 11.8787 5.09197C11.8703 5.10843 11.8624 5.12509 11.8548 5.14197C11.8473 5.15882 11.8403 5.17587 11.8336 5.19312C11.827 5.21036 11.8208 5.22775 11.8151 5.24531C11.8094 5.26287 11.8042 5.28057 11.7994 5.29841C11.7946 5.31625 11.7902 5.3342 11.7864 5.35225C11.7825 5.37031 11.7792 5.38846 11.7763 5.40669C11.7734 5.42494 11.7709 5.44324 11.769 5.46161C11.767 5.47998 11.7656 5.49838 11.7646 5.51682C11.7636 5.53526 11.7631 5.5537 11.7631 5.57217C11.7631 5.59065 11.7635 5.60911 11.7645 5.62754C11.7645 5.65201 11.7653 5.67645 11.767 5.70086C11.7686 5.72528 11.7709 5.74962 11.7741 5.77388C11.7773 5.79814 11.7812 5.82228 11.786 5.84629C11.7907 5.8703 11.7962 5.89413 11.8024 5.91779C11.8087 5.94144 11.8157 5.96487 11.8234 5.98809C11.8312 6.01129 11.8397 6.03423 11.8489 6.05689C11.8581 6.07955 11.868 6.10189 11.8787 6.12392C11.8894 6.14594 11.9007 6.16761 11.9128 6.1889L10.5782 7.62938L11.0972 8.10601L12.4423 6.65493C12.4763 6.67042 12.5111 6.68408 12.5465 6.69591C12.582 6.70772 12.6179 6.71763 12.6544 6.72565C12.6909 6.73367 12.7277 6.73973 12.7649 6.74384C12.802 6.74796 12.8393 6.7501 12.8766 6.75028C12.8949 6.7501 12.9132 6.74949 12.9315 6.74843C12.9498 6.74738 12.9681 6.74588 12.9863 6.74393C13.0046 6.74198 13.0227 6.73961 13.0408 6.73678C13.0589 6.73395 13.077 6.73068 13.0949 6.72699C13.1129 6.72328 13.1307 6.71915 13.1485 6.71458C13.1662 6.71001 13.1838 6.70501 13.2014 6.6996C13.2189 6.69417 13.2362 6.68833 13.2535 6.68206C13.2707 6.6758 13.2877 6.66912 13.3046 6.66203C13.3215 6.65493 13.3382 6.64743 13.3548 6.63953C13.3713 6.63162 13.3877 6.62333 13.4038 6.61463C13.4199 6.60593 13.4358 6.59686 13.4515 6.58738C13.4672 6.57791 13.4827 6.56808 13.4979 6.55787C13.5131 6.54765 13.5281 6.53707 13.5428 6.52612C13.5575 6.51517 13.5719 6.50388 13.586 6.49223C13.6002 6.48059 13.6141 6.46862 13.6276 6.4563C13.6412 6.44398 13.6545 6.43134 13.6674 6.41838C13.6804 6.40543 13.693 6.39216 13.7053 6.37859C13.7177 6.36502 13.7296 6.35115 13.7413 6.337C13.7529 6.32285 13.7642 6.30842 13.7752 6.29372C13.7861 6.27901 13.7967 6.26405 13.8069 6.24884C13.8171 6.23362 13.827 6.21817 13.8364 6.20247C13.8459 6.18678 13.855 6.17087 13.8637 6.15473C13.8724 6.13861 13.8807 6.12228 13.8886 6.10574C13.8965 6.0892 13.904 6.07248 13.9111 6.05557C13.9182 6.03868 13.9248 6.02161 13.9311 6.0044C13.9374 5.98718 13.9432 5.96981 13.9486 5.9523C13.9541 5.93479 13.9591 5.91716 13.9636 5.89941C13.9682 5.88167 13.9723 5.86381 13.976 5.84587C13.9797 5.82792 13.983 5.80988 13.9858 5.79178C13.9886 5.77367 13.991 5.75551 13.993 5.73729C13.9949 5.71906 13.9964 5.70079 13.9975 5.68249C13.9985 5.6642 13.9992 5.6459 13.9993 5.62756C13.9993 5.60925 13.9989 5.59095 13.998 5.57267C13.9971 5.55437 13.9957 5.53612 13.9939 5.51789C13.9921 5.49966 13.9899 5.48151 13.9871 5.4634C13.9845 5.44528 13.9813 5.42724 13.9777 5.40929C13.9741 5.39135 13.9701 5.37349 13.9656 5.35572C13.9611 5.33796 13.9562 5.32033 13.9509 5.30282C13.9455 5.2853 13.9398 5.26793 13.9335 5.2507C13.9273 5.23348 13.9207 5.21641 13.9137 5.1995C13.9066 5.18261 13.8992 5.16589 13.8913 5.14935C13.8834 5.13283 13.8751 5.1165 13.8665 5.10038C13.8578 5.08426 13.8487 5.06835 13.8392 5.05267C13.8298 5.03699 13.8199 5.02156 13.8097 5.00637C13.7995 4.99118 13.7889 4.97626 13.7779 4.9616C13.767 4.94692 13.7556 4.93254 13.744 4.91843C13.7323 4.90433 13.7203 4.89051 13.7079 4.87699C13.6956 4.86348 13.6829 4.85029 13.6699 4.83741C13.6569 4.82452 13.6435 4.81195 13.6299 4.79972C13.6163 4.7875 13.6023 4.77562 13.5881 4.76407C13.5739 4.75252 13.5594 4.74134 13.5447 4.73052C13.5299 4.7197 13.5149 4.70925 13.4996 4.69916C13.4843 4.68908 13.4688 4.67938 13.453 4.67006C13.4372 4.66075 13.4212 4.65182 13.405 4.64329C13.3888 4.63477 13.3724 4.62665 13.3558 4.61893C13.3392 4.61121 13.3224 4.60392 13.3055 4.59703C13.2885 4.59014 13.2714 4.58367 13.2541 4.57764C13.2368 4.57159 13.2194 4.56598 13.2018 4.5608C13.1842 4.55561 13.1666 4.55088 13.1488 4.54658C13.1309 4.54227 13.1131 4.5384 13.0951 4.53498C13.0771 4.53155 13.059 4.52858 13.0409 4.52605C13.0228 4.52352 13.0046 4.52144 12.9863 4.51981C12.9681 4.51817 12.9498 4.51699 12.9315 4.51626C12.9132 4.51554 12.8949 4.51525 12.8766 4.51543ZM12.8766 6.04063C12.8698 6.04063 12.8631 6.04047 12.8563 6.04014C12.8496 6.0398 12.8429 6.03929 12.8361 6.03864C12.8294 6.03798 12.8227 6.03715 12.816 6.03617C12.8093 6.03516 12.8026 6.034 12.796 6.03269C12.7894 6.03137 12.7828 6.02989 12.7762 6.02826C12.7697 6.02662 12.7632 6.02481 12.7567 6.02284C12.7502 6.02089 12.7438 6.01876 12.7374 6.01648C12.7311 6.01421 12.7248 6.01177 12.7185 6.00918C12.7123 6.0066 12.7061 6.00386 12.7 6.00097C12.6939 5.99807 12.6878 5.99503 12.6819 5.99185C12.6759 5.98867 12.67 5.98533 12.6642 5.98187C12.6585 5.97839 12.6527 5.97477 12.6471 5.971C12.6415 5.96726 12.636 5.96336 12.6305 5.95933C12.6251 5.95531 12.6198 5.95116 12.6146 5.94687C12.6093 5.94258 12.6042 5.93817 12.5992 5.93362C12.5942 5.92908 12.5893 5.92442 12.5845 5.91964C12.5797 5.91486 12.5751 5.90997 12.5705 5.90496C12.566 5.89995 12.5616 5.89482 12.5573 5.8896C12.553 5.88438 12.5488 5.87905 12.5448 5.87362C12.5408 5.86819 12.5369 5.86265 12.5331 5.85704C12.5294 5.85142 12.5258 5.84571 12.5223 5.83991C12.5188 5.83412 12.5155 5.82823 12.5123 5.82228C12.5091 5.81632 12.5061 5.81027 12.5032 5.80415C12.5003 5.79805 12.4976 5.79186 12.495 5.78562C12.4924 5.77938 12.4899 5.77307 12.4877 5.76671C12.4854 5.76035 12.4833 5.75393 12.4813 5.74746C12.4793 5.74099 12.4775 5.73447 12.4759 5.72792C12.4743 5.72136 12.4728 5.71477 12.4715 5.70814C12.4701 5.70151 12.469 5.69485 12.468 5.68815C12.467 5.68147 12.4662 5.67476 12.4655 5.66803C12.4649 5.66129 12.4644 5.65456 12.464 5.64781C12.4637 5.64106 12.4635 5.63431 12.4635 5.62754C12.4637 5.62083 12.464 5.61413 12.4645 5.60744C12.465 5.60074 12.4656 5.59404 12.4664 5.58738C12.4672 5.58072 12.4682 5.57407 12.4693 5.56745C12.4704 5.56082 12.4717 5.55423 12.4731 5.54767C12.4746 5.54111 12.4762 5.53459 12.4779 5.52811C12.4796 5.52162 12.4815 5.51517 12.4836 5.50879C12.4856 5.50239 12.4878 5.49604 12.4902 5.48975C12.4925 5.48346 12.495 5.47723 12.4977 5.47106C12.5003 5.46489 12.5031 5.45878 12.506 5.45273C12.509 5.4467 12.5121 5.44072 12.5153 5.43484C12.5185 5.42895 12.5219 5.42313 12.5254 5.4174C12.5289 5.41167 12.5325 5.40603 12.5363 5.40045C12.54 5.3949 12.5439 5.38943 12.548 5.38405C12.552 5.37867 12.5561 5.3734 12.5604 5.36823C12.5647 5.36305 12.5691 5.35798 12.5736 5.35301C12.5781 5.34803 12.5827 5.34318 12.5875 5.33844C12.5922 5.33367 12.5971 5.32905 12.6021 5.32453C12.607 5.32002 12.6121 5.3156 12.6173 5.31133C12.6225 5.30706 12.6277 5.30291 12.6331 5.29889C12.6385 5.29486 12.644 5.29098 12.6495 5.2872C12.6551 5.28344 12.6607 5.27981 12.6665 5.27632C12.6722 5.27282 12.678 5.26944 12.6839 5.26623C12.6898 5.26301 12.6958 5.25993 12.7018 5.257C12.7078 5.25406 12.7139 5.25127 12.7201 5.24863C12.7263 5.24598 12.7325 5.24348 12.7388 5.24113C12.7451 5.23879 12.7515 5.23659 12.7578 5.23453C12.7642 5.23248 12.7707 5.2306 12.7772 5.22886C12.7837 5.22712 12.7902 5.22552 12.7967 5.22409C12.8033 5.22267 12.8099 5.22139 12.8165 5.22026C12.8231 5.21915 12.8298 5.21819 12.8364 5.21738C12.8431 5.21659 12.8498 5.21594 12.8565 5.21544C12.8632 5.21497 12.8699 5.21463 12.8766 5.21448C12.8834 5.21448 12.8901 5.21463 12.8969 5.21497C12.9036 5.2153 12.9104 5.21581 12.9171 5.21646C12.9238 5.21713 12.9305 5.21796 12.9372 5.21894C12.9439 5.21994 12.9506 5.2211 12.9572 5.22242C12.9638 5.22374 12.9704 5.22522 12.977 5.22685C12.9835 5.22849 12.9901 5.2303 12.9965 5.23227C13.003 5.23422 13.0094 5.23634 13.0158 5.23863C13.0221 5.2409 13.0285 5.24334 13.0347 5.24592C13.0409 5.24851 13.0471 5.25125 13.0532 5.25413C13.0593 5.25703 13.0654 5.26007 13.0713 5.26326C13.0773 5.26644 13.0832 5.26978 13.089 5.27324C13.0948 5.27672 13.1005 5.28034 13.1061 5.28409C13.1117 5.28785 13.1173 5.29175 13.1227 5.29578C13.1281 5.2998 13.1334 5.30395 13.1387 5.30824C13.1439 5.31253 13.149 5.31694 13.154 5.32149C13.159 5.32603 13.1639 5.33069 13.1687 5.33547C13.1735 5.34025 13.1781 5.34513 13.1827 5.35014C13.1872 5.35515 13.1916 5.36029 13.1959 5.36551C13.2002 5.37073 13.2044 5.37605 13.2084 5.38149C13.2124 5.38692 13.2163 5.39244 13.2201 5.39806C13.2238 5.40369 13.2275 5.4094 13.2309 5.4152C13.2344 5.42098 13.2377 5.42687 13.2409 5.43283C13.2441 5.43879 13.2471 5.44484 13.25 5.45094C13.2529 5.45705 13.2557 5.46324 13.2583 5.46948C13.2608 5.47572 13.2633 5.48203 13.2655 5.4884C13.2678 5.49476 13.27 5.50118 13.2719 5.50764C13.2739 5.51411 13.2757 5.52063 13.2773 5.52719C13.279 5.53375 13.2804 5.54034 13.2818 5.54697C13.2831 5.55359 13.2842 5.56026 13.2852 5.56695C13.2862 5.57363 13.287 5.58035 13.2877 5.58708C13.2884 5.59381 13.2889 5.60054 13.2892 5.60729C13.2895 5.61404 13.2897 5.62079 13.2897 5.62756C13.2899 5.63437 13.2899 5.64119 13.2897 5.64799C13.2896 5.65479 13.2892 5.66159 13.2887 5.6684C13.2882 5.67518 13.2875 5.68195 13.2867 5.68872C13.2858 5.69547 13.2848 5.7022 13.2836 5.70891C13.2824 5.71561 13.281 5.72229 13.2795 5.72892C13.278 5.73554 13.2763 5.74214 13.2744 5.74869C13.2725 5.75525 13.2705 5.76174 13.2683 5.76819C13.2661 5.77464 13.2637 5.78102 13.2612 5.78735C13.2587 5.79368 13.256 5.79993 13.2532 5.80612C13.2503 5.81231 13.2473 5.81843 13.2442 5.82447C13.241 5.8305 13.2377 5.83646 13.2343 5.84233C13.2308 5.8482 13.2272 5.85399 13.2235 5.85966C13.2197 5.86536 13.2159 5.87095 13.2118 5.87643C13.2078 5.88194 13.2036 5.88731 13.1993 5.89259C13.195 5.89788 13.1906 5.90305 13.186 5.90809C13.1815 5.91314 13.1768 5.91808 13.1719 5.92289C13.1671 5.92771 13.1622 5.9324 13.1571 5.93697C13.1521 5.94153 13.1469 5.94595 13.1416 5.95026C13.1364 5.95457 13.131 5.95873 13.1255 5.96276C13.12 5.96678 13.1144 5.97069 13.1087 5.97443C13.103 5.97818 13.0973 5.98178 13.0914 5.98522C13.0855 5.98869 13.0796 5.99199 13.0735 5.99514C13.0675 5.99828 13.0614 6.00127 13.0552 6.00412C13.049 6.00695 13.0427 6.00964 13.0364 6.01215C13.0301 6.01469 13.0237 6.01704 13.0172 6.01924C13.0108 6.02144 13.0043 6.02347 12.9977 6.02534C12.9912 6.0272 12.9846 6.02891 12.978 6.03044C12.9713 6.03196 12.9647 6.03334 12.958 6.03453C12.9512 6.03573 12.9445 6.03675 12.9378 6.03761C12.931 6.03847 12.9242 6.03914 12.9174 6.03965C12.9106 6.04016 12.9038 6.04049 12.897 6.04065C12.8902 6.04081 12.8834 6.04081 12.8766 6.04063ZM17.484 11.1776L15.8635 8.81564C15.9291 8.75402 15.9928 8.69043 16.0545 8.62488C16.1161 8.55933 16.1757 8.49194 16.2333 8.4227C16.2908 8.35345 16.3461 8.28249 16.3992 8.20982C16.4524 8.13716 16.5032 8.06292 16.5517 7.98711C16.6003 7.91129 16.6464 7.83404 16.6902 7.75538C16.7339 7.67671 16.7752 7.59677 16.814 7.51554C16.8528 7.43431 16.8891 7.35198 16.9228 7.26852C16.9565 7.18504 16.9876 7.10061 17.0161 7.01523C17.0446 6.92984 17.0704 6.84365 17.0936 6.75666C17.1167 6.66966 17.1371 6.58205 17.1549 6.49379C17.1726 6.40554 17.1876 6.31682 17.1998 6.22764C17.2121 6.13845 17.2216 6.04898 17.2283 5.95921C17.2349 5.86944 17.2389 5.77956 17.24 5.68954C17.2412 5.59953 17.2395 5.50958 17.2351 5.41967C17.2307 5.32975 17.2235 5.24007 17.2135 5.15062C17.2035 5.06116 17.1908 4.97209 17.1753 4.88341C17.1598 4.79473 17.1416 4.70663 17.1206 4.61907C17.0997 4.53151 17.0761 4.4447 17.0497 4.35861C17.0234 4.27254 16.9945 4.18733 16.9629 4.10305C16.9313 4.01876 16.8971 3.93551 16.8604 3.85333C16.8237 3.77115 16.7844 3.69019 16.7427 3.61044C16.7009 3.53069 16.6568 3.4523 16.6102 3.37529C16.5636 3.29829 16.5146 3.22277 16.4633 3.14878C16.4121 3.0748 16.3586 3.00246 16.3028 2.93178C16.2471 2.86111 16.1892 2.79222 16.1292 2.72512C16.0692 2.65803 16.0071 2.59285 15.9431 2.52959C15.879 2.46634 15.8131 2.40512 15.7453 2.34594C15.6774 2.28677 15.6078 2.22975 15.5365 2.17487C15.4651 2.12 15.3921 2.06739 15.3175 2.01705C15.2429 1.9667 15.1668 1.9187 15.0892 1.87305C15.0116 1.82741 14.9327 1.78421 14.8524 1.74345C14.7722 1.70269 14.6907 1.66445 14.6081 1.62873C14.5255 1.59302 14.4418 1.55989 14.3571 1.52934C14.2725 1.4988 14.1869 1.47091 14.1005 1.44566C14.0141 1.42041 13.927 1.39786 13.8392 1.378C13.7514 1.35815 13.6631 1.34102 13.5742 1.32663C13.4854 1.31224 13.3961 1.30061 13.3066 1.29174C13.217 1.28287 13.1272 1.27678 13.0373 1.27347C12.9473 1.27015 12.8573 1.26962 12.7673 1.27188C12.6773 1.27413 12.5875 1.27916 12.4978 1.28698C12.4082 1.29479 12.3188 1.30537 12.2298 1.31871C12.1408 1.33205 12.0522 1.34814 11.9642 1.36696C11.8762 1.38578 11.7888 1.4073 11.7021 1.43153C11.6154 1.45576 11.5295 1.48264 11.4445 1.51218C11.3595 1.54172 11.2755 1.57387 11.1924 1.60861C11.1094 1.64335 11.0275 1.68063 10.9467 1.72044C10.866 1.76025 10.7866 1.80252 10.7085 1.84725C10.6303 1.89196 10.5537 1.93906 10.4785 1.98854C10.4033 2.038 10.3297 2.08975 10.2576 2.14377C10.1856 2.1978 10.1154 2.25399 10.0469 2.31236C9.97833 2.37073 9.91167 2.43117 9.84688 2.49368C9.78211 2.55618 9.71932 2.62062 9.65851 2.68701C9.59771 2.75338 9.53904 2.82158 9.48245 2.8916C9.42587 2.96162 9.37152 3.03331 9.31938 3.10668C9.26724 3.18007 9.21743 3.25499 9.16991 3.33145C9.1224 3.40792 9.07731 3.48577 9.03463 3.56503C8.99193 3.64429 8.95175 3.72478 8.91405 3.80652C8.87634 3.88826 8.8412 3.97109 8.80863 4.05501C8.77606 4.13892 8.7461 4.22377 8.71877 4.30954C8.69144 4.3953 8.66679 4.48184 8.64482 4.56913C8.62285 4.65642 8.6036 4.74431 8.58706 4.8328C8.57052 4.92129 8.55674 5.0102 8.54571 5.09953C8.53469 5.18888 8.52643 5.27848 8.52093 5.36832C8.51544 5.45816 8.51274 5.54811 8.51283 5.63813C8.51283 5.70972 8.51458 5.78127 8.5181 5.85277C8.5216 5.92426 8.52687 5.99565 8.53388 6.06689C8.5409 6.13814 8.54967 6.20915 8.56016 6.27997C8.57067 6.3508 8.58291 6.4213 8.59688 6.49153C8.61084 6.56173 8.62652 6.63155 8.64392 6.70101C8.66131 6.77046 8.6804 6.83943 8.70117 6.90794C8.72197 6.97644 8.74442 7.04439 8.76853 7.11181C8.79265 7.17922 8.8184 7.24598 8.84581 7.31213C8.87319 7.37827 8.9022 7.4437 8.9328 7.5084C8.96341 7.57313 8.99559 7.63706 9.02934 7.70018C9.06309 7.76332 9.09837 7.8256 9.13518 7.887C9.17197 7.9484 9.21025 8.00887 9.25003 8.06839C9.28981 8.12793 9.33102 8.18645 9.37366 8.24394C9.41631 8.30144 9.46034 8.35785 9.50576 8.4132C9.55116 8.46854 9.59792 8.52273 9.646 8.57577C9.69407 8.62882 9.74343 8.68065 9.79404 8.73128C9.84467 8.78189 9.8965 8.83125 9.94956 8.87932C10.0026 8.9274 10.0568 8.97414 10.1121 9.01956C10.1675 9.06496 10.2239 9.109 10.2814 9.15166C10.3389 9.1943 10.3974 9.23551 10.4569 9.27529C10.5164 9.31507 10.5769 9.35335 10.6383 9.39014C10.6997 9.42695 10.762 9.46223 10.8251 9.49598C10.8883 9.52973 10.9522 9.56192 11.0169 9.59252C11.0816 9.62312 11.1471 9.65211 11.2132 9.67951C11.2794 9.70692 11.3461 9.73267 11.4135 9.75679C11.4809 9.7809 11.5489 9.80335 11.6174 9.82415C11.6859 9.84492 11.7549 9.86401 11.8243 9.8814C11.8938 9.8988 11.9636 9.91448 12.0338 9.92844C12.104 9.94241 12.1745 9.95465 12.2454 9.96514C12.3162 9.97565 12.3872 9.98442 12.4584 9.99144C12.5297 9.99845 12.6011 10.0037 12.6726 10.0072C12.7441 10.0107 12.8156 10.0125 12.8872 10.0125C12.9262 10.0124 12.9651 10.0118 13.0041 10.0106C13.043 10.0095 13.0819 10.0078 13.1208 10.0056C13.1597 10.0034 13.1986 10.0007 13.2374 9.99747C13.2762 9.99422 13.315 9.99045 13.3537 9.98616C13.3924 9.98186 13.4311 9.97704 13.4697 9.9717C13.5083 9.96635 13.5468 9.9605 13.5852 9.95412C13.6237 9.94774 13.662 9.94083 13.7002 9.93341C13.7385 9.92599 13.7766 9.91805 13.8147 9.90959C13.8527 9.90114 13.8906 9.89217 13.9284 9.8827C13.9662 9.87322 14.0038 9.86324 14.0413 9.85275C14.0789 9.84225 14.1162 9.83127 14.1535 9.81975C14.1907 9.80824 14.2277 9.79623 14.2646 9.78373C14.3015 9.77122 14.3383 9.75821 14.3748 9.74471C14.4113 9.73121 14.4477 9.71722 14.4839 9.70273C14.52 9.68825 14.556 9.67327 14.5917 9.65782C14.6275 9.64237 14.6631 9.62643 14.6984 9.61001L16.3295 11.9825C16.336 11.9916 16.3427 12.0006 16.3496 12.0094C16.3564 12.0182 16.3635 12.0268 16.3709 12.0352C16.3782 12.0437 16.3857 12.0519 16.3934 12.06C16.4011 12.0681 16.409 12.076 16.4171 12.0837C16.4251 12.0915 16.4334 12.099 16.4418 12.1063C16.4503 12.1136 16.4589 12.1207 16.4677 12.1276C16.4765 12.1345 16.4854 12.1412 16.4945 12.1477C16.5036 12.1541 16.5129 12.1604 16.5223 12.1664C16.5317 12.1724 16.5412 12.1782 16.5509 12.1838C16.5606 12.1894 16.5704 12.1947 16.5803 12.1998C16.5903 12.2049 16.6003 12.2098 16.6105 12.2144C16.6207 12.219 16.6309 12.2234 16.6413 12.2275C16.6517 12.2317 16.6622 12.2355 16.6727 12.2392C16.6833 12.2428 16.6939 12.2461 16.7047 12.2493C16.7154 12.2524 16.7262 12.2552 16.7371 12.2578C16.7479 12.2604 16.7588 12.2628 16.7698 12.2648C16.7808 12.2669 16.7918 12.2687 16.8029 12.2703C16.8139 12.2718 16.825 12.2731 16.8362 12.2741C16.8473 12.2751 16.8584 12.2759 16.8696 12.2763C16.8808 12.2768 16.8919 12.277 16.9031 12.277C16.9143 12.2769 16.9254 12.2766 16.9366 12.276C16.9477 12.2754 16.9589 12.2746 16.97 12.2734C16.9811 12.2723 16.9922 12.2709 17.0032 12.2693C17.0143 12.2676 17.0253 12.2657 17.0362 12.2635C17.0472 12.2613 17.0581 12.2589 17.0689 12.2562C17.0798 12.2535 17.0905 12.2505 17.1012 12.2473C17.1119 12.2441 17.1225 12.2406 17.133 12.2368C17.1436 12.2331 17.154 12.2291 17.1644 12.2249C17.1747 12.2207 17.1849 12.2162 17.195 12.2115C17.2052 12.2068 17.2152 12.2018 17.2251 12.1966C17.2349 12.1914 17.2447 12.186 17.2543 12.1803C17.264 12.1746 17.2734 12.1687 17.2828 12.1626C17.2919 12.1563 17.3008 12.1497 17.3096 12.1429C17.3183 12.1362 17.327 12.1292 17.3354 12.122C17.3438 12.1148 17.3521 12.1074 17.3601 12.0998C17.3682 12.0922 17.376 12.0844 17.3837 12.0764C17.3914 12.0685 17.3989 12.0603 17.4062 12.0519C17.4135 12.0436 17.4205 12.0351 17.4274 12.0264C17.4343 12.0176 17.4409 12.0088 17.4474 11.9998C17.4538 11.9908 17.46 11.9816 17.466 11.9722C17.472 11.9629 17.4777 11.9535 17.4832 11.9438C17.4887 11.9342 17.494 11.9245 17.499 11.9146C17.5041 11.9047 17.5089 11.8948 17.5134 11.8847C17.518 11.8745 17.5223 11.8644 17.5263 11.854C17.5304 11.8437 17.5342 11.8333 17.5377 11.8228C17.5412 11.8123 17.5445 11.8017 17.5475 11.7911C17.5506 11.7804 17.5533 11.7697 17.5558 11.7589C17.5583 11.7481 17.5605 11.7372 17.5625 11.7263C17.5645 11.7154 17.5661 11.7045 17.5676 11.6935C17.569 11.6825 17.5701 11.6715 17.571 11.6604C17.5719 11.6494 17.5725 11.6383 17.5729 11.6272C17.5732 11.6162 17.5733 11.6051 17.5731 11.594C17.5729 11.5829 17.5724 11.5719 17.5716 11.5608C17.5709 11.5498 17.5699 11.5387 17.5686 11.5277C17.5673 11.5167 17.5658 11.5057 17.5639 11.4948C17.5621 11.4839 17.56 11.473 17.5577 11.4622C17.5553 11.4514 17.5527 11.4406 17.5498 11.4299C17.5469 11.4192 17.5438 11.4086 17.5404 11.398C17.537 11.3875 17.5333 11.377 17.5294 11.3667C17.5255 11.3563 17.5213 11.346 17.5169 11.3359C17.5124 11.3257 17.5078 11.3157 17.5029 11.3057C17.498 11.2958 17.4928 11.286 17.4874 11.2763C17.482 11.2666 17.4764 11.2571 17.4705 11.2477C17.4646 11.2383 17.4585 11.229 17.4522 11.2199L17.484 11.1776ZM12.8766 9.14396C12.819 9.14396 12.7615 9.14255 12.704 9.13972C12.6466 9.13689 12.5892 9.13268 12.5319 9.12703C12.4747 9.12139 12.4176 9.11434 12.3606 9.1059C12.3037 9.09745 12.247 9.08762 12.1906 9.07639C12.1341 9.06516 12.078 9.05256 12.0222 9.03858C11.9664 9.0246 11.9109 9.00926 11.8558 8.99254C11.8008 8.97584 11.7461 8.95779 11.692 8.9384C11.6378 8.91901 11.5841 8.89831 11.5309 8.87628C11.4778 8.85426 11.4252 8.83095 11.3731 8.80634C11.3211 8.78175 11.2697 8.75587 11.219 8.72875C11.1682 8.70162 11.1182 8.67325 11.0688 8.64367C11.0194 8.61409 10.9708 8.58331 10.923 8.55133C10.8751 8.51936 10.8281 8.48624 10.7819 8.45196C10.7357 8.41767 10.6903 8.38228 10.6458 8.34577C10.6013 8.30926 10.5578 8.27168 10.5151 8.23303C10.4725 8.19437 10.4308 8.15472 10.3901 8.11402C10.3494 8.07333 10.3098 8.03165 10.2711 7.98903C10.2325 7.94638 10.1949 7.90282 10.1584 7.85833C10.1219 7.81384 10.0865 7.76849 10.0522 7.72226C10.0179 7.67605 9.9848 7.62901 9.95282 7.58116C9.92085 7.53329 9.89007 7.48469 9.86049 7.43533C9.8309 7.38597 9.80253 7.33591 9.77541 7.28516C9.74829 7.23441 9.72241 7.18302 9.6978 7.131C9.67321 7.07897 9.64988 7.02638 9.62786 6.9732C9.60583 6.92003 9.58514 6.86636 9.56575 6.81217C9.54637 6.75799 9.52831 6.70336 9.51161 6.64829C9.4949 6.59322 9.47955 6.53778 9.46558 6.48195C9.4516 6.42612 9.439 6.36999 9.42777 6.31355C9.41653 6.25711 9.40671 6.20042 9.39825 6.1435C9.38982 6.08656 9.38277 6.02947 9.37712 5.9722C9.37148 5.91493 9.36726 5.85755 9.36443 5.80007C9.3616 5.74259 9.3602 5.68508 9.3602 5.62753C9.3602 5.56998 9.3616 5.51246 9.36443 5.45498C9.36726 5.3975 9.37148 5.34013 9.37712 5.28286C9.38277 5.22559 9.38982 5.16849 9.39825 5.11156C9.40671 5.05462 9.41653 4.99795 9.42777 4.94151C9.439 4.88506 9.4516 4.82892 9.46558 4.77311C9.47955 4.71728 9.4949 4.66184 9.51161 4.60677C9.52831 4.55169 9.54637 4.49706 9.56575 4.44288C9.58514 4.38869 9.60585 4.33503 9.62788 4.28185C9.6499 4.22868 9.67321 4.17608 9.69782 4.12405C9.72241 4.07204 9.74829 4.02064 9.77541 3.96989C9.80253 3.91914 9.8309 3.86908 9.86049 3.81972C9.89007 3.77036 9.92085 3.72176 9.95282 3.67389C9.9848 3.62605 10.0179 3.57901 10.0522 3.53279C10.0865 3.48656 10.1219 3.44121 10.1584 3.39672C10.1949 3.35223 10.2325 3.30867 10.2711 3.26603C10.3098 3.2234 10.3494 3.18172 10.3901 3.14103C10.4308 3.10034 10.4725 3.06068 10.5151 3.02203C10.5578 2.98338 10.6013 2.9458 10.6458 2.90928C10.6903 2.87278 10.7357 2.83739 10.7819 2.80311C10.8281 2.76882 10.8751 2.73569 10.923 2.70372C10.9709 2.67174 11.0195 2.64096 11.0688 2.61138C11.1182 2.5818 11.1682 2.55344 11.219 2.52631C11.2697 2.49918 11.3211 2.47332 11.3732 2.44872C11.4252 2.42411 11.4778 2.40079 11.531 2.37877C11.5841 2.35674 11.6378 2.33604 11.692 2.31665C11.7462 2.29726 11.8008 2.27921 11.8559 2.26251C11.9109 2.2458 11.9664 2.23046 12.0222 2.21647C12.078 2.20249 12.1342 2.18989 12.1906 2.17866C12.2471 2.16744 12.3037 2.1576 12.3607 2.14915C12.4176 2.14071 12.4747 2.13367 12.532 2.12802C12.5892 2.12239 12.6466 2.11816 12.7041 2.11533C12.7616 2.11251 12.8191 2.11109 12.8766 2.11109C12.9342 2.11109 12.9917 2.11251 13.0492 2.11533C13.1067 2.11816 13.164 2.12239 13.2213 2.12802C13.2786 2.13367 13.3357 2.14071 13.3926 2.14915C13.4495 2.1576 13.5062 2.16744 13.5627 2.17866C13.6191 2.18989 13.6752 2.20249 13.731 2.21647C13.7869 2.23046 13.8423 2.2458 13.8974 2.26251C13.9525 2.27922 14.0071 2.29727 14.0613 2.31665C14.1155 2.33604 14.1691 2.35674 14.2223 2.37877C14.2755 2.40079 14.3281 2.42411 14.3801 2.44872C14.4321 2.47332 14.4835 2.49918 14.5343 2.52631C14.585 2.55344 14.6351 2.5818 14.6844 2.61138C14.7338 2.64098 14.7824 2.67176 14.8303 2.70372C14.8781 2.73569 14.9251 2.76882 14.9714 2.80311C15.0176 2.83739 15.0629 2.87278 15.1074 2.9093C15.1519 2.9458 15.1955 2.98338 15.2381 3.02203C15.2808 3.06068 15.3224 3.10036 15.3631 3.14105C15.4038 3.18174 15.4435 3.2234 15.4821 3.26605C15.5208 3.30869 15.5584 3.35225 15.5949 3.39674C15.6314 3.44123 15.6668 3.48658 15.701 3.53281C15.7353 3.57903 15.7685 3.62606 15.8004 3.67391C15.8324 3.72178 15.8632 3.77038 15.8928 3.81974C15.9224 3.8691 15.9507 3.91916 15.9778 3.96991C16.005 4.02066 16.0308 4.07206 16.0554 4.12407C16.08 4.1761 16.1034 4.22869 16.1254 4.28187C16.1474 4.33504 16.1681 4.38871 16.1875 4.4429C16.2069 4.4971 16.2249 4.55171 16.2416 4.60678C16.2584 4.66186 16.2737 4.71731 16.2877 4.77312C16.3017 4.82895 16.3143 4.8851 16.3255 4.94154C16.3367 4.99798 16.3465 5.05466 16.355 5.11159C16.3634 5.16853 16.3705 5.22562 16.3761 5.28289C16.3818 5.34016 16.386 5.39753 16.3888 5.45502C16.3917 5.5125 16.3931 5.57001 16.3931 5.62756C16.3931 5.68511 16.3917 5.74263 16.3888 5.80011C16.386 5.85759 16.3818 5.91496 16.3761 5.97223C16.3705 6.0295 16.3635 6.0866 16.355 6.14353C16.3465 6.20047 16.3367 6.25714 16.3255 6.31358C16.3143 6.37003 16.3017 6.42617 16.2877 6.48198C16.2737 6.53781 16.2584 6.59327 16.2416 6.64834C16.2249 6.70341 16.2069 6.75803 16.1875 6.81222C16.1681 6.86642 16.1474 6.92008 16.1254 6.97326C16.1034 7.02643 16.08 7.07902 16.0555 7.13104C16.0308 7.18305 16.005 7.23445 15.9778 7.2852C15.9507 7.33595 15.9224 7.38601 15.8928 7.43538C15.8632 7.48474 15.8324 7.53335 15.8004 7.5812C15.7685 7.62904 15.7353 7.67608 15.7011 7.72231C15.6668 7.76853 15.6314 7.81388 15.5949 7.85837C15.5584 7.90286 15.5208 7.94643 15.4821 7.98906C15.4435 8.0317 15.4038 8.07337 15.3631 8.11406C15.3224 8.15475 15.2808 8.19443 15.2381 8.23308C15.1955 8.27173 15.1519 8.3093 15.1074 8.34581C15.0629 8.38232 15.0176 8.41772 14.9714 8.452C14.9251 8.48629 14.8781 8.51941 14.8303 8.55138C14.7824 8.58336 14.7338 8.61414 14.6844 8.64372C14.6351 8.67331 14.585 8.70168 14.5343 8.7288C14.4835 8.75592 14.4321 8.7818 14.3801 8.80639C14.3281 8.831 14.2755 8.85431 14.2223 8.87633C14.1691 8.89836 14.1155 8.91907 14.0613 8.93845C14.0071 8.95784 13.9525 8.97588 13.8974 8.9926C13.8423 9.00931 13.7869 9.02466 13.731 9.03863C13.6752 9.05261 13.6191 9.06521 13.5627 9.07644C13.5062 9.08768 13.4495 9.0975 13.3926 9.10596C13.3357 9.11439 13.2786 9.12144 13.2213 9.12709C13.164 9.13273 13.1067 9.13695 13.0492 9.13978C12.9917 9.14261 12.9342 9.14401 12.8766 9.14401L12.8766 9.14396ZM14.1476 12.8828C14.1476 12.8906 14.1474 12.8984 14.147 12.9062C14.1467 12.914 14.1461 12.9218 14.1453 12.9296C14.1446 12.9373 14.1436 12.9451 14.1425 12.9528C14.1413 12.9605 14.14 12.9682 14.1385 12.9758C14.1369 12.9835 14.1352 12.9911 14.1333 12.9986C14.1314 13.0062 14.1294 13.0137 14.1271 13.0212C14.1248 13.0287 14.1224 13.0361 14.1198 13.0434C14.1171 13.0507 14.1143 13.058 14.1113 13.0652C14.1083 13.0724 14.1052 13.0796 14.1019 13.0866C14.0985 13.0937 14.095 13.1006 14.0913 13.1075C14.0877 13.1144 14.0838 13.1212 14.0798 13.1279C14.0758 13.1346 14.0716 13.1411 14.0673 13.1476C14.0629 13.1541 14.0585 13.1605 14.0538 13.1667C14.0492 13.173 14.0444 13.1792 14.0394 13.1852C14.0345 13.1912 14.0294 13.1971 14.0241 13.2029C14.0189 13.2087 14.0135 13.2143 14.008 13.2199C14.0025 13.2254 13.9968 13.2308 13.9911 13.236C13.9853 13.2412 13.9794 13.2463 13.9734 13.2513C13.9673 13.2562 13.9612 13.261 13.9549 13.2657C13.9486 13.2703 13.9423 13.2748 13.9358 13.2791C13.9293 13.2835 13.9227 13.2876 13.916 13.2916C13.9093 13.2957 13.9025 13.2995 13.8957 13.3032C13.8888 13.3068 13.8818 13.3104 13.8748 13.3137C13.8677 13.317 13.8606 13.3202 13.8534 13.3232C13.8462 13.3262 13.8389 13.329 13.8316 13.3316C13.8242 13.3342 13.8168 13.3367 13.8093 13.3389C13.8019 13.3412 13.7944 13.3433 13.7868 13.3452C13.7792 13.3471 13.7716 13.3488 13.764 13.3503C13.7563 13.3518 13.7486 13.3531 13.7409 13.3543C13.7332 13.3554 13.7255 13.3564 13.7177 13.3572C13.7099 13.3579 13.7022 13.3585 13.6944 13.3589C13.6866 13.3593 13.6788 13.3595 13.671 13.3595L2.57091 13.3595C2.5631 13.3595 2.55531 13.3593 2.54753 13.3589C2.53974 13.3585 2.53196 13.3579 2.52419 13.3572C2.51643 13.3564 2.50869 13.3554 2.50097 13.3543C2.49325 13.3531 2.48557 13.3518 2.47792 13.3503C2.47027 13.3488 2.46266 13.3471 2.4551 13.3452C2.44753 13.3433 2.44002 13.3412 2.43255 13.3389C2.42509 13.3367 2.41768 13.3342 2.41033 13.3316C2.40299 13.329 2.39571 13.3262 2.38852 13.3232C2.38131 13.3202 2.37418 13.317 2.36713 13.3137C2.36007 13.3104 2.3531 13.3068 2.34623 13.3032C2.33935 13.2995 2.33256 13.2957 2.32587 13.2916C2.31918 13.2876 2.31259 13.2835 2.30611 13.2791C2.29962 13.2748 2.29325 13.2703 2.28699 13.2657C2.28072 13.261 2.27456 13.2562 2.26853 13.2513C2.26251 13.2463 2.25661 13.2412 2.25083 13.236C2.24504 13.2308 2.23939 13.2254 2.23388 13.2199C2.22836 13.2143 2.22299 13.2087 2.21775 13.2029C2.21251 13.1971 2.20742 13.1912 2.20247 13.1852C2.19753 13.1792 2.19273 13.173 2.18808 13.1667C2.18343 13.1605 2.17895 13.1541 2.17461 13.1476C2.17027 13.1411 2.1661 13.1346 2.16209 13.1279C2.15807 13.1212 2.15423 13.1144 2.15056 13.1075C2.14688 13.1006 2.14337 13.0937 2.14003 13.0866C2.13671 13.0796 2.13355 13.0724 2.13056 13.0652C2.12757 13.058 2.12476 13.0507 2.12214 13.0434C2.11952 13.0361 2.11707 13.0287 2.11481 13.0212C2.11254 13.0137 2.11046 13.0062 2.10857 12.9986C2.10667 12.9911 2.10496 12.9835 2.10344 12.9758C2.10191 12.9682 2.10058 12.9605 2.09943 12.9528C2.09829 12.9451 2.09734 12.9373 2.09658 12.9296C2.09581 12.9218 2.09523 12.914 2.09486 12.9062C2.09447 12.8984 2.09428 12.8906 2.09428 12.8828L2.09428 3.62573C2.09478 3.61826 2.09546 3.61082 2.0963 3.60339C2.09716 3.59595 2.09818 3.58855 2.09938 3.58117C2.10057 3.57379 2.10194 3.56644 2.10349 3.55911C2.10504 3.5518 2.10675 3.54452 2.10864 3.53728C2.11053 3.53004 2.11258 3.52285 2.11479 3.51571C2.11702 3.50857 2.11942 3.50149 2.12198 3.49446C2.12454 3.48743 2.12725 3.48046 2.13014 3.47356C2.13303 3.46665 2.13608 3.45983 2.1393 3.45308C2.1425 3.44631 2.14586 3.43963 2.14939 3.43304C2.15291 3.42645 2.15659 3.41993 2.16041 3.41351C2.16424 3.40708 2.16822 3.40075 2.17234 3.39451C2.17648 3.38827 2.18075 3.38213 2.18516 3.3761C2.18957 3.37006 2.19413 3.36413 2.19883 3.35831C2.20353 3.3525 2.20836 3.34678 2.21332 3.34118C2.21829 3.33559 2.22338 3.33012 2.22859 3.32476C2.23382 3.3194 2.23917 3.31418 2.24464 3.30906C2.2501 3.30396 2.25569 3.29899 2.26139 3.29415C2.2671 3.28932 2.27291 3.28461 2.27883 3.28004C2.28476 3.27547 2.29079 3.27104 2.29692 3.26677C2.30305 3.26248 2.30928 3.25835 2.3156 3.25436C2.32193 3.25037 2.32835 3.24652 2.33485 3.24284C2.34137 3.23915 2.34796 3.23562 2.35463 3.23224C2.36131 3.22885 2.36806 3.22563 2.37488 3.22258C2.38171 3.21952 2.38861 3.21662 2.39557 3.21389C2.40253 3.21115 2.40955 3.20858 2.41663 3.20618C2.42372 3.20377 2.43085 3.20154 2.43804 3.19946C2.44522 3.1974 2.45245 3.19551 2.45973 3.19377C2.467 3.19204 2.47432 3.1905 2.48168 3.18911C2.48903 3.18772 2.49641 3.18651 2.50381 3.18547C2.51122 3.18443 2.51865 3.18357 2.5261 3.18288C2.53354 3.1822 2.541 3.18169 2.54848 3.18136C2.55596 3.18102 2.56343 3.18086 2.57091 3.18088L7.86674 3.18088C7.93299 3.04379 8.00503 2.90982 8.08285 2.77894C8.16067 2.64807 8.24399 2.52078 8.33277 2.39709L2.16842 2.39709C2.15163 2.39707 2.13484 2.39745 2.11806 2.39823C2.10128 2.39901 2.08453 2.40018 2.06781 2.40175C2.05109 2.40333 2.03442 2.40531 2.0178 2.40767C2.00117 2.41004 1.9846 2.4128 1.9681 2.41595C1.9516 2.4191 1.93519 2.42265 1.91887 2.42659C1.90254 2.43052 1.88632 2.43485 1.87019 2.43956C1.85407 2.44427 1.83806 2.44936 1.82219 2.45482C1.80631 2.46029 1.79057 2.46614 1.77497 2.47236C1.75936 2.47857 1.74391 2.48516 1.72863 2.49212C1.71334 2.49907 1.69822 2.50638 1.68328 2.51405C1.66834 2.52172 1.65359 2.52974 1.63903 2.53812C1.62447 2.54649 1.61012 2.5552 1.59598 2.56426C1.58183 2.57332 1.56791 2.5827 1.55421 2.59242C1.54051 2.60215 1.52705 2.61219 1.51383 2.62255C1.50061 2.63291 1.48764 2.64357 1.47493 2.65454C1.46222 2.66552 1.44977 2.67679 1.4376 2.68836C1.42542 2.69993 1.41352 2.71178 1.40191 2.72392C1.3903 2.73605 1.37898 2.74845 1.36796 2.76112C1.35693 2.7738 1.34622 2.78673 1.33581 2.79991C1.3254 2.81308 1.31531 2.8265 1.30554 2.84016C1.29577 2.85383 1.28633 2.86772 1.27723 2.88182C1.26812 2.89593 1.25935 2.91025 1.25092 2.92479C1.24249 2.93932 1.23442 2.95404 1.22669 2.96894C1.21896 2.98386 1.21159 2.99895 1.20458 3.0142C1.19757 3.02948 1.19093 3.0449 1.18465 3.06047C1.17838 3.07606 1.17248 3.09178 1.16695 3.10763C1.16142 3.12349 1.15627 3.13947 1.1515 3.15559C1.14674 3.17169 1.14235 3.18789 1.13836 3.20421C1.13436 3.22052 1.13075 3.23692 1.12754 3.25341C1.12432 3.26988 1.1215 3.28644 1.11907 3.30307C1.11664 3.31968 1.1146 3.33634 1.11297 3.35306C1.11133 3.36978 1.11009 3.38653 1.10925 3.4033L1.10925 13.3701C1.11009 13.3868 1.11133 13.4036 1.11297 13.4203C1.1146 13.437 1.11664 13.4537 1.11906 13.4703C1.12149 13.4869 1.12432 13.5035 1.12753 13.5199C1.13075 13.5364 1.13436 13.5528 1.13835 13.5691C1.14235 13.5855 1.14673 13.6017 1.1515 13.6178C1.15627 13.6339 1.16142 13.6499 1.16694 13.6657C1.17247 13.6816 1.17837 13.6973 1.18465 13.7129C1.19093 13.7285 1.19757 13.7439 1.20458 13.7591C1.21159 13.7744 1.21896 13.7895 1.22668 13.8044C1.23441 13.8193 1.24249 13.834 1.25092 13.8486C1.25934 13.8631 1.26811 13.8774 1.27722 13.8915C1.28633 13.9056 1.29577 13.9195 1.30554 13.9332C1.31531 13.9468 1.3254 13.9603 1.33581 13.9735C1.34621 13.9866 1.35693 13.9996 1.36795 14.0122C1.37898 14.0249 1.39029 14.0373 1.40191 14.0495C1.41352 14.0616 1.42541 14.0734 1.43759 14.085C1.44977 14.0966 1.46221 14.1078 1.47493 14.1188C1.48764 14.1298 1.50061 14.1405 1.51383 14.1508C1.52705 14.1612 1.54051 14.1712 1.5542 14.1809C1.5679 14.1907 1.58183 14.2001 1.59597 14.2091C1.61012 14.2182 1.62447 14.2269 1.63903 14.2353C1.65359 14.2436 1.66834 14.2516 1.68328 14.2593C1.69822 14.267 1.71333 14.2743 1.72862 14.2813C1.74391 14.2882 1.75936 14.2948 1.77495 14.301C1.79056 14.3072 1.80631 14.3131 1.82219 14.3186C1.83806 14.324 1.85407 14.3291 1.87019 14.3338C1.88632 14.3385 1.90254 14.3428 1.91887 14.3468C1.93519 14.3507 1.9516 14.3543 1.9681 14.3574C1.9846 14.3606 2.00117 14.3633 2.0178 14.3657C2.03441 14.3681 2.05108 14.37 2.06781 14.3716C2.08453 14.3732 2.10128 14.3744 2.11806 14.3751C2.13484 14.3759 2.15163 14.3763 2.16842 14.3763L7.40073 14.3763L7.40073 15.6261L4.55156 15.6261C4.54237 15.6261 4.53319 15.6263 4.52401 15.6268C4.51484 15.6272 4.50568 15.6279 4.49654 15.6288C4.4874 15.6297 4.47828 15.6308 4.46919 15.6322C4.4601 15.6335 4.45107 15.6351 4.44205 15.6369C4.43303 15.6387 4.42407 15.6407 4.41515 15.6429C4.40624 15.6451 4.3974 15.6476 4.38861 15.6503C4.3798 15.6529 4.37109 15.6558 4.36244 15.6589C4.35379 15.662 4.34523 15.6653 4.33674 15.6688C4.32825 15.6723 4.31984 15.6761 4.31155 15.68C4.30323 15.6839 4.29504 15.688 4.28694 15.6924C4.27883 15.6967 4.27084 15.7012 4.26296 15.7059C4.25507 15.7107 4.24732 15.7156 4.23967 15.7207C4.23204 15.7258 4.22454 15.7311 4.21715 15.7365C4.20977 15.742 4.20253 15.7477 4.19543 15.7535C4.18832 15.7593 4.18136 15.7653 4.17456 15.7715C4.16776 15.7777 4.1611 15.784 4.15461 15.7905C4.14812 15.797 4.14178 15.8036 4.13561 15.8104C4.12944 15.8172 4.12344 15.8242 4.11761 15.8313C4.11179 15.8384 4.10613 15.8457 4.10066 15.853C4.0952 15.8604 4.08991 15.8679 4.08479 15.8756C4.07969 15.8832 4.07479 15.891 4.07006 15.8988C4.06533 15.9067 4.06081 15.9147 4.05647 15.9228C4.05213 15.9309 4.048 15.9391 4.04408 15.9474C4.04016 15.9557 4.03643 15.9641 4.03292 15.9726C4.0294 15.9811 4.0261 15.9897 4.023 15.9983C4.01991 16.007 4.01703 16.0157 4.01435 16.0245C4.0117 16.0333 4.00924 16.0421 4.00701 16.051C4.00477 16.06 4.00277 16.0689 4.00098 16.0779C3.99918 16.0869 3.99762 16.096 3.99627 16.1051C3.99491 16.1142 3.99379 16.1233 3.99289 16.1324C3.992 16.1416 3.99131 16.1507 3.99085 16.1599C3.99041 16.1691 3.99018 16.1783 3.99018 16.1874C3.99018 16.1966 3.99041 16.2057 3.99085 16.2148C3.99131 16.2239 3.992 16.233 3.99289 16.2421C3.99379 16.2512 3.99493 16.2602 3.99628 16.2693C3.99764 16.2783 3.9992 16.2873 4.00101 16.2962C4.00281 16.3051 4.00483 16.3141 4.00708 16.3229C4.00931 16.3317 4.01177 16.3405 4.01446 16.3493C4.01713 16.358 4.02003 16.3666 4.02314 16.3752C4.02625 16.3838 4.02956 16.3923 4.03309 16.4007C4.03663 16.4091 4.04037 16.4174 4.04431 16.4257C4.04826 16.4339 4.05241 16.442 4.05675 16.45C4.06109 16.4581 4.06565 16.466 4.07039 16.4738C4.07514 16.4815 4.08008 16.4892 4.08519 16.4968C4.09031 16.5043 4.09562 16.5117 4.10112 16.519C4.1066 16.5263 4.11226 16.5335 4.11812 16.5405C4.12397 16.5475 4.12998 16.5544 4.13617 16.5611C4.14236 16.5677 4.1487 16.5743 4.15523 16.5807C4.16175 16.5871 4.16841 16.5933 4.17523 16.5994C4.18207 16.6054 4.18903 16.6113 4.19615 16.617C4.20327 16.6227 4.21051 16.6283 4.21791 16.6336C4.22529 16.639 4.23282 16.6441 4.24046 16.6491C4.24811 16.6541 4.25588 16.6589 4.26377 16.6635C4.27165 16.6681 4.27964 16.6725 4.28775 16.6767C4.29585 16.6809 4.30406 16.6849 4.31236 16.6886C4.32065 16.6924 4.32904 16.696 4.33753 16.6994C4.34602 16.7027 4.35458 16.7059 4.36321 16.7088C4.37184 16.7118 4.38054 16.7145 4.38931 16.717C4.39808 16.7196 4.40693 16.7218 4.4158 16.7239C4.4247 16.726 4.43363 16.7278 4.44261 16.7295C4.45159 16.7311 4.46059 16.7325 4.46965 16.7337C4.4787 16.7349 4.48777 16.7358 4.49687 16.7365C4.50596 16.7373 4.51507 16.7378 4.52419 16.7381C4.53331 16.7383 4.54244 16.7384 4.55156 16.7382L11.6903 16.7382C11.6995 16.7384 11.7086 16.7383 11.7177 16.7381C11.7268 16.7378 11.7359 16.7373 11.745 16.7365C11.7541 16.7358 11.7632 16.7349 11.7722 16.7337C11.7813 16.7325 11.7903 16.7311 11.7993 16.7295C11.8083 16.7278 11.8172 16.726 11.8261 16.7239C11.835 16.7218 11.8438 16.7195 11.8526 16.717C11.8613 16.7145 11.8701 16.7118 11.8787 16.7088C11.8873 16.7059 11.8959 16.7027 11.9044 16.6994C11.9128 16.696 11.9212 16.6924 11.9295 16.6886C11.9378 16.6849 11.946 16.6809 11.9541 16.6767C11.9623 16.6725 11.9702 16.6681 11.9781 16.6635C11.986 16.6589 11.9938 16.6541 12.0014 16.6491C12.0091 16.6441 12.0166 16.639 12.024 16.6336C12.0314 16.6283 12.0386 16.6227 12.0457 16.617C12.0528 16.6113 12.0598 16.6054 12.0666 16.5994C12.0735 16.5933 12.0801 16.5871 12.0867 16.5807C12.0932 16.5743 12.0995 16.5677 12.1057 16.5611C12.1119 16.5543 12.1179 16.5475 12.1238 16.5405C12.1296 16.5335 12.1353 16.5263 12.1408 16.519C12.1463 16.5117 12.1516 16.5043 12.1567 16.4968C12.1618 16.4892 12.1668 16.4815 12.1715 16.4738C12.1762 16.466 12.1808 16.4581 12.1851 16.45C12.1895 16.442 12.1936 16.4339 12.1976 16.4256C12.2015 16.4174 12.2053 16.4091 12.2088 16.4007C12.2123 16.3923 12.2156 16.3838 12.2187 16.3752C12.2218 16.3666 12.2247 16.358 12.2274 16.3493C12.2301 16.3405 12.2326 16.3317 12.2348 16.3229C12.237 16.314 12.2391 16.3051 12.2409 16.2962C12.2427 16.2873 12.2442 16.2783 12.2456 16.2693C12.2469 16.2602 12.2481 16.2512 12.249 16.2421C12.2499 16.233 12.2506 16.2239 12.251 16.2148C12.2515 16.2057 12.2517 16.1966 12.2517 16.1874C12.2517 16.1783 12.2515 16.1691 12.251 16.1599C12.2506 16.1507 12.2499 16.1416 12.249 16.1324C12.2481 16.1233 12.247 16.1142 12.2456 16.1051C12.2443 16.096 12.2427 16.087 12.2409 16.0779C12.2391 16.0689 12.2371 16.06 12.2349 16.051C12.2326 16.0421 12.2302 16.0333 12.2275 16.0245C12.2249 16.0157 12.222 16.007 12.2189 15.9983C12.2158 15.9897 12.2125 15.9811 12.209 15.9726C12.2054 15.9641 12.2017 15.9557 12.1978 15.9474C12.1939 15.9391 12.1897 15.9309 12.1854 15.9228C12.1811 15.9147 12.1765 15.9067 12.1718 15.8988C12.1671 15.891 12.1622 15.8832 12.1571 15.8756C12.152 15.8679 12.1467 15.8604 12.1412 15.853C12.1357 15.8457 12.1301 15.8384 12.1243 15.8313C12.1185 15.8242 12.1124 15.8173 12.1063 15.8105C12.1001 15.8037 12.0938 15.797 12.0873 15.7905C12.0808 15.784 12.0741 15.7777 12.0673 15.7715C12.0605 15.7653 12.0536 15.7593 12.0464 15.7535C12.0393 15.7477 12.0321 15.742 12.0247 15.7365C12.0174 15.7311 12.0099 15.7258 12.0022 15.7207C11.9946 15.7156 11.9868 15.7107 11.9789 15.7059C11.971 15.7012 11.9631 15.6967 11.955 15.6924C11.9469 15.688 11.9387 15.6839 11.9303 15.68C11.922 15.6761 11.9136 15.6723 11.9052 15.6688C11.8967 15.6653 11.8881 15.662 11.8795 15.6589C11.8708 15.6558 11.8621 15.6529 11.8533 15.6503C11.8445 15.6476 11.8357 15.6451 11.8267 15.6429C11.8178 15.6407 11.8089 15.6387 11.7998 15.6369C11.7908 15.6351 11.7818 15.6335 11.7727 15.6322C11.7636 15.6308 11.7545 15.6297 11.7454 15.6288C11.7362 15.6279 11.7271 15.6272 11.7179 15.6268C11.7087 15.6263 11.6995 15.6261 11.6903 15.6261L8.85177 15.6261L8.85177 14.3445L14.0947 14.3445C14.1114 14.3445 14.1282 14.3441 14.145 14.3434C14.1618 14.3426 14.1786 14.3414 14.1953 14.3398C14.212 14.3383 14.2287 14.3363 14.2453 14.3339C14.2619 14.3315 14.2785 14.3288 14.295 14.3256C14.3115 14.3225 14.3279 14.3189 14.3442 14.315C14.3605 14.3111 14.3768 14.3067 14.3929 14.302C14.409 14.2973 14.425 14.2922 14.4409 14.2868C14.4568 14.2813 14.4725 14.2755 14.4881 14.2692C14.5037 14.263 14.5192 14.2564 14.5345 14.2495C14.5497 14.2425 14.5648 14.2352 14.5798 14.2275C14.5947 14.2199 14.6095 14.2119 14.6241 14.2035C14.6386 14.1951 14.653 14.1864 14.6671 14.1773C14.6813 14.1683 14.6952 14.1589 14.7089 14.1492C14.7226 14.1394 14.736 14.1294 14.7492 14.119C14.7625 14.1087 14.7754 14.098 14.7881 14.0871C14.8009 14.0761 14.8133 14.0648 14.8255 14.0532C14.8377 14.0417 14.8495 14.0298 14.8612 14.0177C14.8728 14.0055 14.8841 13.9931 14.8951 13.9805C14.9061 13.9678 14.9169 13.9549 14.9273 13.9417C14.9377 13.9285 14.9478 13.9151 14.9575 13.9014C14.9673 13.8878 14.9767 13.8739 14.9858 13.8598C14.995 13.8457 15.0037 13.8313 15.0122 13.8168C15.0206 13.8023 15.0287 13.7876 15.0364 13.7726C15.0441 13.7577 15.0515 13.7426 15.0585 13.7274C15.0655 13.7121 15.0722 13.6967 15.0784 13.6811C15.0847 13.6655 15.0906 13.6498 15.0961 13.634C15.1017 13.6181 15.1068 13.6021 15.1116 13.586C15.1163 13.5699 15.1207 13.5537 15.1247 13.5374C15.1287 13.5211 15.1323 13.5047 15.1355 13.4882C15.1388 13.4717 15.1416 13.4551 15.144 13.4385C15.1464 13.4219 15.1485 13.4052 15.1501 13.3885C15.1517 13.3718 15.153 13.3551 15.1538 13.3383L15.1538 11.2941C14.9999 11.3447 14.8442 11.3895 14.6869 11.4284C14.5295 11.4673 14.371 11.5002 14.2112 11.5271L14.2112 12.8828L14.1476 12.8828Z"   fill="#333333" >
</path>
</svg>
