<svg xmlns="http://www.w3.org/2000/svg" xmlns:xlink="http://www.w3.org/1999/xlink" width="35" height="20" viewBox="0 0 35 20" fill="none">
<path d="M9.99994 10.33C9.99994 10.3628 9.99914 10.3955 9.99754 10.4282C9.99593 10.4608 9.99351 10.4935 9.9903 10.526C9.98709 10.5586 9.98308 10.5911 9.9783 10.6235C9.97347 10.6559 9.9679 10.6881 9.96152 10.7202C9.95512 10.7523 9.94795 10.7842 9.94 10.816C9.93204 10.8477 9.92332 10.8793 9.91383 10.9106C9.90431 10.9419 9.89404 10.973 9.88303 11.0038C9.87199 11.0346 9.86022 11.0651 9.84771 11.0954C9.83517 11.1256 9.8219 11.1555 9.80793 11.1851C9.79392 11.2147 9.7792 11.2439 9.76378 11.2728C9.74836 11.3017 9.73223 11.3301 9.7154 11.3582C9.69857 11.3863 9.68107 11.414 9.66288 11.4412C9.64469 11.4684 9.62585 11.4951 9.60635 11.5214C9.58685 11.5477 9.56674 11.5735 9.54597 11.5988C9.52521 11.6241 9.50383 11.6489 9.48185 11.6731C9.45986 11.6974 9.43729 11.7211 9.41416 11.7442C9.391 11.7674 9.36731 11.7899 9.34305 11.8119C9.31879 11.8339 9.29402 11.8553 9.26873 11.8761C9.24342 11.8968 9.21763 11.9169 9.19134 11.9364C9.16504 11.9559 9.1383 11.9748 9.11109 11.993C9.08385 12.0111 9.05622 12.0287 9.02814 12.0455C9.00006 12.0623 8.97159 12.0784 8.94274 12.0939C8.91386 12.1093 8.88463 12.124 8.85505 12.138C8.82545 12.152 8.79555 12.1653 8.76531 12.1778C8.73506 12.1903 8.70452 12.2021 8.67372 12.2131C8.6429 12.2241 8.61182 12.2344 8.58051 12.2439C8.54917 12.2534 8.51762 12.2621 8.48589 12.2701C8.45413 12.278 8.42221 12.2852 8.39012 12.2916C8.35802 12.298 8.32577 12.3036 8.2934 12.3084C8.26101 12.3132 8.22855 12.3172 8.19597 12.3204C8.16339 12.3236 8.13074 12.326 8.09807 12.3276C8.06537 12.3292 8.03265 12.33 7.99994 12.33C7.96719 12.33 7.93447 12.3292 7.9018 12.3276C7.86911 12.326 7.83648 12.3236 7.8039 12.3204C7.77133 12.3172 7.73884 12.3132 7.70647 12.3084C7.67408 12.3036 7.64186 12.298 7.60975 12.2916C7.57764 12.2852 7.54572 12.278 7.51398 12.2701C7.48222 12.2621 7.45068 12.2534 7.41936 12.2439C7.38803 12.2344 7.35695 12.2241 7.32615 12.2131C7.29533 12.2021 7.26479 12.1903 7.23456 12.1778C7.20432 12.1653 7.17439 12.152 7.14482 12.138C7.11524 12.124 7.08601 12.1093 7.05713 12.0939C7.02826 12.0784 6.99981 12.0623 6.97173 12.0455C6.94365 12.0287 6.91599 12.0111 6.88878 11.993C6.86157 11.9748 6.83483 11.9559 6.80853 11.9364C6.78224 11.9169 6.75643 11.8968 6.73114 11.8761C6.70583 11.8553 6.68106 11.8339 6.65682 11.8119C6.63256 11.7899 6.60887 11.7674 6.58571 11.7442C6.56256 11.7211 6.54001 11.6974 6.51802 11.6731C6.49604 11.6489 6.47466 11.6241 6.4539 11.5988C6.43313 11.5735 6.41302 11.5477 6.39352 11.5214C6.37402 11.4951 6.35518 11.4684 6.33699 11.4412C6.3188 11.414 6.3013 11.3863 6.28447 11.3582C6.26764 11.3301 6.25151 11.3017 6.23609 11.2728C6.22065 11.2439 6.20593 11.2147 6.19196 11.1851C6.17794 11.1555 6.16468 11.1256 6.15216 11.0954C6.13965 11.0651 6.12786 11.0346 6.11684 11.0038C6.1058 10.973 6.09554 10.9419 6.08605 10.9106C6.07653 10.8793 6.06781 10.8477 6.05987 10.816C6.0519 10.7842 6.04473 10.7523 6.03835 10.7202C6.03197 10.6881 6.02637 10.6559 6.02157 10.6235C6.01676 10.5911 6.01276 10.5586 6.00957 10.526C6.00633 10.4935 6.00392 10.4608 6.00233 10.4282C6.00073 10.3955 5.99994 10.3628 5.99994 10.33C5.99994 10.2973 6.00073 10.2646 6.00233 10.2319C6.00392 10.1992 6.00633 10.1666 6.00957 10.134C6.01276 10.1014 6.01676 10.0689 6.02157 10.0366C6.02637 10.0042 6.03197 9.97194 6.03835 9.93983C6.04473 9.90773 6.0519 9.87581 6.05987 9.84406C6.06781 9.81231 6.07653 9.78077 6.08605 9.74944C6.09554 9.71812 6.1058 9.68705 6.11684 9.65623C6.12786 9.62542 6.13965 9.59489 6.15216 9.56464C6.16468 9.5344 6.17794 9.50449 6.19196 9.4749C6.20593 9.44532 6.22065 9.41609 6.23609 9.38722C6.25151 9.35836 6.26764 9.32989 6.28447 9.30181C6.3013 9.27373 6.3188 9.24608 6.33699 9.21886C6.35518 9.19166 6.37402 9.16491 6.39352 9.13861C6.41302 9.11232 6.43313 9.08652 6.4539 9.06122C6.47466 9.03593 6.49604 9.01115 6.51802 8.9869C6.54001 8.96264 6.56256 8.93893 6.58571 8.91579C6.60884 8.89265 6.63254 8.87009 6.65682 8.84811C6.68106 8.82612 6.70583 8.80475 6.73114 8.78398C6.75643 8.76321 6.78224 8.74309 6.80853 8.7236C6.83483 8.7041 6.86157 8.68526 6.88878 8.66707C6.91599 8.64889 6.94365 8.63138 6.97173 8.61455C6.99981 8.59772 7.02826 8.5816 7.05713 8.56617C7.08601 8.55074 7.11524 8.53603 7.14482 8.52204C7.17439 8.50804 7.20432 8.49478 7.23456 8.48224C7.26479 8.46973 7.29533 8.45796 7.32615 8.44692C7.35695 8.43589 7.38803 8.42563 7.41936 8.41613C7.45068 8.40663 7.48222 8.3979 7.51398 8.38995C7.54572 8.38199 7.57764 8.37482 7.60975 8.36843C7.64186 8.36206 7.67408 8.35646 7.70647 8.35165C7.73884 8.34685 7.77133 8.34285 7.8039 8.33965C7.83648 8.33643 7.86911 8.33402 7.9018 8.33241C7.93447 8.33081 7.96719 8.33002 7.99994 8.33002C8.03265 8.33002 8.06537 8.33081 8.09807 8.33241C8.13074 8.33402 8.16339 8.33643 8.19597 8.33965C8.22855 8.34285 8.26101 8.34685 8.2934 8.35165C8.32577 8.35646 8.35802 8.36206 8.39012 8.36843C8.42221 8.37482 8.45413 8.38199 8.48589 8.38995C8.51762 8.3979 8.54917 8.40663 8.58051 8.41613C8.61182 8.42563 8.6429 8.43589 8.67372 8.44692C8.70452 8.45796 8.73506 8.46973 8.76531 8.48224C8.79555 8.49478 8.82545 8.50804 8.85505 8.52204C8.88463 8.53603 8.91386 8.55074 8.94274 8.56617C8.97159 8.5816 9.00006 8.59772 9.02814 8.61455C9.05622 8.63138 9.08385 8.64889 9.11109 8.66707C9.1383 8.68526 9.16504 8.7041 9.19134 8.7236C9.21763 8.7431 9.24342 8.76323 9.26873 8.78398C9.29402 8.80475 9.31879 8.82612 9.34305 8.84811C9.36731 8.87009 9.391 8.89265 9.41416 8.91579C9.43729 8.93895 9.45986 8.96265 9.48185 8.9869C9.50383 9.01115 9.52521 9.03593 9.54597 9.06122C9.56674 9.08652 9.58685 9.11232 9.60635 9.13861C9.62585 9.16491 9.64469 9.19166 9.66288 9.21886C9.68107 9.24608 9.69857 9.27373 9.7154 9.30181C9.73223 9.32989 9.74836 9.35836 9.76378 9.38722C9.7792 9.41609 9.79392 9.44532 9.80791 9.4749C9.8219 9.50449 9.83517 9.5344 9.84771 9.56464C9.86022 9.59489 9.87199 9.62542 9.88303 9.65623C9.89404 9.68705 9.90431 9.71812 9.91383 9.74944C9.92332 9.78077 9.93204 9.81231 9.94 9.84406C9.94795 9.87581 9.95512 9.90773 9.96152 9.93983C9.9679 9.97194 9.97347 10.0042 9.9783 10.0366C9.98308 10.0689 9.98709 10.1014 9.9903 10.134C9.99351 10.1666 9.99593 10.1992 9.99752 10.2319C9.99911 10.2646 9.99994 10.2973 9.99994 10.33ZM17 8.33002C16.9672 8.33002 16.9345 8.33081 16.9018 8.33241C16.8691 8.33402 16.8365 8.33643 16.8039 8.33965C16.7714 8.34285 16.7389 8.34685 16.7065 8.35165C16.6741 8.35646 16.6419 8.36206 16.6098 8.36843C16.5777 8.37482 16.5457 8.38199 16.514 8.38995C16.4823 8.3979 16.4507 8.40663 16.4194 8.41613C16.3881 8.42563 16.357 8.43589 16.3262 8.44692C16.2954 8.45796 16.2648 8.46973 16.2346 8.48224C16.2044 8.49478 16.1744 8.50804 16.1448 8.52204C16.1153 8.53603 16.086 8.55074 16.0572 8.56617C16.0283 8.5816 15.9998 8.59772 15.9718 8.61455C15.9437 8.63138 15.916 8.64889 15.8888 8.66707C15.8616 8.68526 15.8349 8.7041 15.8086 8.7236C15.7823 8.74309 15.7565 8.76321 15.7312 8.78398C15.7059 8.80475 15.6811 8.82612 15.6569 8.84811C15.6326 8.87009 15.6089 8.89265 15.5857 8.91579C15.5626 8.93893 15.54 8.96264 15.5181 8.9869C15.4961 9.01115 15.4747 9.03593 15.4539 9.06122C15.4332 9.08652 15.4131 9.11232 15.3936 9.13861C15.3741 9.16491 15.3552 9.19166 15.337 9.21886C15.3188 9.24608 15.3013 9.27373 15.2845 9.30181C15.2677 9.32989 15.2515 9.35836 15.2361 9.38722C15.2207 9.41609 15.206 9.44532 15.192 9.4749C15.178 9.50449 15.1647 9.5344 15.1522 9.56464C15.1397 9.59489 15.1279 9.62542 15.1169 9.65623C15.1058 9.68705 15.0956 9.71812 15.0861 9.74944C15.0766 9.78077 15.0678 9.81231 15.0599 9.84406C15.0519 9.87581 15.0448 9.90773 15.0384 9.93983C15.032 9.97194 15.0264 10.0042 15.0216 10.0366C15.0168 10.0689 15.0128 10.1014 15.0096 10.134C15.0064 10.1666 15.004 10.1992 15.0024 10.2319C15.0008 10.2646 15 10.2973 15 10.33C15 10.3628 15.0008 10.3955 15.0024 10.4282C15.004 10.4608 15.0064 10.4935 15.0096 10.526C15.0128 10.5586 15.0168 10.5911 15.0216 10.6235C15.0264 10.6559 15.032 10.6881 15.0384 10.7202C15.0448 10.7523 15.0519 10.7842 15.0599 10.816C15.0678 10.8477 15.0766 10.8793 15.0861 10.9106C15.0956 10.9419 15.1058 10.973 15.1169 11.0038C15.1279 11.0346 15.1397 11.0651 15.1522 11.0954C15.1647 11.1256 15.178 11.1555 15.192 11.1851C15.206 11.2147 15.2207 11.2439 15.2361 11.2728C15.2515 11.3017 15.2677 11.3301 15.2845 11.3582C15.3013 11.3863 15.3188 11.414 15.337 11.4412C15.3552 11.4684 15.3741 11.4951 15.3936 11.5214C15.4131 11.5477 15.4332 11.5735 15.4539 11.5988C15.4747 11.6241 15.4961 11.6489 15.5181 11.6731C15.54 11.6974 15.5626 11.7211 15.5857 11.7442C15.6089 11.7674 15.6326 11.7899 15.6569 11.8119C15.6811 11.8339 15.7059 11.8553 15.7312 11.8761C15.7565 11.8968 15.7823 11.9169 15.8086 11.9364C15.8348 11.9559 15.8616 11.9748 15.8888 11.993C15.916 12.0111 15.9437 12.0287 15.9718 12.0455C15.9998 12.0623 16.0283 12.0784 16.0572 12.0939C16.086 12.1093 16.1153 12.124 16.1448 12.138C16.1744 12.152 16.2044 12.1653 16.2346 12.1778C16.2648 12.1903 16.2954 12.2021 16.3262 12.2131C16.357 12.2241 16.3881 12.2344 16.4194 12.2439C16.4507 12.2534 16.4823 12.2621 16.514 12.2701C16.5457 12.278 16.5777 12.2852 16.6098 12.2916C16.6419 12.298 16.6741 12.3036 16.7065 12.3084C16.7389 12.3132 16.7714 12.3172 16.8039 12.3204C16.8365 12.3236 16.8691 12.326 16.9018 12.3276C16.9345 12.3292 16.9672 12.33 17 12.33C17.0327 12.33 17.0654 12.3292 17.0981 12.3276C17.1308 12.326 17.1634 12.3236 17.196 12.3204C17.2286 12.3172 17.261 12.3132 17.2934 12.3084C17.3258 12.3036 17.358 12.298 17.3902 12.2916C17.4222 12.2852 17.4542 12.278 17.4859 12.2701C17.5177 12.2621 17.5492 12.2534 17.5805 12.2439C17.6119 12.2344 17.6429 12.2241 17.6738 12.2131C17.7045 12.2021 17.7351 12.1903 17.7653 12.1778C17.7956 12.1653 17.8255 12.152 17.8551 12.138C17.8847 12.124 17.9139 12.1093 17.9428 12.0939C17.9716 12.0784 18.0001 12.0623 18.0282 12.0455C18.0563 12.0287 18.0839 12.0111 18.1111 11.993C18.1383 11.9748 18.1651 11.9559 18.1914 11.9364C18.2177 11.9169 18.2435 11.8968 18.2688 11.8761C18.2941 11.8553 18.3188 11.8339 18.3431 11.8119C18.3673 11.7899 18.391 11.7674 18.4142 11.7442C18.4373 11.7211 18.4599 11.6974 18.4819 11.6731C18.5039 11.6489 18.5252 11.6241 18.546 11.5988C18.5668 11.5735 18.5869 11.5477 18.6064 11.5214C18.6259 11.4951 18.6447 11.4684 18.6629 11.4412C18.6811 11.414 18.6986 11.3863 18.7154 11.3582C18.7323 11.3301 18.7484 11.3017 18.7638 11.2728C18.7792 11.2439 18.794 11.2147 18.8079 11.1851C18.8219 11.1555 18.8352 11.1256 18.8477 11.0954C18.8603 11.0651 18.872 11.0346 18.8831 11.0038C18.8941 10.973 18.9043 10.9419 18.9139 10.9106C18.9234 10.8793 18.9321 10.8477 18.94 10.816C18.948 10.7842 18.9552 10.7523 18.9616 10.7202C18.9679 10.6881 18.9735 10.6559 18.9783 10.6235C18.9831 10.5911 18.9871 10.5586 18.9903 10.526C18.9935 10.4935 18.996 10.4608 18.9976 10.4282C18.9992 10.3955 19 10.3628 19 10.33C19 10.2973 18.9992 10.2646 18.9976 10.2319C18.996 10.1992 18.9935 10.1666 18.9903 10.134C18.9871 10.1014 18.9831 10.0689 18.9783 10.0366C18.9735 10.0042 18.9679 9.97194 18.9616 9.93983C18.9552 9.90773 18.948 9.87581 18.94 9.84406C18.9321 9.81231 18.9234 9.78077 18.9139 9.74944C18.9043 9.71812 18.8941 9.68705 18.8831 9.65623C18.872 9.62542 18.8603 9.59489 18.8477 9.56464C18.8352 9.5344 18.8219 9.50449 18.8079 9.4749C18.794 9.44532 18.7792 9.41609 18.7638 9.38722C18.7484 9.35836 18.7323 9.32989 18.7154 9.30181C18.6986 9.27373 18.6811 9.24608 18.6629 9.21886C18.6447 9.19166 18.6259 9.16491 18.6064 9.13861C18.5869 9.11232 18.5667 9.08652 18.546 9.06122C18.5252 9.03593 18.5039 9.01115 18.4819 8.9869C18.4599 8.96264 18.4373 8.93893 18.4142 8.91579C18.391 8.89265 18.3673 8.87009 18.3431 8.84811C18.3188 8.82612 18.2941 8.80475 18.2688 8.78398C18.2435 8.76323 18.2177 8.7431 18.1914 8.7236C18.1651 8.7041 18.1383 8.68526 18.1111 8.66707C18.0839 8.64889 18.0563 8.63138 18.0282 8.61455C18.0001 8.59772 17.9716 8.5816 17.9428 8.56617C17.9139 8.55074 17.8847 8.53603 17.8551 8.52204C17.8255 8.50804 17.7956 8.49478 17.7653 8.48224C17.7351 8.46973 17.7045 8.45796 17.6738 8.44692C17.6429 8.43589 17.6119 8.42563 17.5805 8.41613C17.5492 8.40663 17.5177 8.3979 17.4859 8.38995C17.4542 8.38199 17.4222 8.37482 17.3902 8.36843C17.358 8.36206 17.3258 8.35646 17.2934 8.35165C17.261 8.34685 17.2286 8.34285 17.196 8.33965C17.1634 8.33643 17.1308 8.33402 17.0981 8.33241C17.0654 8.33081 17.0327 8.33002 17 8.33002ZM26 8.33002C25.9673 8.33002 25.9345 8.33081 25.9019 8.33241C25.8692 8.33402 25.8365 8.33643 25.804 8.33965C25.7714 8.34285 25.7389 8.34685 25.7065 8.35165C25.6742 8.35646 25.6419 8.36206 25.6098 8.36843C25.5777 8.37482 25.5458 8.38199 25.514 8.38995C25.4823 8.3979 25.4507 8.40663 25.4194 8.41613C25.3881 8.42563 25.357 8.43589 25.3262 8.44692C25.2954 8.45796 25.2649 8.46973 25.2346 8.48224C25.2044 8.49478 25.1745 8.50804 25.1449 8.52204C25.1153 8.53603 25.0861 8.55074 25.0572 8.56617C25.0283 8.5816 24.9999 8.59772 24.9718 8.61455C24.9437 8.63138 24.9161 8.64889 24.8888 8.66707C24.8616 8.68526 24.8349 8.7041 24.8086 8.7236C24.7823 8.74309 24.7565 8.76321 24.7312 8.78398C24.7059 8.80475 24.6811 8.82612 24.6569 8.84811C24.6326 8.87009 24.6089 8.89265 24.5858 8.91579C24.5626 8.93893 24.5401 8.96264 24.5181 8.9869C24.4961 9.01115 24.4747 9.03593 24.454 9.06122C24.4332 9.08652 24.4131 9.11232 24.3936 9.13861C24.3741 9.16491 24.3552 9.19166 24.3371 9.21886C24.3189 9.24608 24.3014 9.27373 24.2845 9.30181C24.2677 9.32989 24.2516 9.35836 24.2362 9.38722C24.2207 9.41609 24.206 9.44532 24.192 9.4749C24.178 9.50449 24.1647 9.5344 24.1522 9.56464C24.1397 9.59489 24.1279 9.62542 24.1169 9.65623C24.1059 9.68705 24.0956 9.71812 24.0861 9.74944C24.0766 9.78077 24.0679 9.81231 24.0599 9.84406C24.052 9.87581 24.0448 9.90773 24.0384 9.93983C24.032 9.97194 24.0264 10.0042 24.0216 10.0366C24.0168 10.0689 24.0128 10.1014 24.0096 10.134C24.0064 10.1666 24.004 10.1992 24.0024 10.2319C24.0008 10.2646 24 10.2973 24 10.33C24 10.3628 24.0008 10.3955 24.0024 10.4282C24.004 10.4608 24.0064 10.4935 24.0096 10.526C24.0128 10.5586 24.0168 10.5911 24.0216 10.6235C24.0264 10.6559 24.032 10.6881 24.0384 10.7202C24.0448 10.7523 24.052 10.7842 24.0599 10.816C24.0679 10.8477 24.0766 10.8793 24.0861 10.9106C24.0956 10.9419 24.1059 10.973 24.1169 11.0038C24.1279 11.0346 24.1397 11.0651 24.1522 11.0954C24.1647 11.1256 24.178 11.1555 24.192 11.1851C24.206 11.2147 24.2207 11.2439 24.2362 11.2728C24.2516 11.3017 24.2677 11.3301 24.2845 11.3582C24.3014 11.3863 24.3189 11.414 24.3371 11.4412C24.3552 11.4684 24.3741 11.4951 24.3936 11.5214C24.4131 11.5477 24.4332 11.5735 24.454 11.5988C24.4747 11.6241 24.4961 11.6489 24.5181 11.6731C24.5401 11.6974 24.5626 11.7211 24.5858 11.7442C24.6089 11.7674 24.6326 11.7899 24.6569 11.8119C24.6811 11.8339 24.7059 11.8553 24.7312 11.8761C24.7565 11.8968 24.7823 11.9169 24.8086 11.9364C24.8349 11.9559 24.8616 11.9748 24.8888 11.993C24.9161 12.0111 24.9437 12.0287 24.9718 12.0455C24.9999 12.0623 25.0283 12.0784 25.0572 12.0939C25.0861 12.1093 25.1153 12.124 25.1449 12.138C25.1745 12.152 25.2044 12.1653 25.2346 12.1778C25.2649 12.1903 25.2954 12.2021 25.3262 12.2131C25.357 12.2241 25.3881 12.2344 25.4194 12.2439C25.4507 12.2534 25.4823 12.2621 25.514 12.2701C25.5458 12.278 25.5777 12.2852 25.6098 12.2916C25.6419 12.298 25.6742 12.3036 25.7065 12.3084C25.7389 12.3132 25.7714 12.3172 25.804 12.3204C25.8365 12.3236 25.8692 12.326 25.9019 12.3276C25.9345 12.3292 25.9673 12.33 26 12.33C26.0327 12.33 26.0654 12.3292 26.0981 12.3276C26.1308 12.326 26.1634 12.3236 26.196 12.3204C26.2286 12.3172 26.2611 12.3132 26.2935 12.3084C26.3258 12.3036 26.3581 12.298 26.3902 12.2916C26.4223 12.2852 26.4542 12.278 26.4859 12.2701C26.5177 12.2621 26.5492 12.2534 26.5806 12.2439C26.6119 12.2344 26.643 12.2241 26.6738 12.2131C26.7046 12.2021 26.7351 12.1903 26.7654 12.1778C26.7956 12.1653 26.8255 12.152 26.8551 12.138C26.8847 12.124 26.9139 12.1093 26.9428 12.0939C26.9717 12.0784 27.0001 12.0623 27.0282 12.0455C27.0563 12.0287 27.0839 12.0111 27.1111 11.993C27.1384 11.9748 27.1651 11.9559 27.1914 11.9364C27.2177 11.9169 27.2435 11.8968 27.2688 11.8761C27.2941 11.8553 27.3189 11.8339 27.3431 11.8119C27.3674 11.7899 27.3911 11.7674 27.4142 11.7442C27.4374 11.7211 27.4599 11.6974 27.4819 11.6731C27.5039 11.6489 27.5253 11.6241 27.546 11.5988C27.5668 11.5735 27.5869 11.5477 27.6064 11.5214C27.6259 11.4951 27.6448 11.4684 27.6629 11.4412C27.6811 11.414 27.6986 11.3863 27.7155 11.3582C27.7323 11.3301 27.7484 11.3017 27.7638 11.2728C27.7793 11.2439 27.794 11.2147 27.808 11.1851C27.822 11.1555 27.8352 11.1256 27.8478 11.0954C27.8603 11.0651 27.8721 11.0346 27.8831 11.0038C27.8941 10.973 27.9044 10.9419 27.9139 10.9106C27.9234 10.8793 27.9321 10.8477 27.9401 10.816C27.948 10.7842 27.9552 10.7523 27.9616 10.7202C27.968 10.6881 27.9736 10.6559 27.9784 10.6235C27.9832 10.5911 27.9872 10.5586 27.9904 10.526C27.9936 10.4935 27.996 10.4608 27.9976 10.4282C27.9992 10.3955 28 10.3628 28 10.33C28 10.2973 27.9992 10.2646 27.9976 10.2319C27.996 10.1992 27.9936 10.1666 27.9904 10.134C27.9872 10.1014 27.9832 10.0689 27.9784 10.0366C27.9736 10.0042 27.968 9.97194 27.9616 9.93983C27.9552 9.90773 27.948 9.87581 27.9401 9.84406C27.9321 9.81231 27.9234 9.78077 27.9139 9.74944C27.9044 9.71812 27.8941 9.68705 27.8831 9.65623C27.8721 9.62542 27.8603 9.59489 27.8478 9.56464C27.8352 9.5344 27.822 9.50449 27.808 9.4749C27.794 9.44532 27.7793 9.41609 27.7638 9.38722C27.7484 9.35836 27.7323 9.32989 27.7155 9.30181C27.6986 9.27373 27.6811 9.24608 27.6629 9.21886C27.6448 9.19166 27.6259 9.16491 27.6064 9.13861C27.5869 9.11232 27.5668 9.08652 27.546 9.06122C27.5253 9.03593 27.5039 9.01115 27.4819 8.9869C27.4599 8.96264 27.4374 8.93893 27.4142 8.91579C27.3911 8.89265 27.3674 8.87009 27.3431 8.84811C27.3189 8.82612 27.2941 8.80475 27.2688 8.78398C27.2435 8.76323 27.2177 8.7431 27.1914 8.7236C27.1651 8.7041 27.1384 8.68526 27.1111 8.66707C27.0839 8.64889 27.0563 8.63138 27.0282 8.61455C27.0001 8.59772 26.9717 8.5816 26.9428 8.56617C26.9139 8.55074 26.8847 8.53603 26.8551 8.52204C26.8255 8.50804 26.7956 8.49478 26.7654 8.48224C26.7351 8.46973 26.7046 8.45796 26.6738 8.44692C26.643 8.43589 26.6119 8.42563 26.5806 8.41613C26.5492 8.40663 26.5177 8.3979 26.4859 8.38995C26.4542 8.38199 26.4223 8.37482 26.3902 8.36843C26.3581 8.36206 26.3258 8.35646 26.2935 8.35165C26.2611 8.34685 26.2286 8.34285 26.196 8.33965C26.1634 8.33643 26.1308 8.33402 26.0981 8.33241C26.0654 8.33081 26.0327 8.33002 26 8.33002Z"   fill="#1D252F" >
</path>
</svg>
