<svg xmlns="http://www.w3.org/2000/svg" xmlns:xlink="http://www.w3.org/1999/xlink" width="40" height="40" viewBox="0 0 40 40" fill="none">
<rect  x="0.5" y="0.5" width="39" height="39" rx="19.5"    fill="#FFFFFF" >
</rect>
<path   fill="rgba(241, 241, 241, 1)"  d="M20 0C31.0457 0 40 8.95431 40 20C40 31.0457 31.0457 40 20 40C8.95431 40 0 31.0457 0 20Q0 11.7157 5.85786 5.85787Q11.7157 0 20 1.90735e-06L20 0ZM20 1Q12.1299 1.00001 6.56497 6.56497Q1 12.1299 1 20C1 30.4934 9.50659 39 20 39C30.4934 39 39 30.4934 39 20C39 9.50659 30.4934 1 20 1L20 1Z">
</path>
<path d="M26.5022 13.559L14.477 13.559C13.9339 13.559 13.4937 13.9992 13.4937 14.5423C13.4937 15.0854 13.9339 15.5257 14.477 15.5257L26.5022 15.5257C27.0453 15.5257 27.4855 15.0854 27.4855 14.5423C27.4855 13.9992 27.0453 13.559 26.5022 13.559ZM21.2132 16.5444C21.1902 16.5214 21.166 16.4996 21.1409 16.479C21.1298 16.4699 21.1179 16.4619 21.1065 16.4533C21.0923 16.4427 21.0784 16.4317 21.0636 16.4218C21.0498 16.4126 21.0354 16.4045 21.0212 16.396C21.0079 16.3881 20.9948 16.3797 20.9811 16.3724C20.9666 16.3646 20.9517 16.358 20.9368 16.351C20.9226 16.3443 20.9085 16.3372 20.8939 16.3311C20.8795 16.3251 20.8648 16.3204 20.8502 16.3151C20.8345 16.3094 20.8191 16.3035 20.8031 16.2986C20.7884 16.2942 20.7735 16.291 20.7587 16.2872C20.7424 16.2831 20.7264 16.2786 20.7098 16.2753C20.6927 16.2719 20.6754 16.2699 20.6581 16.2674C20.6437 16.2653 20.6294 16.2626 20.6147 16.2611C20.5825 16.258 20.5502 16.2562 20.5179 16.2562C20.5178 16.2562 20.5177 16.2562 20.5177 16.2562C20.513 16.2562 20.5083 16.2568 20.5036 16.2569C20.2473 16.2533 19.9898 16.3487 19.7942 16.5443L14.8212 21.5172C14.4372 21.9012 14.4372 22.5239 14.8212 22.9079C15.0132 23.1 15.2649 23.196 15.5166 23.196C15.7682 23.196 16.0199 23.1 16.2119 22.9079L19.5343 19.5855L19.5343 26.4551C19.5343 26.9982 19.9746 27.4385 20.5177 27.4385C21.0608 27.4385 21.501 26.9982 21.501 26.4551L21.501 19.6136L24.7954 22.9079C24.9874 23.1 25.2391 23.196 25.4907 23.196C25.7424 23.196 25.994 23.1 26.186 22.9079C26.5701 22.5239 26.5701 21.9012 26.186 21.5172L21.2132 16.5444Z"   fill="#383838" >
</path>
</svg>
