<svg xmlns="http://www.w3.org/2000/svg" xmlns:xlink="http://www.w3.org/1999/xlink" width="18" height="18" viewBox="0 0 18 18" fill="none">
<path d="M4.71094 5.79199C4.41969 5.79199 4.18359 5.5559 4.18359 5.26465C4.18359 4.9734 4.41969 4.7373 4.71094 4.7373L13.2891 4.7373C13.5803 4.7373 13.8164 4.9734 13.8164 5.26465C13.8164 5.5559 13.5803 5.79199 13.2891 5.79199L4.71094 5.79199ZM4.71094 9.52734C4.41969 9.52734 4.18359 9.29125 4.18359 9C4.18359 8.70875 4.41969 8.47266 4.71094 8.47266L11.2148 8.47266C11.5061 8.47266 11.7422 8.70875 11.7422 9C11.7422 9.29125 11.5061 9.52734 11.2148 9.52734L4.71094 9.52734ZM4.71094 13.2627C4.41969 13.2627 4.18359 13.0266 4.18359 12.7354C4.18359 12.4441 4.41969 12.208 4.71094 12.208L8.92969 12.208C9.22094 12.208 9.45703 12.4441 9.45703 12.7354C9.45703 13.0266 9.22094 13.2627 8.92969 13.2627L4.71094 13.2627Z"   fill="#333333" >
</path>
<path d="M14.3139 11.5975L13.1722 10.9383L11.1546 14.4328C11.1507 14.4396 11.1469 14.4466 11.1432 14.4536C11.1396 14.4606 11.1361 14.4677 11.1328 14.4749C11.1295 14.4821 11.1263 14.4893 11.1233 14.4967C11.1203 14.504 11.1175 14.5114 11.1148 14.5188C11.1121 14.5263 11.1096 14.5338 11.1073 14.5414C11.105 14.5489 11.1028 14.5565 11.1008 14.5642C11.0989 14.5719 11.097 14.5796 11.0954 14.5873C11.0938 14.5951 11.0923 14.6028 11.091 14.6106C11.0897 14.6185 11.0886 14.6263 11.0877 14.6341C11.0867 14.642 11.086 14.6499 11.0854 14.6578C11.0848 14.6657 11.0844 14.6736 11.0842 14.6815C11.084 14.6894 11.0839 14.6973 11.0841 14.7052C11.0842 14.7131 11.0845 14.721 11.085 14.7289C11.0855 14.7368 11.0861 14.7447 11.087 14.7526C11.0878 14.7605 11.0888 14.7683 11.09 14.7761C11.0912 14.784 11.0926 14.7918 11.0942 14.7995L11.2505 15.5839L12.0089 15.3274C12.0163 15.3249 12.0238 15.3222 12.0312 15.3193C12.0386 15.3164 12.0459 15.3134 12.0531 15.3102C12.0604 15.307 12.0676 15.3036 12.0747 15.3001C12.0817 15.2966 12.0887 15.2929 12.0957 15.2891C12.1026 15.2852 12.1095 15.2812 12.1162 15.2771C12.1229 15.2729 12.1296 15.2686 12.1362 15.2642C12.1427 15.2597 12.1491 15.2551 12.1555 15.2504C12.1618 15.2456 12.1681 15.2408 12.1742 15.2357C12.1803 15.2307 12.1863 15.2255 12.1923 15.2203C12.1981 15.215 12.2039 15.2096 12.2096 15.204C12.2152 15.1984 12.2207 15.1928 12.2261 15.187C12.2315 15.1811 12.2368 15.1752 12.2419 15.1692C12.247 15.1631 12.252 15.157 12.2569 15.1507C12.2617 15.1445 12.2664 15.1381 12.271 15.1316C12.2756 15.1251 12.28 15.1186 12.2843 15.1119C12.2885 15.1052 12.2926 15.0984 12.2966 15.0916L14.3139 11.5975ZM14.8413 10.6841L15.1137 10.2122C15.2593 9.95995 15.1729 9.63744 14.9207 9.49182L14.6924 9.35999C14.4401 9.21435 14.1176 9.30078 13.972 9.55299L13.6995 10.0249L14.8413 10.6841ZM15.2197 8.44659L15.448 8.57843C16.2047 9.0153 16.464 9.98285 16.0271 10.7395L13.21 15.6189C13.1981 15.6395 13.1857 15.6598 13.173 15.6798C13.1601 15.6999 13.1469 15.7196 13.1332 15.739C13.1195 15.7585 13.1054 15.7776 13.0909 15.7964C13.0763 15.8152 13.0613 15.8336 13.0459 15.8517C13.0306 15.8699 13.0148 15.8876 12.9986 15.905C12.9824 15.9224 12.9658 15.9395 12.9489 15.9561C12.932 15.9728 12.9146 15.9891 12.897 16.005C12.8793 16.0208 12.8612 16.0363 12.8429 16.0514C12.8245 16.0664 12.8057 16.0811 12.7867 16.0953C12.7677 16.1096 12.7483 16.1233 12.7287 16.1367C12.709 16.1501 12.689 16.163 12.6688 16.1754C12.6485 16.1878 12.628 16.1999 12.6073 16.2114C12.5865 16.2229 12.5654 16.234 12.5441 16.2445C12.5229 16.2551 12.5013 16.2652 12.4796 16.2748C12.4579 16.2844 12.4359 16.2936 12.4138 16.3022C12.3916 16.3108 12.3693 16.3189 12.3468 16.3265L11.0196 16.7754C10.7182 16.8774 10.3957 16.6911 10.3335 16.3789L10.0598 15.0057C10.0552 14.9824 10.0511 14.959 10.0475 14.9355C10.0439 14.9121 10.0408 14.8885 10.0383 14.8649C10.0358 14.8413 10.0338 14.8176 10.0323 14.794C10.0308 14.7702 10.0299 14.7465 10.0295 14.7228C10.0291 14.699 10.0293 14.6753 10.0299 14.6516C10.0306 14.6278 10.0318 14.6041 10.0336 14.5804C10.0353 14.5568 10.0376 14.5331 10.0404 14.5096C10.0432 14.486 10.0465 14.4625 10.0504 14.439C10.0542 14.4156 10.0586 14.3923 10.0635 14.3691C10.0685 14.3458 10.0739 14.3227 10.0798 14.2997C10.0858 14.2767 10.0923 14.2539 10.0992 14.2312C10.1062 14.2085 10.1137 14.186 10.1217 14.1636C10.1297 14.1413 10.1382 14.1191 10.1472 14.0971C10.1562 14.0751 10.1657 14.0534 10.1757 14.0318C10.1856 14.0103 10.1961 13.989 10.207 13.9679C10.218 13.9468 10.2294 13.926 10.2412 13.9054L13.0586 9.02567C13.4955 8.26898 14.463 8.00972 15.2197 8.44659Z"   fill="#333333" >
</path>
<path d="M8.73633 15.8203C9.02758 15.8203 9.26367 16.0564 9.26367 16.3477C9.26367 16.6389 9.02758 16.875 8.73633 16.875L3.30469 16.875C2.43095 16.875 1.72266 16.1667 1.72266 15.293L1.72266 2.70703C1.72266 1.83329 2.43095 1.125 3.30469 1.125L14.6953 1.125C15.5691 1.125 16.2773 1.83329 16.2773 2.70703L16.2773 6.90319C16.2773 7.19443 16.0413 7.43054 15.75 7.43054C15.4587 7.43054 15.2227 7.19443 15.2227 6.90319L15.2227 2.70703C15.2227 2.41578 14.9866 2.17969 14.6953 2.17969L3.30469 2.17969C3.01344 2.17969 2.77734 2.41578 2.77734 2.70703L2.77734 15.293C2.77734 15.5842 3.01344 15.8203 3.30469 15.8203L8.73633 15.8203Z"   fill="#333333" >
</path>
</svg>
