<svg xmlns="http://www.w3.org/2000/svg" xmlns:xlink="http://www.w3.org/1999/xlink" width="13.4000244140625" height="15.77001953125" viewBox="0 0 13.4000244140625 15.77001953125" fill="none">
<path d="M12.85 15.6199L0.550024 15.6199C0.326746 15.6199 0.150024 15.4432 0.150024 15.2199L0.150024 0.549902C0.150024 0.326624 0.326746 0.149902 0.550024 0.149902L12.85 0.149902C13.0733 0.149902 13.25 0.326624 13.25 0.549902L13.25 15.2199C13.25 15.4432 13.0733 15.6199 12.85 15.6199ZM0.950024 14.8199L12.45 14.8199L12.45 0.949902L0.950024 0.949902L0.950024 14.8199ZM8.10002 8.7599C7.0554 8.7599 6.21002 7.91453 6.21002 6.8699C6.21002 5.82528 7.0554 4.9799 8.10002 4.9799C9.14465 4.9799 9.99002 5.82528 9.99002 6.8699C9.99002 7.91453 9.14465 8.7599 8.10002 8.7599ZM8.10002 5.7799C7.49398 5.7799 7.01002 6.26386 7.01002 6.8699C7.01002 7.47594 7.49398 7.9599 8.10002 7.9599C8.70607 7.9599 9.19002 7.47594 9.19002 6.8699C9.19002 6.26386 8.70607 5.7799 8.10002 5.7799ZM5.29002 13.0699C4.2454 13.0699 3.40002 12.2245 3.40002 11.1799C3.40002 10.1353 4.2454 9.2899 5.29002 9.2899C6.33465 9.2899 7.18002 10.1353 7.18002 11.1799C7.18002 12.2245 6.33465 13.0699 5.29002 13.0699ZM5.29002 10.0899C4.68398 10.0899 4.19002 10.5739 4.19002 11.1799C4.19002 11.7859 4.68398 12.2699 5.29002 12.2699C5.89607 12.2699 6.38002 11.7859 6.38002 11.1799C6.38002 10.5739 5.89607 10.0899 5.29002 10.0899ZM6.43002 7.2699L2.74002 7.2699C2.51675 7.2699 2.34002 7.09318 2.34002 6.8699C2.34002 6.64662 2.51675 6.4699 2.74002 6.4699L6.43002 6.4699C6.6533 6.4699 6.83002 6.64662 6.83002 6.8699C6.83002 7.09318 6.6533 7.2699 6.43002 7.2699ZM10.65 11.5799L6.96002 11.5799C6.73675 11.5799 6.56002 11.4032 6.56002 11.1799C6.56002 10.9566 6.73675 10.7799 6.96002 10.7799L10.65 10.7799C10.8733 10.7799 11.05 10.9566 11.05 11.1799C11.05 11.4032 10.8733 11.5799 10.65 11.5799ZM10.65 7.1799L10.21 7.1799C9.98675 7.1799 9.81002 7.00318 9.81002 6.7799C9.81002 6.55662 9.98675 6.3899 10.21 6.3899L10.65 6.3899C10.8733 6.3899 11.05 6.55662 11.05 6.7799C11.05 7.00318 10.8733 7.1799 10.65 7.1799ZM3.18002 11.5799L2.74002 11.5799C2.51675 11.5799 2.34002 11.4032 2.34002 11.1799C2.34002 10.9566 2.51675 10.7799 2.74002 10.7799L3.18002 10.7799C3.4033 10.7799 3.58002 10.9566 3.58002 11.1799C3.58002 11.4032 3.4033 11.5799 3.18002 11.5799ZM8.45002 2.9599L4.93002 2.9599C4.70675 2.9599 4.54002 2.79318 4.54002 2.5699C4.54002 2.34662 4.70675 2.1699 4.93002 2.1699L8.45002 2.1699C8.6733 2.1699 8.85002 2.34662 8.85002 2.5699C8.85002 2.79318 8.6733 2.9599 8.45002 2.9599Z" stroke="rgba(0, 0, 0, 1)" stroke-width="0.3"      fill="#333333" >
</path>
</svg>
