<svg xmlns="http://www.w3.org/2000/svg" xmlns:xlink="http://www.w3.org/1999/xlink" width="16" height="16" viewBox="0 0 16 16" fill="none">
<path d="M11.6595 3.17035C9.31917 0.829609 5.51092 0.829609 3.17058 3.17035C0.829857 5.51066 0.829857 9.31893 3.17058 11.6592C5.51092 14 9.31919 14 11.6595 11.6592C14.0002 9.31893 14.0002 5.51066 11.6595 3.17035ZM11.0503 11.05C9.04582 13.0549 5.78383 13.0545 3.77982 11.05C1.77491 9.04556 1.77491 5.78401 3.77982 3.77933C5.78384 1.77508 9.04583 1.77465 11.0503 3.77933C13.0547 5.78358 13.0547 9.046 11.0503 11.05Z"   fill="#231F20" >
</path>
<path d="M9.80945 7.70163L6.9522 7.70163L6.9526 4.54069C6.9526 4.33095 6.78117 4.15991 6.57123 4.15991C6.36132 4.15991 6.19068 4.33095 6.19068 4.54069L6.19068 7.80102C6.19068 7.8126 6.17663 8.08511 6.3584 8.27888C6.47394 8.40104 6.63627 8.46315 6.8458 8.46315L9.80946 8.4636C10.0194 8.4636 10.1904 8.29296 10.1904 8.0826C10.1904 7.87349 10.0198 7.70287 9.80945 7.70163Z"   fill="#231F20" >
</path>
</svg>
