<svg xmlns="http://www.w3.org/2000/svg" xmlns:xlink="http://www.w3.org/1999/xlink" width="18" height="17.82177734375" viewBox="0 0 18 17.82177734375" fill="none">
<path d="M17.2754 16.6571L0.996258 16.6571L0.996258 3.05972C0.996258 2.81384 0.796924 2.6145 0.551041 2.6145L0.53323 2.6145C0.287345 2.6145 0.0880127 2.81384 0.0880127 3.05972L0.0880127 17.1023L0.0880127 17.1201L0.0880127 17.129C0.0880127 17.3749 0.287345 17.5743 0.53323 17.5743L0.551041 17.5743C0.581491 17.5743 0.611232 17.5711 0.639974 17.5652L17.2754 17.5652C17.5212 17.5652 17.7207 17.366 17.7207 17.1201L17.7207 17.1023C17.7207 16.8564 17.5212 16.6571 17.2754 16.6571Z"   fill="#333333" >
</path>
<path d="M3.58548 13.0271C3.73484 12.8729 4.47433 11.919 5.36635 10.8545C6.13882 9.93257 7.08073 9.09169 7.58651 9.08546C8.54818 9.07358 9.23679 11.175 10.4715 11.175C11.6232 11.175 12.5726 9.92988 13.5109 8.64617C14.0838 7.8624 14.6132 6.88233 14.8041 6.50233L16.5791 7.53527L16.0682 4.58979C16.0127 4.25169 15.7192 3.99365 15.3654 3.99365C15.2729 3.99365 15.1846 4.01148 15.1034 4.04358L12.3044 5.04767L14.0587 6.06854C13.828 6.43123 13.5354 6.93887 12.9291 7.8507C12.124 9.0616 11.1364 10.2489 10.5087 10.2489C9.69981 10.2489 9.09432 8.15939 7.58522 8.15939C6.7844 8.15939 5.80319 8.97769 4.89145 9.99962C3.85685 11.1593 2.93739 12.3667 2.93739 12.3667C2.51696 12.9084 3.23463 13.3894 3.58548 13.0271Z"   fill="#333333" >
</path>
</svg>
