<svg xmlns="http://www.w3.org/2000/svg" xmlns:xlink="http://www.w3.org/1999/xlink" width="16" height="16" viewBox="0 0 16 16" fill="none">
<path d="M12.9687 8.00005C12.382 10.0894 10.326 11.6667 8 11.6667C5.67333 11.6667 3.61733 10.0887 3.03133 8.00005C3.618 5.91072 5.674 4.33337 8 4.33337C10.3267 4.33337 12.3827 5.91072 12.9687 8.00005ZM14 8.00005C13.3933 5.32805 10.8553 3.33337 8 3.33337C5.14467 3.33337 2.60667 5.32805 2 8.00005C2.60667 10.672 5.14467 12.6667 8 12.6667C10.8553 12.6667 13.3933 10.672 14 8.00005Z"   fill="#659400" >
</path>
<path d="M8 9C7.98364 9 7.96728 8.99959 7.95094 8.9988C7.93458 8.998 7.91827 8.9968 7.90198 8.99519C7.88569 8.99358 7.86945 8.99158 7.85327 8.98917C7.83708 8.98678 7.82095 8.98398 7.80491 8.98078C7.78886 8.97759 7.77289 8.97402 7.75702 8.97003C7.74114 8.96605 7.72538 8.96169 7.70972 8.95694C7.69405 8.95219 7.67852 8.94706 7.66311 8.94155C7.6477 8.93603 7.63244 8.93014 7.61731 8.92387C7.6022 8.91761 7.58723 8.91098 7.57244 8.90398C7.55765 8.897 7.54304 8.88964 7.52861 8.88192C7.51417 8.8742 7.49993 8.86614 7.48589 8.85773C7.47186 8.84931 7.45804 8.84056 7.44442 8.83147C7.43082 8.82238 7.41744 8.81295 7.4043 8.8032C7.39115 8.79345 7.37825 8.78339 7.36561 8.77302C7.35295 8.76262 7.34056 8.75194 7.32844 8.74095C7.31631 8.72997 7.30446 8.71869 7.29289 8.70711C7.28132 8.69553 7.27004 8.68369 7.25905 8.67156C7.24806 8.65944 7.23737 8.64705 7.22698 8.63439C7.21661 8.62175 7.20655 8.60884 7.1968 8.5957C7.18705 8.58256 7.17762 8.56917 7.16853 8.55556C7.15944 8.54195 7.15068 8.52814 7.14227 8.51411C7.13386 8.50006 7.1258 8.48583 7.11808 8.47139C7.11036 8.45697 7.103 8.44234 7.09602 8.42755C7.08902 8.41275 7.08239 8.3978 7.07613 8.38269C7.06985 8.36756 7.06396 8.3523 7.05845 8.33689C7.05294 8.32148 7.04781 8.30595 7.04306 8.29028C7.03831 8.27462 7.03395 8.25886 7.02997 8.24298C7.02599 8.22711 7.02241 8.21114 7.01922 8.19509C7.01602 8.17905 7.01322 8.16292 7.01083 8.14673C7.00842 8.13055 7.00642 8.11431 7.00481 8.09802C7.00321 8.08173 7.002 8.06542 7.0012 8.04906C7.0004 8.03272 7 8.01636 7 8C7 7.98364 7.0004 7.96728 7.0012 7.95094C7.002 7.93458 7.00321 7.91827 7.00481 7.90198C7.00642 7.88569 7.00842 7.86945 7.01083 7.85327C7.01322 7.83708 7.01602 7.82095 7.01922 7.80491C7.02241 7.78886 7.02599 7.77289 7.02997 7.75702C7.03395 7.74114 7.03831 7.72538 7.04306 7.70972C7.04781 7.69405 7.05294 7.67852 7.05845 7.66311C7.06396 7.6477 7.06985 7.63244 7.07613 7.61731C7.08239 7.6022 7.08902 7.58723 7.09602 7.57244C7.103 7.55765 7.11036 7.54304 7.11808 7.52861C7.1258 7.51417 7.13386 7.49993 7.14227 7.48589C7.15068 7.47186 7.15944 7.45804 7.16853 7.44442C7.17762 7.43082 7.18705 7.41744 7.1968 7.4043C7.20655 7.39115 7.21661 7.37825 7.22698 7.36561C7.23737 7.35295 7.24806 7.34056 7.25905 7.32844C7.27004 7.31631 7.28132 7.30446 7.29289 7.29289C7.30446 7.28132 7.31631 7.27004 7.32844 7.25905C7.34056 7.24806 7.35295 7.23737 7.36561 7.22698C7.37825 7.21661 7.39115 7.20655 7.4043 7.1968C7.41744 7.18705 7.43082 7.17762 7.44442 7.16853C7.45804 7.15944 7.47186 7.15068 7.48589 7.14227C7.49993 7.13386 7.51417 7.1258 7.52861 7.11808C7.54304 7.11036 7.55765 7.103 7.57244 7.09602C7.58723 7.08902 7.6022 7.08239 7.61731 7.07613C7.63244 7.06985 7.6477 7.06396 7.66311 7.05845C7.67852 7.05294 7.69405 7.04781 7.70972 7.04306C7.72538 7.03831 7.74114 7.03395 7.75702 7.02997C7.77289 7.02599 7.78886 7.02241 7.80491 7.01922C7.82095 7.01602 7.83708 7.01322 7.85327 7.01083C7.86945 7.00842 7.88569 7.00642 7.90198 7.00481C7.91827 7.00321 7.93458 7.002 7.95094 7.0012C7.96728 7.0004 7.98364 7 8 7C8.01636 7 8.03272 7.0004 8.04906 7.0012C8.06542 7.002 8.08173 7.00321 8.09802 7.00481C8.11431 7.00642 8.13055 7.00842 8.14673 7.01083C8.16292 7.01322 8.17905 7.01602 8.19509 7.01922C8.21114 7.02241 8.22711 7.02599 8.24298 7.02997C8.25886 7.03395 8.27462 7.03831 8.29028 7.04306C8.30595 7.04781 8.32148 7.05294 8.33689 7.05845C8.3523 7.06396 8.36756 7.06985 8.38269 7.07613C8.3978 7.08239 8.41275 7.08902 8.42755 7.09602C8.44234 7.103 8.45697 7.11036 8.47139 7.11808C8.48583 7.1258 8.50006 7.13386 8.51411 7.14227C8.52814 7.15068 8.54197 7.15944 8.55558 7.16853C8.56919 7.17762 8.58256 7.18705 8.5957 7.1968C8.60884 7.20655 8.62175 7.21661 8.63439 7.22698C8.64705 7.23737 8.65944 7.24806 8.67156 7.25905C8.68369 7.27004 8.69553 7.28132 8.70711 7.29289C8.71869 7.30446 8.72997 7.31631 8.74095 7.32844C8.75194 7.34056 8.76262 7.35295 8.77302 7.36561C8.78339 7.37825 8.79345 7.39115 8.8032 7.4043C8.81295 7.41744 8.82238 7.43082 8.83147 7.44442C8.84056 7.45804 8.84931 7.47186 8.85773 7.48589C8.86614 7.49993 8.8742 7.51417 8.88192 7.52861C8.88964 7.54304 8.897 7.55765 8.90398 7.57244C8.91098 7.58723 8.91761 7.6022 8.92387 7.61731C8.93014 7.63244 8.93603 7.6477 8.94155 7.66311C8.94706 7.67852 8.95219 7.69405 8.95694 7.70972C8.96169 7.72538 8.96605 7.74114 8.97003 7.75702C8.97402 7.77289 8.97759 7.78886 8.98078 7.80491C8.98398 7.82095 8.98678 7.83708 8.98917 7.85327C8.99158 7.86945 8.99358 7.88569 8.99519 7.90198C8.9968 7.91827 8.998 7.93458 8.9988 7.95094C8.99959 7.96728 9 7.98364 9 8C9 8.01636 8.99959 8.03272 8.9988 8.04906C8.998 8.06542 8.9968 8.08173 8.99519 8.09802C8.99358 8.11431 8.99158 8.13055 8.98917 8.14673C8.98678 8.16292 8.98398 8.17905 8.98078 8.19509C8.97759 8.21114 8.97402 8.22711 8.97003 8.24298C8.96605 8.25886 8.96169 8.27462 8.95694 8.29028C8.95219 8.30595 8.94706 8.32148 8.94155 8.33689C8.93603 8.3523 8.93014 8.36756 8.92387 8.38269C8.91761 8.3978 8.91098 8.41275 8.90398 8.42755C8.897 8.44234 8.88964 8.45697 8.88192 8.47139C8.8742 8.48583 8.86614 8.50006 8.85773 8.51411C8.84931 8.52814 8.84056 8.54197 8.83147 8.55558C8.82238 8.56919 8.81295 8.58256 8.8032 8.5957C8.79345 8.60884 8.78339 8.62175 8.77302 8.63439C8.76262 8.64705 8.75194 8.65944 8.74095 8.67156C8.72997 8.68369 8.71869 8.69553 8.70711 8.70711C8.69553 8.71869 8.68369 8.72997 8.67156 8.74095C8.65944 8.75194 8.64705 8.76262 8.63439 8.77302C8.62175 8.78339 8.60884 8.79345 8.5957 8.8032C8.58256 8.81295 8.56917 8.82238 8.55556 8.83147C8.54195 8.84056 8.52814 8.84931 8.51411 8.85773C8.50006 8.86614 8.48583 8.8742 8.47139 8.88192C8.45697 8.88964 8.44234 8.897 8.42755 8.90398C8.41275 8.91098 8.3978 8.91761 8.38269 8.92387C8.36756 8.93014 8.3523 8.93603 8.33689 8.94155C8.32148 8.94706 8.30595 8.95219 8.29028 8.95694C8.27462 8.96169 8.25886 8.96605 8.24298 8.97003C8.22711 8.97402 8.21114 8.97759 8.19509 8.98078C8.17905 8.98398 8.16292 8.98678 8.14673 8.98917C8.13055 8.99158 8.11431 8.99358 8.09802 8.99519C8.08173 8.9968 8.06542 8.998 8.04906 8.9988C8.03272 8.99959 8.01636 9 8 9ZM8 10C8.03273 10 8.06544 9.9992 8.09814 9.99759C8.13083 9.99598 8.16345 9.99358 8.19603 9.99038C8.22861 9.98717 8.26108 9.98316 8.29345 9.97836C8.32584 9.97356 8.35808 9.96797 8.39017 9.96158C8.42228 9.95519 8.4542 9.94802 8.48595 9.94006C8.5177 9.93211 8.54923 9.92338 8.58056 9.91388C8.61189 9.90438 8.64295 9.89411 8.67378 9.88309C8.70459 9.87206 8.73512 9.86028 8.76536 9.84777C8.79559 9.83523 8.82552 9.82197 8.85511 9.80798C8.8847 9.79398 8.91394 9.77927 8.9428 9.76384C8.97166 9.74842 9.00012 9.73228 9.0282 9.71545C9.05628 9.69863 9.08392 9.68112 9.11114 9.66294C9.13836 9.64475 9.16511 9.62591 9.19139 9.60642C9.21769 9.58692 9.24348 9.56678 9.26878 9.54602C9.29408 9.52525 9.31886 9.50389 9.34313 9.48191C9.36737 9.45992 9.39108 9.43736 9.41422 9.41422C9.43736 9.39108 9.45992 9.36737 9.48191 9.34313C9.50389 9.31886 9.52525 9.29408 9.54602 9.26878C9.56678 9.24348 9.58692 9.21769 9.60642 9.19139C9.62591 9.16511 9.64475 9.13836 9.66294 9.11114C9.68112 9.08392 9.69863 9.05628 9.71545 9.0282C9.73228 9.00012 9.74842 8.97166 9.76384 8.9428C9.77927 8.91394 9.79398 8.8847 9.80798 8.85511C9.82197 8.82552 9.83523 8.79559 9.84777 8.76536C9.86028 8.73512 9.87206 8.70459 9.88309 8.67378C9.89411 8.64295 9.90438 8.61189 9.91388 8.58056C9.92339 8.54923 9.93211 8.5177 9.94006 8.48595C9.94802 8.4542 9.95519 8.42228 9.96158 8.39017C9.96797 8.35808 9.97356 8.32584 9.97836 8.29345C9.98316 8.26108 9.98717 8.22861 9.99038 8.19603C9.99358 8.16345 9.99598 8.13083 9.99759 8.09814C9.9992 8.06544 10 8.03273 10 8C10 7.96727 9.9992 7.93456 9.99759 7.90186C9.99598 7.86917 9.99358 7.83655 9.99038 7.80397C9.98717 7.77139 9.98316 7.73892 9.97836 7.70653C9.97356 7.67416 9.96797 7.64192 9.96158 7.60981C9.95519 7.57772 9.94802 7.5458 9.94006 7.51405C9.93211 7.48229 9.92338 7.45075 9.91388 7.41944C9.90438 7.38811 9.89411 7.35704 9.88309 7.32622C9.87206 7.29541 9.86028 7.26487 9.84777 7.23462C9.83523 7.20439 9.82197 7.17447 9.80798 7.14489C9.79398 7.1153 9.77927 7.08607 9.76384 7.0572C9.74842 7.02834 9.73228 6.99987 9.71545 6.9718C9.69863 6.94372 9.68112 6.91608 9.66294 6.88886C9.64475 6.86164 9.62591 6.83489 9.60642 6.80859C9.58692 6.78231 9.56678 6.75652 9.54602 6.73122C9.52525 6.70592 9.50389 6.68114 9.48191 6.65688C9.45992 6.63263 9.43736 6.60893 9.41422 6.58578C9.39108 6.56264 9.36737 6.54007 9.34313 6.51809C9.31886 6.49611 9.29408 6.47475 9.26878 6.45398C9.24348 6.43321 9.21769 6.41308 9.19139 6.39358C9.16511 6.37409 9.13836 6.35525 9.11114 6.33706C9.08392 6.31887 9.05628 6.30137 9.0282 6.28455C9.00012 6.26771 8.97166 6.25158 8.9428 6.23616C8.91394 6.22073 8.8847 6.20602 8.85511 6.19202C8.82552 6.17803 8.79559 6.16477 8.76536 6.15223C8.73512 6.13971 8.70459 6.12794 8.67378 6.11691C8.64295 6.10589 8.61189 6.09562 8.58056 6.08612C8.54923 6.07661 8.5177 6.06789 8.48595 6.05994C8.4542 6.05199 8.42228 6.04482 8.39017 6.03842C8.35808 6.03204 8.32584 6.02644 8.29345 6.02164C8.26108 6.01684 8.22861 6.01283 8.19603 6.00962C8.16345 6.00642 8.13083 6.00401 8.09814 6.00241C8.06544 6.0008 8.03273 6 8 6C7.96727 6 7.93456 6.0008 7.90186 6.00241C7.86917 6.00401 7.83655 6.00642 7.80397 6.00962C7.77139 6.01283 7.73892 6.01684 7.70653 6.02164C7.67416 6.02644 7.64192 6.03204 7.60981 6.03842C7.57772 6.04482 7.5458 6.05199 7.51405 6.05994C7.48229 6.06789 7.45075 6.07661 7.41944 6.08612C7.38811 6.09562 7.35704 6.10589 7.32622 6.11691C7.29541 6.12794 7.26487 6.13971 7.23462 6.15223C7.20439 6.16477 7.17447 6.17803 7.14489 6.19202C7.1153 6.20602 7.08607 6.22073 7.0572 6.23616C7.02834 6.25158 6.99987 6.26771 6.9718 6.28455C6.94372 6.30137 6.91608 6.31887 6.88886 6.33706C6.86164 6.35525 6.83489 6.37409 6.80859 6.39358C6.78231 6.41308 6.75652 6.43321 6.73122 6.45398C6.70592 6.47475 6.68114 6.49611 6.65688 6.51809C6.63263 6.54007 6.60893 6.56264 6.58578 6.58578C6.56264 6.60893 6.54007 6.63263 6.51809 6.65688C6.49611 6.68114 6.47475 6.70592 6.45398 6.73122C6.43321 6.75652 6.41308 6.78231 6.39358 6.80859C6.37409 6.83489 6.35525 6.86164 6.33706 6.88886C6.31887 6.91608 6.30137 6.94372 6.28455 6.9718C6.26771 6.99987 6.25158 7.02834 6.23616 7.0572C6.22073 7.08607 6.20602 7.1153 6.19202 7.14489C6.17803 7.17447 6.16477 7.20439 6.15223 7.23462C6.13971 7.26487 6.12794 7.29541 6.11691 7.32622C6.10589 7.35704 6.09562 7.38811 6.08612 7.41944C6.07661 7.45075 6.06789 7.48229 6.05994 7.51405C6.05198 7.5458 6.04481 7.57772 6.03842 7.60981C6.03204 7.64192 6.02644 7.67416 6.02164 7.70653C6.01684 7.73892 6.01283 7.77139 6.00962 7.80397C6.00642 7.83655 6.00401 7.86917 6.00241 7.90186C6.0008 7.93456 6 7.96727 6 8C6 8.03273 6.0008 8.06544 6.00241 8.09814C6.00401 8.13083 6.00642 8.16345 6.00962 8.19603C6.01283 8.22861 6.01684 8.26108 6.02164 8.29345C6.02644 8.32584 6.03204 8.35808 6.03842 8.39017C6.04481 8.42228 6.05198 8.4542 6.05994 8.48595C6.06789 8.5177 6.07661 8.54923 6.08612 8.58056C6.09562 8.61189 6.10589 8.64295 6.11691 8.67378C6.12794 8.70459 6.13971 8.73512 6.15223 8.76536C6.16477 8.79559 6.17803 8.82552 6.19202 8.85511C6.20602 8.8847 6.22073 8.91394 6.23616 8.9428C6.25158 8.97166 6.26771 9.00012 6.28455 9.0282C6.30137 9.05628 6.31887 9.08392 6.33706 9.11114C6.35525 9.13836 6.37409 9.16511 6.39358 9.19139C6.41308 9.21769 6.43321 9.24348 6.45398 9.26878C6.47475 9.29408 6.49611 9.31886 6.51809 9.34313C6.54007 9.36737 6.56264 9.39108 6.58578 9.41422C6.60893 9.43736 6.63263 9.45992 6.65688 9.48191C6.68114 9.50389 6.70592 9.52525 6.73122 9.54602C6.75652 9.56678 6.78231 9.58692 6.80859 9.60642C6.83489 9.62591 6.86164 9.64475 6.88886 9.66294C6.91608 9.68112 6.94372 9.69863 6.9718 9.71545C6.99987 9.73228 7.02834 9.74842 7.0572 9.76384C7.08607 9.77927 7.1153 9.79398 7.14489 9.80798C7.17447 9.82197 7.20439 9.83523 7.23462 9.84777C7.26487 9.86028 7.29541 9.87206 7.32622 9.88309C7.35704 9.89411 7.38811 9.90438 7.41944 9.91388C7.45075 9.92339 7.48229 9.93211 7.51405 9.94006C7.5458 9.94802 7.57772 9.95519 7.60981 9.96158C7.64192 9.96797 7.67416 9.97356 7.70653 9.97836C7.73892 9.98316 7.77139 9.98717 7.80397 9.99038C7.83655 9.99358 7.86917 9.99598 7.90186 9.99759C7.93456 9.9992 7.96727 10 8 10Z"   fill="#659400" >
</path>
</svg>
