<svg xmlns="http://www.w3.org/2000/svg" xmlns:xlink="http://www.w3.org/1999/xlink" width="16.4638671875" height="15.4677734375" viewBox="0 0 16.4638671875 15.4677734375" fill="none">
<path d="M8.48394 7.7146L8.11322 8.11709C8.09392 8.10613 8.0743 8.09582 8.05435 8.08611C8.0344 8.07639 8.01415 8.06732 7.99363 8.05888C7.97312 8.05045 7.95236 8.04266 7.93135 8.03554C7.91035 8.0284 7.88913 8.02194 7.86772 8.01613C7.84629 8.01033 7.82473 8.00522 7.80298 8.00077C7.78124 7.99632 7.75939 7.99258 7.73742 7.9895C7.71544 7.98643 7.6934 7.98405 7.67129 7.98237C7.64916 7.98068 7.62701 7.97969 7.60482 7.9794C7.57306 7.97887 7.54135 7.98003 7.50969 7.98289C7.47805 7.98576 7.44666 7.99031 7.41549 7.99655C7.38432 8.00279 7.3536 8.01067 7.32328 8.0202C7.29295 8.02971 7.26325 8.04083 7.23412 8.05354L5.78304 5.9352C5.79345 5.92534 5.80359 5.91523 5.81349 5.90488C5.82339 5.89451 5.83302 5.88389 5.84237 5.87304C5.85172 5.8622 5.86079 5.85111 5.8696 5.83979C5.87839 5.82848 5.88688 5.81695 5.89509 5.80519C5.9033 5.79345 5.91121 5.7815 5.9188 5.76935C5.92641 5.75721 5.93369 5.74488 5.94067 5.73237C5.94765 5.71983 5.95431 5.70714 5.96064 5.69429C5.96696 5.68144 5.97296 5.66845 5.97864 5.65529C5.98431 5.64212 5.98964 5.62883 5.99465 5.6154C5.99964 5.60197 6.0043 5.58842 6.00861 5.57476C6.01291 5.56109 6.01689 5.54732 6.02049 5.53345C6.02411 5.51958 6.02736 5.50564 6.03026 5.4916C6.03316 5.47757 6.03571 5.46347 6.03791 5.44931C6.04011 5.43516 6.04194 5.42095 6.04339 5.4067C6.04487 5.39244 6.04598 5.37815 6.04672 5.36384C6.04747 5.34953 6.04784 5.33521 6.04786 5.32088C6.04786 5.30666 6.04751 5.29246 6.0468 5.27827C6.04612 5.26407 6.04506 5.2499 6.04368 5.23575C6.04229 5.2216 6.04055 5.2075 6.03846 5.19344C6.03636 5.17938 6.03394 5.16538 6.03118 5.15145C6.0284 5.13751 6.02529 5.12364 6.02183 5.10986C6.01838 5.09606 6.01458 5.08236 6.01045 5.06876C6.00632 5.05517 6.00187 5.04167 5.99709 5.02829C5.99229 5.01492 5.98718 5.00164 5.98175 4.98851C5.97632 4.97538 5.97055 4.96239 5.96447 4.94954C5.9584 4.93669 5.95201 4.924 5.94531 4.91147C5.93861 4.89894 5.9316 4.88656 5.92428 4.87438C5.91699 4.86218 5.90938 4.85017 5.90149 4.83836C5.89359 4.82653 5.8854 4.81491 5.87695 4.8035C5.86847 4.7921 5.85974 4.78088 5.85072 4.76989C5.8417 4.75891 5.83242 4.74815 5.82288 4.73762C5.81333 4.72709 5.80352 4.71679 5.79347 4.70675C5.78343 4.6967 5.77313 4.68689 5.7626 4.67735C5.75207 4.6678 5.74131 4.65852 5.73033 4.6495C5.71934 4.64048 5.70813 4.63175 5.69672 4.62328C5.68531 4.61482 5.67369 4.60663 5.66186 4.59874C5.65005 4.59084 5.63804 4.58323 5.62584 4.57592C5.61366 4.56862 5.60129 4.56161 5.58875 4.55491C5.57622 4.54822 5.56353 4.54182 5.55068 4.53575C5.53783 4.52967 5.52484 4.52391 5.51171 4.51847C5.49858 4.51304 5.48531 4.50793 5.47193 4.50313C5.45855 4.49835 5.44505 4.4939 5.43146 4.48977C5.41786 4.48564 5.40417 4.48184 5.39037 4.4784C5.37659 4.47493 5.36272 4.47182 5.34878 4.46904C5.33484 4.46629 5.32085 4.46386 5.30678 4.46177C5.29272 4.45968 5.27862 4.45794 5.26447 4.45655C5.25032 4.45516 5.23615 4.4541 5.22195 4.45342C5.20777 4.45271 5.19356 4.45236 5.17934 4.45236C5.16512 4.45236 5.15092 4.45271 5.13673 4.45342C5.12253 4.4541 5.10836 4.45516 5.09421 4.45655C5.08006 4.45794 5.06596 4.45968 5.0519 4.46177C5.03784 4.46386 5.02385 4.46629 5.00991 4.46904C4.99597 4.47182 4.9821 4.47493 4.96832 4.4784C4.95452 4.48184 4.94082 4.48564 4.92722 4.48977C4.91363 4.4939 4.90013 4.49835 4.88675 4.50313C4.87338 4.50793 4.86011 4.51304 4.84697 4.51847C4.83384 4.52391 4.82085 4.52967 4.808 4.53575C4.79515 4.54182 4.78246 4.54822 4.76993 4.55491C4.7574 4.56161 4.74502 4.56862 4.73284 4.57592C4.72064 4.58323 4.70863 4.59084 4.69682 4.59874C4.68499 4.60663 4.67337 4.61482 4.66196 4.62328C4.65056 4.63175 4.63934 4.64048 4.62836 4.6495C4.61737 4.65852 4.60661 4.6678 4.59608 4.67735C4.58555 4.68689 4.57525 4.6967 4.56521 4.70675C4.55516 4.71679 4.54535 4.72709 4.53581 4.73762C4.52626 4.74815 4.51698 4.75891 4.50796 4.76989C4.49895 4.78088 4.49021 4.7921 4.48174 4.8035C4.47328 4.81491 4.46509 4.82653 4.4572 4.83836C4.4493 4.85017 4.44169 4.86218 4.43438 4.87438C4.42709 4.88656 4.42007 4.89894 4.41337 4.91147C4.40668 4.924 4.40028 4.93669 4.39421 4.94954C4.38813 4.96239 4.38237 4.97538 4.37694 4.98851C4.3715 5.00164 4.36639 5.01492 4.36159 5.02829C4.35681 5.04167 4.35236 5.05517 4.34823 5.06876C4.3441 5.08236 4.3403 5.09606 4.33686 5.10986C4.33339 5.12364 4.33028 5.13751 4.32751 5.15145C4.32475 5.16538 4.32232 5.17938 4.32023 5.19344C4.31814 5.2075 4.3164 5.2216 4.31501 5.23575C4.31362 5.2499 4.31256 5.26407 4.31186 5.27827C4.31118 5.29246 4.31082 5.30666 4.31082 5.32088C4.31063 5.34161 4.31126 5.36231 4.31272 5.383C4.31416 5.40369 4.31643 5.42428 4.31953 5.44479C4.3226 5.46528 4.3265 5.48562 4.3312 5.50582C4.33589 5.52602 4.34139 5.546 4.34769 5.56576C4.35396 5.58552 4.36103 5.605 4.36887 5.62419C4.37669 5.64339 4.38527 5.66225 4.3946 5.68076C4.40394 5.69927 4.41397 5.71739 4.42475 5.73511C4.43551 5.75283 4.44695 5.77009 4.4591 5.78691L2.78562 7.40744C2.7765 7.39995 2.76725 7.39264 2.75785 7.38552C2.74845 7.3784 2.73892 7.37146 2.72923 7.36472C2.71955 7.35797 2.70974 7.35142 2.69981 7.34507C2.68986 7.33873 2.67979 7.33257 2.66961 7.32661C2.65943 7.32066 2.64913 7.31491 2.63872 7.30937C2.6283 7.30383 2.61779 7.29849 2.60717 7.29338C2.59653 7.28824 2.58581 7.28332 2.575 7.27863C2.56417 7.27393 2.55326 7.26945 2.54227 7.2652C2.53127 7.26093 2.52019 7.25688 2.50903 7.25305C2.49787 7.24924 2.48664 7.24563 2.47533 7.24226C2.46403 7.23888 2.45268 7.23574 2.44125 7.2328C2.42981 7.22987 2.41833 7.22718 2.4068 7.22471C2.39527 7.22224 2.38368 7.22 2.37206 7.218C2.36044 7.216 2.34877 7.21422 2.33708 7.21267C2.32539 7.21113 2.31367 7.20981 2.30193 7.20874C2.29017 7.20766 2.27841 7.20682 2.26663 7.2062C2.2535 7.20766 2.2404 7.20942 2.22734 7.21148C2.2143 7.21353 2.20131 7.21587 2.18835 7.21853C2.1754 7.22118 2.16253 7.22412 2.14972 7.22735C2.1369 7.23059 2.12418 7.23412 2.11152 7.23793C2.09888 7.24175 2.08631 7.24586 2.07385 7.25024C2.06139 7.25463 2.04905 7.25931 2.03679 7.26427C2.02454 7.26922 2.0124 7.27446 2.00039 7.27996C1.98838 7.28546 1.97652 7.29125 1.96476 7.29729C1.95302 7.30334 1.94142 7.30965 1.92996 7.31624C1.91849 7.32282 1.90719 7.32966 1.89605 7.33674C1.8849 7.34384 1.87392 7.35119 1.86311 7.35878C1.85229 7.36638 1.84168 7.37422 1.83122 7.3823C1.82076 7.39039 1.81049 7.3987 1.80042 7.40725C1.79035 7.41581 1.78047 7.42458 1.7708 7.43358C1.76112 7.44258 1.75166 7.45179 1.74241 7.46123C1.73316 7.47067 1.72412 7.4803 1.71531 7.49014C1.7065 7.49999 1.69791 7.51003 1.68956 7.52027C1.6812 7.5305 1.67309 7.54093 1.66521 7.55154C1.65732 7.56214 1.64969 7.57294 1.64231 7.58389C1.63492 7.59484 1.62779 7.60597 1.62091 7.61723C1.61404 7.62852 1.60741 7.63995 1.60105 7.65153C1.5947 7.66311 1.58861 7.67484 1.58279 7.6867C1.57696 7.69857 1.57141 7.71056 1.56614 7.72267C1.56087 7.73478 1.55587 7.74701 1.55115 7.75935C1.54642 7.77169 1.54199 7.78414 1.53784 7.79669C1.53369 7.80922 1.52983 7.82186 1.52626 7.83459C1.52269 7.8473 1.51942 7.86009 1.51643 7.87298C1.51343 7.88585 1.51073 7.89878 1.50834 7.91177C1.50594 7.92476 1.50384 7.93781 1.50203 7.9509C1.50023 7.964 1.49873 7.97711 1.49753 7.99026C1.49633 8.00343 1.49542 8.01661 1.49481 8.02981C1.49421 8.04301 1.49391 8.05621 1.49391 8.06943C1.49391 8.08263 1.49421 8.09583 1.49481 8.10903C1.49542 8.12224 1.49633 8.13542 1.49753 8.14859C1.49873 8.16173 1.50023 8.17485 1.50203 8.18794C1.50384 8.20104 1.50594 8.21408 1.50834 8.22707C1.51073 8.24006 1.51343 8.253 1.51643 8.26587C1.51942 8.27875 1.52269 8.29155 1.52626 8.30426C1.52983 8.31698 1.53369 8.32962 1.53784 8.34216C1.54199 8.35471 1.54642 8.36715 1.55115 8.37949C1.55587 8.39183 1.56087 8.40407 1.56614 8.41618C1.57141 8.42829 1.57696 8.44028 1.58279 8.45214C1.58861 8.46401 1.5947 8.47573 1.60105 8.48732C1.60741 8.4989 1.61404 8.51033 1.62091 8.52161C1.62779 8.53288 1.63492 8.54401 1.64231 8.55496C1.64969 8.56591 1.65732 8.5767 1.66521 8.5873C1.67309 8.59792 1.6812 8.60834 1.68956 8.61857C1.69791 8.62882 1.7065 8.63886 1.71531 8.6487C1.72412 8.65854 1.73316 8.66818 1.74241 8.67762C1.75166 8.68706 1.76112 8.69627 1.7708 8.70527C1.78047 8.71427 1.79035 8.72304 1.80042 8.73158C1.81049 8.74014 1.82076 8.74846 1.83122 8.75654C1.84168 8.76461 1.85229 8.77245 1.86311 8.78006C1.87392 8.78766 1.8849 8.795 1.89605 8.80209C1.90719 8.80919 1.91849 8.81603 1.92996 8.8226C1.94142 8.82919 1.95302 8.8355 1.96476 8.84155C1.97652 8.8476 1.9884 8.85338 2.00041 8.85888C2.01241 8.86438 2.02454 8.86962 2.03679 8.87458C2.04905 8.87954 2.0614 8.88421 2.07387 8.88859C2.08633 8.89298 2.09888 8.8971 2.11152 8.90091C2.12418 8.90473 2.1369 8.90826 2.14972 8.91149C2.16253 8.91473 2.1754 8.91766 2.18835 8.92032C2.20131 8.92297 2.2143 8.92531 2.22734 8.92737C2.2404 8.92942 2.2535 8.93118 2.26663 8.93264C2.28085 8.93264 2.29505 8.93229 2.30924 8.93159C2.32344 8.9309 2.33761 8.92985 2.35176 8.92846C2.36591 8.92707 2.38001 8.92533 2.39407 8.92324C2.40813 8.92114 2.42212 8.91872 2.43606 8.91596C2.45 8.91318 2.46387 8.91007 2.47765 8.90661C2.49145 8.90316 2.50515 8.89937 2.51875 8.89523C2.53234 8.8911 2.54584 8.88666 2.55922 8.88188C2.57259 8.87708 2.58587 8.87196 2.599 8.86653C2.61213 8.8611 2.62512 8.85533 2.63797 8.84925C2.65082 8.84319 2.66351 8.83679 2.67604 8.83009C2.68857 8.82339 2.70095 8.81638 2.71313 8.80908C2.72533 8.80177 2.73734 8.79416 2.74915 8.78627C2.76098 8.77837 2.7726 8.77018 2.78401 8.76173C2.79541 8.75326 2.80663 8.74452 2.81762 8.7355C2.8286 8.72648 2.83936 8.7172 2.84989 8.70766C2.86042 8.69811 2.87072 8.6883 2.88076 8.67825C2.89081 8.66821 2.90062 8.65791 2.91016 8.64738C2.91971 8.63685 2.92899 8.6261 2.93801 8.61511C2.94703 8.60412 2.95576 8.59291 2.96423 8.5815C2.97269 8.57009 2.98088 8.55847 2.98877 8.54664C2.99667 8.53483 3.00428 8.52282 3.01159 8.51062C3.01888 8.49844 3.0259 8.48607 3.0326 8.47353C3.03929 8.461 3.04569 8.44831 3.05176 8.43546C3.05784 8.42261 3.0636 8.40962 3.06904 8.39649C3.07447 8.38336 3.07958 8.37009 3.08438 8.35671C3.08916 8.34333 3.09361 8.32983 3.09774 8.31625C3.10187 8.30264 3.10567 8.28895 3.10911 8.27515C3.11258 8.26137 3.11569 8.2475 3.11846 8.23356C3.12122 8.21962 3.12365 8.20563 3.12574 8.19156C3.12783 8.1775 3.12957 8.1634 3.13096 8.14925C3.13235 8.1351 3.13341 8.12094 3.13409 8.10673C3.13479 8.09255 3.13515 8.07834 3.13515 8.06412C3.13522 8.03691 3.13393 8.00977 3.13128 7.9827C3.12862 7.95561 3.12463 7.92874 3.11931 7.90207C3.11396 7.87539 3.1073 7.84904 3.09934 7.82302C3.09138 7.79702 3.08211 7.77146 3.07158 7.74638L4.79804 6.05171C4.81215 6.05936 4.8265 6.06649 4.8411 6.07315C4.85571 6.07982 4.87051 6.08599 4.88552 6.09163C4.90055 6.09729 4.91574 6.10244 4.9311 6.10706C4.94647 6.11169 4.96197 6.1158 4.97761 6.11937C4.99326 6.12294 5.00901 6.12598 5.02485 6.12849C5.0407 6.131 5.05661 6.13297 5.07259 6.1344C5.08857 6.13582 5.10458 6.13672 5.12063 6.13705C5.13668 6.13738 5.15271 6.13719 5.16874 6.13644C5.20209 6.1416 5.23563 6.14419 5.26936 6.14419C5.30309 6.14419 5.33663 6.1416 5.36998 6.13644L6.82105 8.25478C6.81028 8.26661 6.79978 8.2787 6.78957 8.29102C6.77936 8.30334 6.76942 8.31588 6.75977 8.32864C6.75012 8.34142 6.74075 8.35439 6.7317 8.36757C6.72265 8.38078 6.71388 8.39417 6.70542 8.40776C6.69697 8.42135 6.68883 8.43511 6.68101 8.44907C6.67317 8.46302 6.66566 8.47716 6.65847 8.49146C6.65128 8.50576 6.64441 8.5202 6.63789 8.53481C6.63135 8.54942 6.62514 8.56419 6.61929 8.57907C6.61342 8.59396 6.6079 8.60897 6.60271 8.62411C6.59753 8.63924 6.59268 8.6545 6.58819 8.66986C6.58369 8.68523 6.57954 8.70068 6.57575 8.71624C6.57197 8.73178 6.56852 8.7474 6.56543 8.7631C6.56235 8.7788 6.55963 8.79456 6.55726 8.8104C6.55488 8.82624 6.55288 8.84211 6.55123 8.85802C6.54957 8.87395 6.54829 8.88989 6.54736 8.90587C6.54643 8.92185 6.54585 8.93783 6.54565 8.95384C6.54565 8.97117 6.54608 8.9885 6.54694 9.00582C6.54778 9.02313 6.54905 9.04041 6.55075 9.05766C6.55246 9.0749 6.55457 9.09211 6.55712 9.10925C6.55966 9.12639 6.56262 9.14347 6.56601 9.16047C6.56938 9.17747 6.57318 9.19438 6.5774 9.2112C6.5816 9.22802 6.58622 9.24472 6.59127 9.2613C6.5963 9.27787 6.60173 9.29433 6.60756 9.31066C6.61342 9.32699 6.61966 9.34316 6.62629 9.35917C6.63291 9.37519 6.63994 9.39103 6.64734 9.40669C6.65476 9.42235 6.66255 9.43784 6.67072 9.45313C6.6789 9.4684 6.68744 9.48349 6.69635 9.49836C6.70526 9.51323 6.71453 9.52787 6.72416 9.54228C6.73379 9.5567 6.74378 9.57087 6.7541 9.58479C6.76441 9.59871 6.77508 9.61237 6.78607 9.62576C6.79707 9.63918 6.80839 9.65229 6.82003 9.66514C6.83167 9.67799 6.84362 9.69054 6.85587 9.70279C6.86812 9.71504 6.88068 9.727 6.89353 9.73863C6.90637 9.75027 6.91949 9.76159 6.9329 9.77259C6.94629 9.78358 6.95995 9.79425 6.97387 9.80457C6.9878 9.81489 7.00196 9.82487 7.01638 9.8345C7.03079 9.84414 7.04544 9.8534 7.06031 9.86231C7.07516 9.87122 7.09024 9.87977 7.10554 9.88794C7.12083 9.89612 7.13631 9.9039 7.15198 9.91132C7.16764 9.91872 7.18348 9.92575 7.19949 9.93238C7.2155 9.93901 7.23168 9.94525 7.24801 9.9511C7.26432 9.95693 7.28077 9.96237 7.29737 9.96739C7.31394 9.97244 7.33064 9.97706 7.34746 9.98126C7.36428 9.98548 7.3812 9.98928 7.39819 9.99265C7.41519 9.99605 7.43228 9.999 7.44942 10.0015C7.46655 10.0041 7.48376 10.0062 7.50101 10.0079C7.51825 10.0096 7.53553 10.0109 7.55285 10.0117C7.57016 10.0126 7.58749 10.013 7.60482 10.013C7.62216 10.013 7.63949 10.0126 7.6568 10.0117C7.67412 10.0109 7.6914 10.0096 7.70864 10.0079C7.72588 10.0062 7.74309 10.0041 7.76023 10.0015C7.77737 9.999 7.79446 9.99605 7.81145 9.99265C7.82845 9.98928 7.84536 9.98548 7.86219 9.98126C7.87901 9.97706 7.89571 9.97244 7.91228 9.96739C7.92888 9.96237 7.94533 9.95693 7.96164 9.9511C7.97797 9.94525 7.99414 9.93901 8.01016 9.93238C8.02617 9.92575 8.04201 9.91872 8.05767 9.91132C8.07333 9.9039 8.08882 9.89612 8.10411 9.88794C8.11941 9.87977 8.13449 9.87122 8.14934 9.86231C8.16421 9.8534 8.17885 9.84414 8.19327 9.8345C8.20768 9.82487 8.22185 9.81489 8.23577 9.80457C8.24969 9.79425 8.26335 9.78358 8.27675 9.77259C8.29016 9.76159 8.30327 9.75027 8.31612 9.73863C8.32897 9.727 8.34152 9.71504 8.35378 9.70279C8.36603 9.69054 8.37798 9.67799 8.38962 9.66514C8.40125 9.65229 8.41257 9.63918 8.42358 9.62576C8.43456 9.61237 8.44523 9.59871 8.45555 9.58479C8.46587 9.57087 8.47585 9.5567 8.48549 9.54228C8.49512 9.52787 8.50438 9.51323 8.5133 9.49836C8.52221 9.48349 8.53075 9.4684 8.53893 9.45313C8.5471 9.43784 8.55489 9.42235 8.5623 9.40669C8.56971 9.39103 8.57674 9.37519 8.58336 9.35917C8.58999 9.34316 8.59623 9.32699 8.60208 9.31066C8.60792 9.29433 8.61335 9.27787 8.61838 9.2613C8.62342 9.24472 8.62805 9.22802 8.63225 9.2112C8.63647 9.19438 8.64026 9.17747 8.64364 9.16047C8.64703 9.14347 8.64998 9.12639 8.65253 9.10925C8.65508 9.09211 8.65719 9.0749 8.6589 9.05766C8.6606 9.04041 8.66187 9.02313 8.66271 9.00582C8.66357 8.9885 8.66399 8.97117 8.66399 8.95384C8.6638 8.92805 8.66266 8.90232 8.66057 8.87662C8.65849 8.85092 8.65549 8.82533 8.65153 8.79986C8.64758 8.77438 8.64271 8.74909 8.63691 8.72397C8.63112 8.69885 8.62441 8.67396 8.6168 8.64933C8.60919 8.62471 8.60068 8.60038 8.59129 8.57637C8.5819 8.55235 8.57166 8.52871 8.56053 8.50546C8.54942 8.4822 8.53747 8.45937 8.52469 8.43699C8.51191 8.4146 8.49832 8.39269 8.48394 8.3713L8.84405 7.9794L8.50512 7.66165L8.48394 7.7146ZM2.26663 8.49839C2.26027 8.49823 2.2539 8.49792 2.24756 8.49744C2.24121 8.49697 2.23487 8.49635 2.22854 8.49559C2.22223 8.49482 2.21592 8.49391 2.20964 8.49284C2.20337 8.49176 2.19711 8.49055 2.19088 8.4892C2.18466 8.48783 2.17847 8.48631 2.17232 8.48466C2.16619 8.48299 2.16007 8.4812 2.15401 8.47925C2.14794 8.4773 2.14193 8.47522 2.13597 8.47299C2.13001 8.47076 2.12409 8.46837 2.11823 8.46585C2.11238 8.46334 2.1066 8.4607 2.10087 8.45791C2.09515 8.45511 2.08949 8.4522 2.0839 8.44914C2.07831 8.4461 2.07279 8.4429 2.06736 8.43957C2.06193 8.43625 2.05657 8.43281 2.0513 8.42924C2.04602 8.42567 2.04084 8.42198 2.03576 8.41816C2.03066 8.41435 2.02565 8.41039 2.02075 8.40633C2.01584 8.40227 2.01103 8.39811 2.0063 8.39384C2.00159 8.38955 1.99698 8.38515 1.99248 8.38065C1.98798 8.37613 1.98359 8.37153 1.9793 8.36682C1.97501 8.36211 1.97084 8.35729 1.96678 8.35239C1.96272 8.34748 1.95878 8.34247 1.95497 8.33737C1.95115 8.33228 1.94745 8.32709 1.94388 8.32182C1.94031 8.31656 1.93686 8.3112 1.93354 8.30577C1.93022 8.30034 1.92704 8.29482 1.92398 8.28923C1.92092 8.28364 1.918 8.27798 1.91521 8.27227C1.91241 8.26653 1.90978 8.26075 1.90726 8.2549C1.90475 8.24904 1.90237 8.24312 1.90014 8.23716C1.89791 8.2312 1.89582 8.22519 1.89387 8.21913C1.89192 8.21306 1.89012 8.20695 1.88845 8.20081C1.8868 8.19466 1.88529 8.18847 1.88394 8.18225C1.88256 8.17603 1.88135 8.16977 1.88028 8.16349C1.87921 8.15722 1.87829 8.15092 1.87752 8.1446C1.87676 8.13827 1.87615 8.13192 1.87567 8.12558C1.8752 8.11923 1.87488 8.11287 1.87472 8.1065C1.87455 8.09998 1.87453 8.09346 1.87469 8.08694C1.87483 8.08042 1.87515 8.0739 1.87562 8.06739C1.8761 8.06087 1.87673 8.05438 1.87754 8.04792C1.87833 8.04143 1.87929 8.03498 1.88042 8.02854C1.88153 8.02213 1.88281 8.01573 1.88425 8.00937C1.88569 8.003 1.88729 7.99668 1.88905 7.99038C1.89081 7.98411 1.89272 7.97787 1.8948 7.97168C1.89686 7.96549 1.89909 7.95936 1.90146 7.95328C1.90383 7.94719 1.90637 7.94118 1.90904 7.93522C1.91171 7.92928 1.91454 7.92341 1.91751 7.91759C1.92048 7.91177 1.92359 7.90604 1.92684 7.90038C1.9301 7.89474 1.93349 7.88917 1.93702 7.88367C1.94055 7.87818 1.94423 7.87279 1.94803 7.86749C1.95184 7.86219 1.95578 7.85698 1.95984 7.85188C1.9639 7.84677 1.96808 7.84178 1.97239 7.83687C1.97671 7.83197 1.98114 7.82719 1.9857 7.82251C1.99025 7.81784 1.99491 7.81328 1.99969 7.80884C2.00447 7.80439 2.00936 7.80008 2.01437 7.79588C2.01936 7.79168 2.02446 7.78762 2.02966 7.78366C2.03484 7.77973 2.04013 7.77591 2.04553 7.77224C2.05093 7.76856 2.05639 7.76501 2.06197 7.7616C2.06754 7.75821 2.07318 7.75494 2.07891 7.75181C2.08464 7.7487 2.09044 7.74571 2.09633 7.74288C2.1022 7.74005 2.10814 7.73736 2.11417 7.73483C2.12019 7.73228 2.12625 7.72991 2.13238 7.72768C2.13852 7.72545 2.14469 7.72335 2.15093 7.72144C2.15717 7.71952 2.16345 7.71775 2.16977 7.71613C2.1761 7.71453 2.18246 7.71307 2.18885 7.71179C2.19524 7.71049 2.20168 7.70934 2.20813 7.70838C2.21458 7.70741 2.22107 7.7066 2.22755 7.70595C2.23404 7.7053 2.24054 7.70483 2.24706 7.70449C2.25359 7.70418 2.26011 7.70402 2.26663 7.70402C2.2738 7.70284 2.28101 7.70186 2.28823 7.70106C2.29546 7.70027 2.3027 7.69969 2.30996 7.69931C2.31722 7.6989 2.32448 7.69871 2.33174 7.69871C2.33902 7.69871 2.34628 7.6989 2.35354 7.69929C2.36079 7.69969 2.36804 7.70027 2.37526 7.70106C2.38249 7.70186 2.38969 7.70282 2.39687 7.704C2.40404 7.70518 2.41117 7.70655 2.41828 7.70811C2.42538 7.70968 2.43243 7.71142 2.43944 7.71337C2.44644 7.71532 2.45338 7.71745 2.46027 7.71977C2.46716 7.72209 2.47398 7.7246 2.48073 7.72729C2.48748 7.72998 2.49416 7.73285 2.50075 7.7359C2.50734 7.73895 2.51387 7.74218 2.52028 7.74559C2.52671 7.74898 2.53304 7.75257 2.53927 7.75631C2.54551 7.76006 2.55162 7.76398 2.55763 7.76805C2.56365 7.77213 2.56955 7.77637 2.57534 7.78076C2.58112 7.78518 2.5868 7.78973 2.59233 7.79442C2.59787 7.79913 2.60329 7.80398 2.60856 7.80898C2.61383 7.81399 2.61896 7.81912 2.62397 7.82439C2.62898 7.82967 2.63384 7.83508 2.63853 7.84062C2.64324 7.84615 2.64779 7.85183 2.65219 7.85761C2.6566 7.8634 2.66084 7.8693 2.66491 7.87532C2.66899 7.88133 2.67291 7.88744 2.67666 7.89369C2.6804 7.89991 2.68399 7.90624 2.68738 7.91265C2.69079 7.91907 2.69402 7.92559 2.69706 7.93218C2.70012 7.93877 2.70299 7.94545 2.70568 7.95222C2.70837 7.95897 2.71088 7.96579 2.7132 7.97268C2.71552 7.97955 2.71765 7.9865 2.7196 7.99351C2.72155 8.00053 2.72329 8.00757 2.72486 8.01468C2.72642 8.02176 2.72779 8.0289 2.72897 8.03607C2.73015 8.04326 2.73111 8.05045 2.7319 8.05767C2.7327 8.0649 2.73328 8.07214 2.73368 8.0794C2.73408 8.08666 2.73428 8.09394 2.73428 8.1012C2.73428 8.10845 2.73408 8.11573 2.73368 8.12299C2.73328 8.13025 2.7327 8.13749 2.7319 8.14472C2.73111 8.15194 2.73015 8.15913 2.72897 8.16632C2.72779 8.17349 2.72642 8.18063 2.72486 8.18771C2.72329 8.19482 2.72155 8.20187 2.7196 8.20888C2.71765 8.21589 2.71552 8.22284 2.7132 8.22973C2.71088 8.2366 2.70837 8.24342 2.70568 8.25019C2.70299 8.25694 2.70012 8.26362 2.69706 8.27021C2.69402 8.2768 2.69079 8.28332 2.68738 8.28974C2.68399 8.29615 2.6804 8.30248 2.67666 8.3087C2.67291 8.31495 2.66899 8.32106 2.66491 8.32707C2.66084 8.3331 2.6566 8.33899 2.65219 8.34478C2.64779 8.35056 2.64324 8.35624 2.63853 8.36177C2.63384 8.36731 2.62898 8.37272 2.62397 8.378C2.61896 8.38327 2.61383 8.3884 2.60856 8.39341C2.60329 8.39842 2.59787 8.40328 2.59233 8.40797C2.5868 8.41268 2.58112 8.41723 2.57534 8.42163C2.56955 8.42602 2.56365 8.43026 2.55763 8.43434C2.55162 8.43841 2.54551 8.44233 2.53927 8.44608C2.53304 8.44982 2.52671 8.45341 2.52028 8.4568C2.51387 8.46021 2.50734 8.46344 2.50075 8.46649C2.49416 8.46954 2.48748 8.47241 2.48073 8.4751C2.47398 8.47779 2.46716 8.4803 2.46027 8.48262C2.45338 8.48494 2.44644 8.48707 2.43944 8.48902C2.43243 8.49097 2.42538 8.49271 2.41828 8.49428C2.41117 8.49584 2.40404 8.49721 2.39687 8.49839C2.38969 8.49957 2.38249 8.50054 2.37526 8.50133C2.36804 8.50212 2.36079 8.5027 2.35354 8.5031C2.34628 8.50349 2.33902 8.50368 2.33174 8.50368C2.32448 8.50368 2.31722 8.50349 2.30996 8.50308C2.3027 8.5027 2.29546 8.50212 2.28823 8.50133C2.28101 8.50054 2.2738 8.49955 2.26663 8.49837L2.26663 8.49839ZM5.16874 5.67042C5.16233 5.67042 5.15593 5.67026 5.14951 5.66995C5.1431 5.66963 5.13671 5.66916 5.13033 5.66854C5.12395 5.66791 5.11759 5.66712 5.11124 5.66619C5.1049 5.66524 5.09857 5.66415 5.09228 5.6629C5.086 5.66165 5.07974 5.66024 5.07352 5.65868C5.0673 5.65711 5.06111 5.65541 5.05498 5.65355C5.04884 5.65168 5.04274 5.64968 5.03671 5.64752C5.03068 5.64536 5.02469 5.64303 5.01877 5.64059C5.01284 5.63813 5.00697 5.63553 5.00119 5.63279C4.99539 5.63004 4.98966 5.62716 4.984 5.62414C4.97834 5.62112 4.97276 5.61795 4.96726 5.61466C4.96176 5.61138 4.95635 5.60795 4.951 5.60438C4.94568 5.60081 4.94044 5.59712 4.93529 5.59329C4.93014 5.58947 4.92507 5.58552 4.92012 5.58146C4.91516 5.5774 4.91031 5.5732 4.90556 5.56889C4.9008 5.56458 4.89616 5.56017 4.89162 5.55564C4.88709 5.5511 4.88266 5.54646 4.87835 5.5417C4.87404 5.53695 4.86986 5.5321 4.8658 5.52714C4.86172 5.52219 4.85777 5.51712 4.85395 5.51197C4.85014 5.50682 4.84645 5.50157 4.84288 5.49624C4.83931 5.49091 4.83588 5.4855 4.8326 5.48C4.82929 5.4745 4.82613 5.46891 4.8231 5.46326C4.82008 5.4576 4.8172 5.45187 4.81446 5.44607C4.81171 5.44029 4.80911 5.43442 4.80667 5.42849C4.80422 5.42257 4.8019 5.41658 4.79974 5.41055C4.79758 5.40452 4.79558 5.39842 4.79371 5.39228C4.79185 5.38615 4.79014 5.37996 4.78858 5.37374C4.78702 5.36752 4.78561 5.36126 4.78436 5.35498C4.78311 5.34869 4.78202 5.34236 4.78107 5.33602C4.78014 5.32967 4.77935 5.32331 4.77872 5.31693C4.7781 5.31054 4.77763 5.30416 4.77731 5.29775C4.777 5.29133 4.77684 5.28493 4.77684 5.27852C4.77684 5.2721 4.777 5.2657 4.77731 5.25929C4.77763 5.25287 4.7781 5.24649 4.77872 5.24011C4.77935 5.23373 4.78014 5.22737 4.78107 5.22102C4.78202 5.21467 4.78311 5.20835 4.78436 5.20205C4.78561 5.19578 4.78702 5.18952 4.78858 5.1833C4.79014 5.17707 4.79185 5.17089 4.79371 5.16475C4.79558 5.15862 4.79758 5.15252 4.79974 5.14649C4.8019 5.14046 4.80422 5.13446 4.80667 5.12854C4.80913 5.12262 4.81173 5.11675 4.81447 5.11096C4.81721 5.10516 4.8201 5.09943 4.82312 5.09377C4.82614 5.08813 4.82931 5.08254 4.8326 5.07704C4.83588 5.07154 4.83931 5.06612 4.84288 5.06079C4.84645 5.05545 4.85014 5.05021 4.85395 5.04506C4.85777 5.03991 4.86172 5.03485 4.8658 5.02989C4.86986 5.02494 4.87404 5.02008 4.87835 5.01534C4.88266 5.01057 4.88709 5.00593 4.89162 5.0014C4.89616 4.99686 4.9008 4.99243 4.90556 4.98813C4.91031 4.98382 4.91516 4.97964 4.92012 4.97558C4.92507 4.97152 4.93014 4.96756 4.93529 4.96373C4.94044 4.95991 4.94568 4.95622 4.95102 4.95265C4.95635 4.94909 4.96176 4.94566 4.96726 4.94237C4.97276 4.93908 4.97834 4.93592 4.984 4.9329C4.98966 4.92987 4.99539 4.92699 5.00119 4.92425C5.00697 4.92151 5.01284 4.9189 5.01877 4.91644C5.02469 4.914 5.03068 4.91168 5.03671 4.90952C5.04274 4.90736 5.04884 4.90535 5.05498 4.90349C5.06111 4.90162 5.0673 4.89992 5.07352 4.89836C5.07974 4.89679 5.086 4.89538 5.09228 4.89414C5.09857 4.89289 5.1049 4.8918 5.11124 4.89085C5.11759 4.88992 5.12395 4.88913 5.13033 4.88849C5.13671 4.88788 5.1431 4.8874 5.14951 4.88709C5.15593 4.88677 5.16233 4.88661 5.16874 4.88661C5.17516 4.88661 5.18156 4.88677 5.18797 4.88709C5.19439 4.8874 5.20077 4.88788 5.20715 4.88849C5.21353 4.88913 5.21989 4.88992 5.22624 4.89085C5.23259 4.8918 5.23891 4.89289 5.24519 4.89414C5.25148 4.89538 5.25774 4.89679 5.26396 4.89836C5.27019 4.89992 5.27637 4.90162 5.28251 4.90349C5.28864 4.90535 5.29474 4.90736 5.30077 4.90952C5.3068 4.91168 5.31279 4.914 5.31872 4.91644C5.32464 4.9189 5.33051 4.92151 5.3363 4.92425C5.3421 4.92699 5.34783 4.92987 5.35349 4.9329C5.35913 4.93592 5.36472 4.93908 5.37022 4.94237C5.37572 4.94566 5.38114 4.94909 5.38646 4.95265C5.39179 4.95622 5.39705 4.95991 5.4022 4.96373C5.40735 4.96756 5.41241 4.97152 5.41737 4.97558C5.42232 4.97964 5.42718 4.98382 5.43192 4.98813C5.43669 4.99243 5.44133 4.99686 5.44586 5.0014C5.4504 5.00593 5.45481 5.01057 5.45912 5.01534C5.46342 5.02008 5.46762 5.02494 5.47168 5.02989C5.47574 5.03485 5.4797 5.03991 5.48351 5.04506C5.48733 5.05021 5.49104 5.05545 5.49461 5.06079C5.49817 5.06612 5.5016 5.07154 5.50489 5.07704C5.50818 5.08254 5.51134 5.08811 5.51436 5.09377C5.51739 5.09943 5.52027 5.10516 5.52301 5.11096C5.52575 5.11675 5.52836 5.12262 5.53082 5.12854C5.53326 5.13446 5.53558 5.14046 5.53774 5.14649C5.5399 5.15252 5.54191 5.15862 5.54377 5.16475C5.54563 5.17089 5.54734 5.17707 5.5489 5.1833C5.55047 5.18952 5.55187 5.19578 5.55312 5.20205C5.55437 5.20835 5.55546 5.21467 5.55641 5.22102C5.55734 5.22737 5.55813 5.23373 5.55877 5.24011C5.55938 5.24649 5.55986 5.25287 5.56017 5.25929C5.56049 5.2657 5.56065 5.2721 5.56065 5.27852C5.56065 5.28493 5.56049 5.29133 5.56017 5.29775C5.55986 5.30416 5.55938 5.31054 5.55877 5.31693C5.55813 5.32331 5.55734 5.32967 5.55641 5.33602C5.55546 5.34236 5.55437 5.34869 5.55312 5.35498C5.55187 5.36126 5.55047 5.36752 5.5489 5.37374C5.54734 5.37996 5.54563 5.38615 5.54377 5.39228C5.54191 5.39842 5.5399 5.40452 5.53774 5.41055C5.53558 5.41658 5.53326 5.42257 5.53082 5.42849C5.52836 5.43442 5.52575 5.44029 5.52301 5.44607C5.52027 5.45187 5.51739 5.4576 5.51436 5.46326C5.51134 5.46891 5.50818 5.4745 5.50489 5.48C5.5016 5.4855 5.49817 5.49091 5.49461 5.49624C5.49104 5.50157 5.48733 5.50682 5.48351 5.51197C5.4797 5.51712 5.47574 5.52219 5.47168 5.52714C5.46762 5.5321 5.46342 5.53695 5.45912 5.5417C5.45481 5.54646 5.4504 5.5511 5.44586 5.55564C5.44133 5.56017 5.43669 5.56458 5.43192 5.56889C5.42718 5.5732 5.42232 5.5774 5.41737 5.58146C5.41241 5.58552 5.40735 5.58947 5.4022 5.59329C5.39705 5.59712 5.39179 5.60081 5.38646 5.60438C5.38114 5.60795 5.37572 5.61138 5.37022 5.61466C5.36472 5.61795 5.35913 5.62112 5.35349 5.62414C5.34783 5.62716 5.3421 5.63004 5.3363 5.63279C5.3305 5.63553 5.32464 5.63813 5.31872 5.64059C5.31279 5.64303 5.3068 5.64536 5.30077 5.64752C5.29474 5.64968 5.28864 5.65168 5.28251 5.65355C5.27637 5.65541 5.27019 5.65711 5.26396 5.65868C5.25774 5.66024 5.25148 5.66165 5.24519 5.6629C5.23891 5.66415 5.23259 5.66524 5.22624 5.66619C5.21989 5.66712 5.21353 5.66791 5.20715 5.66854C5.20077 5.66916 5.19439 5.66963 5.18797 5.66995C5.18156 5.67026 5.17516 5.67042 5.16874 5.67042ZM11.7674 3.24492C11.7489 3.24397 11.7305 3.24352 11.712 3.24353C11.6935 3.24355 11.6751 3.24404 11.6566 3.24503C11.6382 3.24601 11.6198 3.24747 11.6014 3.24942C11.5831 3.25137 11.5648 3.2538 11.5465 3.2567C11.5283 3.2596 11.5101 3.26297 11.4921 3.26682C11.474 3.27067 11.4561 3.275 11.4382 3.2798C11.4204 3.28458 11.4027 3.28983 11.3851 3.29555C11.3676 3.30126 11.3502 3.30745 11.3329 3.31407C11.3157 3.3207 11.2986 3.32777 11.2818 3.33529C11.2649 3.3428 11.2482 3.35076 11.2318 3.35914C11.2153 3.36753 11.1991 3.37635 11.1831 3.3856C11.1671 3.39483 11.1514 3.40448 11.1359 3.41455C11.1204 3.42461 11.1052 3.43506 11.0903 3.44593C11.0753 3.45677 11.0607 3.46802 11.0463 3.47964C11.032 3.49126 11.018 3.50327 11.0042 3.51562C10.9905 3.52798 10.9771 3.54069 10.9641 3.55375C10.951 3.56681 10.9383 3.58019 10.9259 3.59392C10.9136 3.60765 10.9016 3.62167 10.89 3.63603C10.8783 3.65038 10.8671 3.66502 10.8562 3.67996C10.8454 3.6949 10.8349 3.71011 10.8249 3.7256C10.8148 3.74108 10.8052 3.75681 10.7959 3.77281C10.7867 3.78879 10.7779 3.80501 10.7695 3.82147C10.7611 3.83792 10.7531 3.85458 10.7456 3.87146C10.7381 3.88832 10.731 3.90537 10.7244 3.92261C10.7178 3.93986 10.7116 3.95724 10.7059 3.9748C10.7002 3.99236 10.6949 4.01006 10.6901 4.0279C10.6853 4.04575 10.681 4.06369 10.6771 4.08175C10.6733 4.0998 10.6699 4.11796 10.667 4.13619C10.6641 4.15443 10.6617 4.17273 10.6597 4.1911C10.6578 4.20947 10.6563 4.22787 10.6553 4.24631C10.6543 4.26475 10.6539 4.28319 10.6538 4.30167C10.6538 4.32014 10.6543 4.3386 10.6552 4.35704C10.6553 4.38151 10.6561 4.40594 10.6577 4.43036C10.6593 4.45477 10.6617 4.47912 10.6649 4.50338C10.668 4.52763 10.672 4.55177 10.6767 4.57578C10.6814 4.59979 10.6869 4.62363 10.6932 4.64729C10.6994 4.67093 10.7064 4.69436 10.7142 4.71758C10.7219 4.74079 10.7304 4.76372 10.7396 4.78638C10.7489 4.80904 10.7588 4.83138 10.7694 4.85341C10.7801 4.87543 10.7915 4.89711 10.8035 4.91839L9.46897 6.35887L9.98796 6.8355L11.3331 5.38443C11.3671 5.39991 11.4018 5.41357 11.4373 5.4254C11.4727 5.43721 11.5087 5.44713 11.5452 5.45514C11.5817 5.46316 11.6185 5.46922 11.6556 5.47334C11.6928 5.47745 11.73 5.47959 11.7674 5.47977C11.7857 5.47959 11.804 5.47898 11.8223 5.47792C11.8406 5.47687 11.8589 5.47537 11.8771 5.47342C11.8953 5.47147 11.9135 5.4691 11.9316 5.46627C11.9497 5.46344 11.9677 5.46017 11.9857 5.45648C12.0036 5.45277 12.0215 5.44864 12.0392 5.44407C12.057 5.4395 12.0746 5.43451 12.0921 5.42909C12.1096 5.42366 12.127 5.41782 12.1442 5.41155C12.1614 5.40529 12.1785 5.39861 12.1954 5.39153C12.2123 5.38443 12.229 5.37692 12.2455 5.36903C12.2621 5.36112 12.2784 5.35282 12.2945 5.34412C12.3107 5.33542 12.3266 5.32635 12.3423 5.31687C12.358 5.3074 12.3734 5.29757 12.3886 5.28736C12.4038 5.27715 12.4188 5.26656 12.4335 5.25561C12.4482 5.24466 12.4626 5.23338 12.4768 5.22172C12.4909 5.21009 12.5048 5.19811 12.5184 5.18579C12.532 5.17347 12.5452 5.16083 12.5582 5.14788C12.5711 5.13492 12.5838 5.12165 12.5961 5.10808C12.6084 5.09451 12.6204 5.08064 12.632 5.06649C12.6437 5.05234 12.655 5.03791 12.6659 5.02321C12.6769 5.0085 12.6875 4.99354 12.6977 4.97834C12.7079 4.96311 12.7177 4.94766 12.7272 4.93196C12.7367 4.91627 12.7457 4.90036 12.7544 4.88422C12.7631 4.8681 12.7714 4.85177 12.7793 4.83523C12.7872 4.81869 12.7947 4.80197 12.8018 4.78506C12.8089 4.76817 12.8156 4.7511 12.8219 4.73389C12.8281 4.71667 12.834 4.6993 12.8394 4.68179C12.8448 4.66429 12.8498 4.64665 12.8544 4.6289C12.8589 4.61116 12.8631 4.5933 12.8668 4.57536C12.8705 4.55741 12.8737 4.53937 12.8766 4.52127C12.8794 4.50316 12.8818 4.48501 12.8837 4.46678C12.8857 4.44855 12.8872 4.43028 12.8882 4.41199C12.8893 4.39369 12.8899 4.37539 12.8901 4.35705C12.8901 4.33874 12.8896 4.32044 12.8887 4.30216C12.8878 4.28386 12.8865 4.26561 12.8847 4.24738C12.8828 4.22916 12.8806 4.211 12.8779 4.19289C12.8752 4.17477 12.8721 4.15673 12.8685 4.13879C12.8648 4.12084 12.8608 4.10298 12.8564 4.08521C12.8519 4.06745 12.847 4.04982 12.8416 4.03232C12.8363 4.01479 12.8305 3.99742 12.8243 3.9802C12.8181 3.96297 12.8115 3.9459 12.8044 3.92899C12.7974 3.9121 12.7899 3.89538 12.782 3.87884C12.7742 3.86232 12.7659 3.84599 12.7572 3.82987C12.7485 3.81375 12.7395 3.79784 12.73 3.78216C12.7205 3.76648 12.7107 3.75105 12.7005 3.73586C12.6902 3.72067 12.6796 3.70575 12.6687 3.69109C12.6577 3.67641 12.6464 3.66203 12.6347 3.64792C12.623 3.63382 12.611 3.62 12.5987 3.60649C12.5863 3.59297 12.5736 3.57979 12.5606 3.5669C12.5476 3.55402 12.5343 3.54145 12.5207 3.52921C12.507 3.517 12.4931 3.50511 12.4789 3.49356C12.4646 3.48202 12.4502 3.47084 12.4354 3.46001C12.4206 3.4492 12.4056 3.43874 12.3903 3.42865C12.375 3.41858 12.3595 3.40887 12.3437 3.39956C12.328 3.39024 12.312 3.38131 12.2958 3.37279C12.2796 3.36426 12.2632 3.35614 12.2466 3.34842C12.23 3.3407 12.2132 3.33341 12.1962 3.32652C12.1792 3.31963 12.1621 3.31316 12.1448 3.30713C12.1275 3.30108 12.1101 3.29548 12.0926 3.29029C12.075 3.28511 12.0573 3.28038 12.0395 3.27607C12.0217 3.27176 12.0038 3.2679 11.9858 3.26447C11.9678 3.26104 11.9498 3.25807 11.9316 3.25554C11.9135 3.25301 11.8953 3.25093 11.8771 3.2493C11.8588 3.24766 11.8406 3.24649 11.8223 3.24575C11.804 3.24503 11.7857 3.24475 11.7674 3.24492ZM11.7674 4.77012C11.7606 4.77012 11.7538 4.76996 11.7471 4.76963C11.7403 4.7693 11.7336 4.76879 11.7269 4.76814C11.7201 4.76747 11.7134 4.76664 11.7067 4.76566C11.7001 4.76466 11.6934 4.7635 11.6868 4.76218C11.6801 4.76086 11.6735 4.75938 11.667 4.75775C11.6604 4.75611 11.6539 4.7543 11.6474 4.75233C11.641 4.75038 11.6346 4.74826 11.6282 4.74597C11.6218 4.7437 11.6155 4.74126 11.6093 4.73868C11.603 4.73609 11.5969 4.73335 11.5907 4.73047C11.5846 4.72757 11.5786 4.72453 11.5726 4.72134C11.5667 4.71816 11.5608 4.71482 11.555 4.71136C11.5492 4.70788 11.5435 4.70426 11.5379 4.7005C11.5322 4.69675 11.5267 4.69285 11.5213 4.68882C11.5159 4.6848 11.5105 4.68065 11.5053 4.67636C11.5001 4.67207 11.495 4.66766 11.4899 4.66311C11.4849 4.65857 11.48 4.65391 11.4753 4.64913C11.4705 4.64435 11.4658 4.63946 11.4613 4.63445C11.4567 4.62945 11.4523 4.62431 11.448 4.61909C11.4437 4.61387 11.4396 4.60854 11.4356 4.60311C11.4315 4.59768 11.4276 4.59214 11.4239 4.58654C11.4201 4.58091 11.4165 4.5752 11.413 4.5694C11.4096 4.56362 11.4062 4.55773 11.4031 4.55177C11.3999 4.54581 11.3968 4.53976 11.3939 4.53364C11.391 4.52754 11.3883 4.52136 11.3857 4.51512C11.3831 4.50888 11.3807 4.50257 11.3784 4.4962C11.3761 4.48984 11.374 4.48342 11.3721 4.47695C11.3701 4.47049 11.3683 4.46396 11.3666 4.45741C11.365 4.45085 11.3635 4.44426 11.3622 4.43763C11.3609 4.43101 11.3597 4.42434 11.3587 4.41765C11.3578 4.41097 11.3569 4.40425 11.3563 4.39752C11.3556 4.39079 11.3551 4.38405 11.3548 4.3773C11.3544 4.37055 11.3543 4.3638 11.3543 4.35704C11.3544 4.35032 11.3548 4.34363 11.3552 4.33693C11.3557 4.33023 11.3564 4.32353 11.3572 4.31687C11.358 4.31021 11.3589 4.30356 11.3601 4.29694C11.3612 4.29031 11.3625 4.28372 11.3639 4.27716C11.3653 4.27061 11.3669 4.26408 11.3687 4.2576C11.3704 4.25111 11.3723 4.24466 11.3743 4.23828C11.3764 4.23188 11.3786 4.22553 11.3809 4.21924C11.3833 4.21295 11.3858 4.20673 11.3884 4.20056C11.3911 4.19439 11.3939 4.18827 11.3968 4.18222C11.3997 4.17619 11.4028 4.17022 11.406 4.16433C11.4093 4.15844 11.4126 4.15262 11.4161 4.14689C11.4196 4.14116 11.4232 4.13552 11.427 4.12995C11.4308 4.12439 11.4347 4.11892 11.4387 4.11354C11.4427 4.10817 11.4469 4.10289 11.4511 4.09772C11.4554 4.09254 11.4598 4.08748 11.4643 4.0825C11.4688 4.07753 11.4735 4.07268 11.4782 4.06793C11.483 4.06317 11.4878 4.05854 11.4928 4.05403C11.4978 4.04951 11.5028 4.0451 11.508 4.04082C11.5132 4.03655 11.5185 4.0324 11.5239 4.02838C11.5292 4.02435 11.5347 4.02047 11.5403 4.01669C11.5458 4.01293 11.5515 4.00931 11.5572 4.00581C11.5629 4.00231 11.5688 3.99894 11.5746 3.99572C11.5805 3.9925 11.5865 3.98943 11.5925 3.98649C11.5986 3.98355 11.6047 3.98076 11.6109 3.97812C11.617 3.97547 11.6233 3.97297 11.6296 3.97062C11.6359 3.96828 11.6422 3.96608 11.6486 3.96403C11.655 3.96197 11.6614 3.96009 11.6679 3.95835C11.6744 3.95661 11.6809 3.95501 11.6875 3.95358C11.694 3.95216 11.7006 3.95088 11.7073 3.94975C11.7139 3.94864 11.7205 3.94768 11.7272 3.94687C11.7339 3.94608 11.7405 3.94543 11.7472 3.94494C11.7539 3.94446 11.7606 3.94413 11.7674 3.94397C11.7741 3.94397 11.7809 3.94413 11.7876 3.94446C11.7944 3.94479 11.8011 3.9453 11.8078 3.94596C11.8146 3.94662 11.8213 3.94745 11.828 3.94843C11.8347 3.94944 11.8413 3.9506 11.848 3.95191C11.8546 3.95323 11.8612 3.95471 11.8677 3.95634C11.8743 3.95798 11.8808 3.95979 11.8873 3.96176C11.8937 3.96371 11.9002 3.96584 11.9065 3.96812C11.9129 3.97039 11.9192 3.97283 11.9254 3.97542C11.9317 3.978 11.9379 3.98074 11.944 3.98362C11.9501 3.98653 11.9561 3.98957 11.9621 3.99275C11.968 3.99593 11.9739 3.99927 11.9797 4.00273C11.9855 4.00621 11.9912 4.00983 11.9969 4.01358C12.0025 4.01734 12.008 4.02124 12.0134 4.02527C12.0189 4.02929 12.0242 4.03344 12.0294 4.03773C12.0346 4.04202 12.0398 4.04643 12.0448 4.05098C12.0498 4.05552 12.0547 4.06018 12.0595 4.06496C12.0642 4.06974 12.0689 4.07463 12.0734 4.07964C12.078 4.08465 12.0824 4.08978 12.0867 4.095C12.091 4.10022 12.0951 4.10555 12.0991 4.11098C12.1032 4.11641 12.1071 4.12193 12.1108 4.12755C12.1146 4.13318 12.1182 4.13889 12.1217 4.14469C12.1251 4.15048 12.1285 4.15636 12.1317 4.16232C12.1348 4.16828 12.1379 4.17433 12.1408 4.18043C12.1437 4.18655 12.1464 4.19273 12.149 4.19897C12.1516 4.20521 12.154 4.21153 12.1563 4.21789C12.1586 4.22425 12.1607 4.23067 12.1627 4.23714C12.1646 4.24361 12.1664 4.25013 12.1681 4.25668C12.1697 4.26324 12.1712 4.26983 12.1725 4.27646C12.1738 4.28309 12.175 4.28975 12.176 4.29645C12.177 4.30312 12.1778 4.30984 12.1785 4.31657C12.1791 4.3233 12.1796 4.33004 12.18 4.33679C12.1803 4.34354 12.1804 4.35029 12.1804 4.35705C12.1806 4.36386 12.1806 4.37068 12.1805 4.37748C12.1803 4.38428 12.18 4.39109 12.1795 4.39789C12.179 4.40467 12.1783 4.41144 12.1774 4.41821C12.1766 4.42496 12.1755 4.43169 12.1743 4.43841C12.1732 4.4451 12.1718 4.45178 12.1702 4.45841C12.1687 4.46504 12.167 4.47163 12.1652 4.47819C12.1633 4.48474 12.1612 4.49123 12.1591 4.49768C12.1569 4.50413 12.1545 4.51051 12.152 4.51684C12.1495 4.52317 12.1468 4.52943 12.1439 4.53561C12.1411 4.5418 12.1381 4.54792 12.1349 4.55396C12.1318 4.55999 12.1285 4.56595 12.125 4.57182C12.1216 4.5777 12.118 4.58348 12.1142 4.58916C12.1105 4.59485 12.1066 4.60044 12.1026 4.60593C12.0985 4.61143 12.0944 4.61681 12.0901 4.62208C12.0858 4.62737 12.0813 4.63254 12.0768 4.63758C12.0722 4.64263 12.0675 4.64757 12.0627 4.65238C12.0579 4.6572 12.0529 4.66189 12.0479 4.66646C12.0428 4.67102 12.0377 4.67545 12.0324 4.67975C12.0271 4.68406 12.0217 4.68823 12.0162 4.69225C12.0107 4.69628 12.0052 4.70018 11.9995 4.70392C11.9938 4.70767 11.988 4.71127 11.9821 4.71472C11.9763 4.71818 11.9703 4.72148 11.9643 4.72463C11.9582 4.72778 11.9521 4.73077 11.9459 4.73361C11.9397 4.73644 11.9335 4.73913 11.9271 4.74165C11.9208 4.74418 11.9144 4.74653 11.908 4.74873C11.9015 4.75093 11.895 4.75297 11.8885 4.75483C11.8819 4.75669 11.8753 4.7584 11.8687 4.75993C11.8621 4.76146 11.8554 4.76283 11.8487 4.76402C11.842 4.76522 11.8353 4.76624 11.8285 4.7671C11.8217 4.76796 11.815 4.76863 11.8082 4.76914C11.8014 4.76965 11.7946 4.76998 11.7878 4.77014C11.781 4.7703 11.7742 4.7703 11.7674 4.77012ZM16.3747 9.90707L14.7542 7.54513C14.8198 7.48352 14.8835 7.41992 14.9452 7.35437C15.0069 7.28882 15.0665 7.22143 15.124 7.15219C15.1815 7.08295 15.2369 7.01198 15.29 6.93932C15.3431 6.86665 15.394 6.79242 15.4425 6.7166C15.491 6.64079 15.5372 6.56353 15.5809 6.48487C15.6247 6.40621 15.666 6.32626 15.7048 6.24503C15.7436 6.1638 15.7798 6.08147 15.8135 5.99801C15.8473 5.91453 15.8784 5.8301 15.9068 5.74472C15.9353 5.65933 15.9611 5.57314 15.9843 5.48615C16.0074 5.39916 16.0279 5.31155 16.0456 5.22329C16.0634 5.13503 16.0783 5.04631 16.0906 4.95714C16.1028 4.86795 16.1123 4.77847 16.119 4.6887C16.1257 4.59893 16.1296 4.50905 16.1308 4.41903C16.1319 4.32902 16.1302 4.23907 16.1258 4.14916C16.1214 4.05925 16.1142 3.96956 16.1042 3.88011C16.0942 3.79065 16.0815 3.70158 16.066 3.6129C16.0505 3.52422 16.0323 3.43612 16.0114 3.34856C15.9904 3.26101 15.9668 3.17419 15.9405 3.08811C15.9142 3.00203 15.8852 2.91683 15.8536 2.83254C15.8221 2.74825 15.7879 2.665 15.7511 2.58282C15.7144 2.50065 15.6752 2.41968 15.6334 2.33993C15.5917 2.26018 15.5475 2.1818 15.5009 2.10479C15.4543 2.02778 15.4054 1.95226 15.3541 1.87828C15.3028 1.80429 15.2493 1.73195 15.1936 1.66127C15.1378 1.5906 15.0799 1.52171 15.0199 1.45461C14.9599 1.38752 14.8979 1.32234 14.8338 1.25909C14.7698 1.19583 14.7039 1.13461 14.636 1.07543C14.5682 1.01626 14.4986 0.959238 14.4272 0.904359C14.3559 0.849493 14.2829 0.796887 14.2083 0.746543C14.1336 0.696189 14.0575 0.648188 13.98 0.602543C13.9024 0.5569 13.8234 0.513698 13.7432 0.472941C13.6629 0.432183 13.5815 0.393945 13.4988 0.358226C13.4162 0.322508 13.3326 0.289378 13.2479 0.258836C13.1632 0.228296 13.0777 0.200401 12.9913 0.175154C12.9049 0.149906 12.8178 0.127354 12.73 0.107496C12.6422 0.08764 12.5538 0.0705159 12.465 0.0561241C12.3761 0.0417335 12.2869 0.0301038 12.1973 0.0212351C12.1077 0.0123651 12.018 0.00627316 11.928 0.00295901C11.838 -0.00035499 11.7481 -0.000885262 11.6581 0.0013682C11.5681 0.00362299 11.4783 0.0086567 11.3886 0.0164696C11.2989 0.0242826 11.2096 0.0348604 11.1205 0.0482034C11.0315 0.0615463 10.943 0.0776287 10.8549 0.0964501C10.7669 0.11527 10.6796 0.136795 10.5929 0.161023C10.5062 0.185251 10.4203 0.212135 10.3353 0.241675C10.2502 0.271216 10.1662 0.303358 10.0832 0.338099C10.0001 0.372843 9.91823 0.410119 9.83749 0.449928C9.75676 0.489739 9.67732 0.532009 9.5992 0.576738C9.52109 0.621457 9.44443 0.668556 9.36921 0.718031C9.29401 0.767496 9.22041 0.819241 9.14839 0.873264C9.07639 0.927288 9.00613 0.983486 8.9376 1.04186C8.86908 1.10023 8.80242 1.16067 8.73763 1.22317C8.67285 1.28567 8.61006 1.35011 8.54926 1.4165C8.48846 1.48287 8.42978 1.55107 8.3732 1.62109C8.31662 1.69111 8.26226 1.7628 8.21013 1.83618C8.15799 1.90956 8.10817 1.98448 8.06066 2.06095C8.01315 2.13741 7.96806 2.21527 7.92538 2.29453C7.88268 2.37379 7.8425 2.45428 7.80479 2.53601C7.76709 2.61775 7.73195 2.70058 7.69938 2.7845C7.6668 2.86842 7.63685 2.95327 7.60952 3.03903C7.58218 3.12479 7.55754 3.21133 7.53557 3.29862C7.51359 3.38592 7.49435 3.47381 7.4778 3.56229C7.46126 3.65078 7.44748 3.73969 7.43646 3.82903C7.42544 3.91837 7.41718 4.00797 7.41168 4.09781C7.40619 4.18765 7.40348 4.2776 7.40357 4.36762C7.40357 4.43921 7.40533 4.51076 7.40885 4.58227C7.41234 4.65376 7.41762 4.72514 7.42463 4.79638C7.43164 4.86763 7.44042 4.93864 7.45091 5.00947C7.46142 5.08029 7.47366 5.15079 7.48763 5.22102C7.50159 5.29123 7.51727 5.36105 7.53467 5.4305C7.55205 5.49995 7.57114 5.56893 7.59192 5.63743C7.61272 5.70593 7.63516 5.77389 7.65928 5.8413C7.6834 5.90871 7.70915 5.97547 7.73655 6.04162C7.76394 6.10777 7.79294 6.17319 7.82355 6.2379C7.85415 6.30262 7.88634 6.36655 7.92009 6.42967C7.95384 6.49281 7.98912 6.55509 8.02593 6.61649C8.06272 6.67789 8.101 6.73836 8.14078 6.79788C8.18056 6.85742 8.22176 6.91594 8.26441 6.97344C8.30705 7.03093 8.35109 7.08734 8.39651 7.14269C8.44191 7.19803 8.48867 7.25222 8.53675 7.30526C8.58482 7.35831 8.63418 7.41015 8.68479 7.46077C8.73541 7.51138 8.78725 7.56074 8.8403 7.60881C8.89334 7.65689 8.94753 7.70363 9.00286 7.74905C9.05822 7.79446 9.11464 7.83849 9.17214 7.88115C9.22964 7.9238 9.28814 7.965 9.34768 8.00478C9.4072 8.04456 9.46767 8.08284 9.52907 8.11963C9.59047 8.15644 9.65275 8.19172 9.71589 8.22547C9.77903 8.25922 9.84296 8.29141 9.90766 8.32201C9.97239 8.35262 10.0378 8.3816 10.104 8.40901C10.1701 8.43641 10.2369 8.46216 10.3043 8.48628C10.3717 8.5104 10.4396 8.53284 10.5082 8.55364C10.5767 8.57442 10.6456 8.59351 10.7151 8.61089C10.7845 8.62829 10.8543 8.64397 10.9246 8.65793C10.9948 8.6719 11.0653 8.68414 11.1361 8.69463C11.2069 8.70514 11.2779 8.71392 11.3492 8.72093C11.4204 8.72794 11.4918 8.7332 11.5633 8.73671C11.6348 8.74023 11.7064 8.74199 11.778 8.74199C11.8169 8.7419 11.8559 8.74129 11.8948 8.74014C11.9338 8.739 11.9727 8.73733 12.0116 8.73513C12.0505 8.73293 12.0893 8.73021 12.1281 8.72696C12.167 8.72371 12.2057 8.71994 12.2445 8.71566C12.2832 8.71135 12.3218 8.70653 12.3604 8.70119C12.399 8.69585 12.4375 8.68999 12.476 8.68361C12.5144 8.67723 12.5527 8.67032 12.591 8.6629C12.6292 8.65549 12.6674 8.64754 12.7054 8.63909C12.7434 8.63063 12.7814 8.62167 12.8191 8.61219C12.8569 8.60272 12.8946 8.59273 12.9321 8.58224C12.9696 8.57174 13.007 8.56076 13.0442 8.54924C13.0814 8.53773 13.1185 8.52572 13.1554 8.51323C13.1923 8.50071 13.229 8.4877 13.2655 8.4742C13.3021 8.4607 13.3384 8.44671 13.3746 8.43223C13.4108 8.41774 13.4467 8.40277 13.4825 8.38731C13.5183 8.37186 13.5538 8.35592 13.5891 8.3395L15.2203 10.712C15.2267 10.7211 15.2334 10.7301 15.2403 10.7389C15.2472 10.7477 15.2543 10.7563 15.2616 10.7647C15.2689 10.7732 15.2764 10.7814 15.2841 10.7895C15.2918 10.7976 15.2997 10.8055 15.3078 10.8132C15.3159 10.821 15.3242 10.8285 15.3326 10.8358C15.341 10.8431 15.3496 10.8502 15.3584 10.8571C15.3672 10.864 15.3761 10.8707 15.3853 10.8772C15.3944 10.8836 15.4036 10.8899 15.413 10.8959C15.4224 10.9019 15.432 10.9077 15.4416 10.9133C15.4513 10.9189 15.4611 10.9242 15.4711 10.9293C15.481 10.9344 15.4911 10.9393 15.5012 10.9439C15.5114 10.9485 15.5217 10.9529 15.5321 10.957C15.5425 10.9612 15.5529 10.965 15.5635 10.9686C15.574 10.9723 15.5847 10.9756 15.5954 10.9788C15.6062 10.9819 15.617 10.9847 15.6278 10.9873C15.6387 10.9899 15.6496 10.9923 15.6606 10.9943C15.6715 10.9964 15.6826 10.9982 15.6936 10.9998C15.7047 11.0013 15.7158 11.0026 15.7269 11.0036C15.738 11.0046 15.7492 11.0054 15.7603 11.0058C15.7715 11.0063 15.7827 11.0065 15.7938 11.0065C15.805 11.0064 15.8162 11.0061 15.8273 11.0055C15.8385 11.0049 15.8496 11.004 15.8607 11.0029C15.8719 11.0018 15.8829 11.0004 15.894 10.9988C15.905 10.9971 15.916 10.9952 15.927 10.993C15.9379 10.9908 15.9488 10.9884 15.9597 10.9857C15.9705 10.983 15.9813 10.98 15.992 10.9768C16.0027 10.9735 16.0133 10.9701 16.0238 10.9663C16.0343 10.9626 16.0448 10.9586 16.0551 10.9544C16.0654 10.9502 16.0757 10.9457 16.0858 10.941C16.0959 10.9362 16.1059 10.9313 16.1158 10.9261C16.1257 10.9209 16.1355 10.9155 16.1451 10.9098C16.1547 10.9041 16.1642 10.8982 16.1735 10.8921C16.1826 10.8858 16.1915 10.8792 16.2003 10.8724C16.2091 10.8657 16.2177 10.8587 16.2261 10.8515C16.2345 10.8443 16.2428 10.8369 16.2509 10.8293C16.2589 10.8217 16.2668 10.8139 16.2745 10.8059C16.2822 10.7979 16.2896 10.7898 16.2969 10.7814C16.3042 10.7731 16.3113 10.7645 16.3182 10.7558C16.325 10.7471 16.3317 10.7383 16.3381 10.7293C16.3445 10.7202 16.3507 10.7111 16.3567 10.7017C16.3627 10.6924 16.3685 10.6829 16.374 10.6733C16.3795 10.6637 16.3848 10.654 16.3898 10.6441C16.3948 10.6342 16.3996 10.6243 16.4042 10.6141C16.4087 10.604 16.413 10.5938 16.4171 10.5835C16.4211 10.5732 16.4249 10.5628 16.4285 10.5523C16.432 10.5418 16.4353 10.5312 16.4383 10.5206C16.4413 10.5099 16.4441 10.4992 16.4466 10.4884C16.449 10.4776 16.4513 10.4667 16.4532 10.4558C16.4552 10.4449 16.4569 10.434 16.4583 10.423C16.4597 10.412 16.4609 10.401 16.4618 10.3899C16.4627 10.3789 16.4633 10.3678 16.4636 10.3567C16.464 10.3457 16.464 10.3346 16.4638 10.3235C16.4636 10.3124 16.4631 10.3014 16.4624 10.2903C16.4616 10.2792 16.4606 10.2682 16.4593 10.2572C16.4581 10.2462 16.4565 10.2352 16.4547 10.2243C16.4529 10.2134 16.4508 10.2025 16.4484 10.1917C16.4461 10.1808 16.4434 10.1701 16.4406 10.1594C16.4377 10.1487 16.4345 10.1381 16.4311 10.1275C16.4277 10.117 16.424 10.1065 16.4201 10.0962C16.4162 10.0858 16.412 10.0755 16.4076 10.0654C16.4032 10.0552 16.3985 10.0452 16.3936 10.0352C16.3887 10.0253 16.3835 10.0155 16.3781 10.0058C16.3727 9.99613 16.3671 9.98659 16.3612 9.97719C16.3554 9.96778 16.3493 9.95854 16.343 9.94943L16.3747 9.90707ZM11.7673 7.87345C11.7098 7.87345 11.6523 7.87205 11.5948 7.86922C11.5373 7.86639 11.48 7.86217 11.4227 7.85652C11.3654 7.85088 11.3083 7.84383 11.2514 7.8354C11.1945 7.82694 11.1378 7.81711 11.0813 7.80588C11.0249 7.79465 10.9688 7.78205 10.9129 7.76807C10.8571 7.7541 10.8017 7.73875 10.7466 7.72203C10.6915 7.70534 10.6369 7.68728 10.5827 7.66789C10.5285 7.64851 10.4749 7.6278 10.4217 7.60577C10.3685 7.58375 10.3159 7.56044 10.2639 7.53583C10.2119 7.51124 10.1605 7.48536 10.1097 7.45824C10.059 7.43112 10.0089 7.40275 9.95955 7.37316C9.9102 7.34358 9.86159 7.3128 9.81374 7.28082C9.76588 7.24885 9.71884 7.21573 9.67263 7.18145C9.62641 7.14716 9.58104 7.11178 9.53655 7.07527C9.49206 7.03876 9.44851 7.00117 9.40588 6.96252C9.36323 6.92386 9.32157 6.88421 9.28088 6.84352C9.24019 6.80282 9.20051 6.76114 9.16186 6.71852C9.12321 6.67587 9.08564 6.63231 9.04913 6.58782C9.01262 6.54333 8.97724 6.49798 8.94294 6.45175C8.90866 6.40554 8.87555 6.3585 8.84357 6.31065C8.8116 6.26279 8.78082 6.21418 8.75123 6.16482C8.72165 6.11546 8.69328 6.0654 8.66616 6.01465C8.63903 5.96391 8.61316 5.91251 8.58855 5.86049C8.56396 5.80846 8.54063 5.75587 8.51861 5.7027C8.49658 5.64952 8.47589 5.59586 8.4565 5.54166C8.43711 5.48749 8.41906 5.43285 8.40236 5.37778C8.38564 5.32271 8.3703 5.26727 8.35632 5.21144C8.34235 5.15561 8.32975 5.09948 8.31851 5.04304C8.30728 4.9866 8.29745 4.92991 8.289 4.87299C8.28056 4.81605 8.27351 4.75896 8.26787 4.70169C8.26223 4.64442 8.25801 4.58705 8.25518 4.52957C8.25235 4.47209 8.25094 4.41457 8.25094 4.35702C8.25094 4.29947 8.25235 4.24195 8.25518 4.18447C8.25801 4.12699 8.26223 4.06962 8.26787 4.01235C8.27351 3.95508 8.28056 3.89798 8.289 3.84105C8.29745 3.78411 8.30728 3.72744 8.31851 3.671C8.32975 3.61455 8.34235 3.55841 8.35632 3.5026C8.3703 3.44677 8.38564 3.39133 8.40236 3.33626C8.41906 3.28119 8.43711 3.22655 8.4565 3.17238C8.47589 3.11818 8.4966 3.06452 8.51862 3.01134C8.54065 2.95817 8.56396 2.90558 8.58857 2.85354C8.61316 2.80153 8.63903 2.75013 8.66616 2.69938C8.69328 2.64864 8.72165 2.59857 8.75123 2.54921C8.78082 2.49986 8.8116 2.45125 8.84357 2.40339C8.87555 2.35554 8.90866 2.3085 8.94294 2.26229C8.97724 2.21606 9.01262 2.17071 9.04913 2.12621C9.08564 2.08172 9.12322 2.03817 9.16188 1.99552C9.20053 1.95289 9.24019 1.91122 9.28088 1.87052C9.32157 1.82983 9.36325 1.79017 9.40588 1.75152C9.44852 1.71287 9.49208 1.67529 9.53657 1.63877C9.58106 1.60227 9.62641 1.56688 9.67264 1.5326C9.71886 1.49831 9.7659 1.46518 9.81374 1.43321C9.86161 1.40123 9.91021 1.37046 9.95957 1.34088C10.0089 1.31129 10.059 1.28293 10.1097 1.2558C10.1605 1.22867 10.2119 1.20281 10.2639 1.17821C10.3159 1.1536 10.3685 1.13029 10.4217 1.10827C10.4749 1.08623 10.5285 1.06553 10.5827 1.04614C10.6369 1.02675 10.6915 1.0087 10.7466 0.992004C10.8017 0.975294 10.8571 0.959948 10.913 0.945967C10.9688 0.931987 11.0249 0.919383 11.0814 0.908156C11.1378 0.896931 11.1945 0.887092 11.2514 0.878643C11.3083 0.870205 11.3654 0.863163 11.4227 0.857514C11.48 0.851878 11.5373 0.847647 11.5948 0.844822C11.6523 0.841999 11.7098 0.840586 11.7674 0.840586C11.8249 0.840586 11.8824 0.841999 11.9399 0.844822C11.9974 0.847647 12.0548 0.851878 12.112 0.857514C12.1693 0.863163 12.2264 0.870205 12.2833 0.878643C12.3403 0.887092 12.397 0.896931 12.4534 0.908156C12.5098 0.919383 12.566 0.931987 12.6218 0.945967C12.6776 0.959948 12.7331 0.975294 12.7881 0.992004C12.8432 1.00872 12.8978 1.02676 12.952 1.04614C13.0062 1.06553 13.0599 1.08623 13.1131 1.10827C13.1662 1.13029 13.2188 1.1536 13.2709 1.17821C13.3229 1.20281 13.3743 1.22867 13.425 1.2558C13.4758 1.28293 13.5258 1.31129 13.5752 1.34088C13.6245 1.37047 13.6731 1.40125 13.721 1.43321C13.7689 1.46518 13.8159 1.49831 13.8621 1.5326C13.9083 1.56688 13.9537 1.60228 13.9982 1.63879C14.0427 1.6753 14.0862 1.71287 14.1289 1.75152C14.1715 1.79017 14.2132 1.82985 14.2539 1.87054C14.2946 1.91123 14.3342 1.95289 14.3729 1.99554C14.4115 2.03818 14.4491 2.08174 14.4856 2.12623C14.5221 2.17072 14.5575 2.21607 14.5918 2.2623C14.6261 2.30852 14.6592 2.35556 14.6912 2.4034C14.7232 2.45127 14.7539 2.49987 14.7835 2.54923C14.8131 2.59859 14.8415 2.64865 14.8686 2.6994C14.8957 2.75015 14.9216 2.80155 14.9462 2.85356C14.9708 2.90559 14.9941 2.95819 15.0161 3.01136C15.0382 3.06454 15.0589 3.1182 15.0783 3.17239C15.0976 3.22659 15.1157 3.2812 15.1324 3.33628C15.1491 3.39135 15.1645 3.44681 15.1784 3.50262C15.1924 3.55845 15.205 3.61459 15.2162 3.67103C15.2275 3.72748 15.2373 3.78415 15.2458 3.84108C15.2542 3.89802 15.2612 3.95511 15.2669 4.01238C15.2725 4.06965 15.2767 4.12703 15.2796 4.18451C15.2824 4.24199 15.2838 4.2995 15.2838 4.35705C15.2838 4.41461 15.2824 4.47212 15.2796 4.5296C15.2767 4.58708 15.2725 4.64446 15.2669 4.70173C15.2612 4.759 15.2542 4.81609 15.2458 4.87303C15.2373 4.92996 15.2275 4.98663 15.2162 5.04308C15.205 5.09952 15.1924 5.15566 15.1784 5.21147C15.1645 5.2673 15.1491 5.32276 15.1324 5.37783C15.1157 5.43291 15.0976 5.48752 15.0783 5.54171C15.0589 5.59591 15.0382 5.64957 15.0161 5.70275C14.9941 5.75592 14.9708 5.80852 14.9462 5.86053C14.9216 5.91254 14.8957 5.96394 14.8686 6.01469C14.8415 6.06544 14.8131 6.1155 14.7835 6.16488C14.754 6.21424 14.7232 6.26284 14.6912 6.31069C14.6592 6.35853 14.6261 6.40557 14.5918 6.4518C14.5575 6.49802 14.5221 6.54337 14.4856 6.58786C14.4491 6.63235 14.4115 6.67593 14.3729 6.71855C14.3342 6.7612 14.2946 6.80286 14.2539 6.84355C14.2132 6.88424 14.1715 6.92392 14.1289 6.96257C14.0862 7.00123 14.0427 7.03879 13.9982 7.0753C13.9537 7.11181 13.9083 7.14721 13.8621 7.18149C13.8159 7.21579 13.7689 7.2489 13.721 7.28088C13.6732 7.31285 13.6246 7.34363 13.5752 7.37321C13.5258 7.4028 13.4758 7.43117 13.425 7.45829C13.3743 7.48542 13.3229 7.51129 13.2709 7.53588C13.2188 7.56049 13.1662 7.5838 13.1131 7.60583C13.0599 7.62785 13.0062 7.64856 12.952 7.66795C12.8978 7.68734 12.8432 7.70537 12.7881 7.72209C12.7331 7.7388 12.6776 7.75415 12.6218 7.76812C12.566 7.7821 12.5098 7.7947 12.4534 7.80594C12.397 7.81717 12.3403 7.82699 12.2833 7.83545C12.2264 7.84389 12.1693 7.85094 12.112 7.85658C12.0548 7.86222 11.9974 7.86644 11.9399 7.86927C11.8824 7.8721 11.8249 7.87351 11.7674 7.87351L11.7673 7.87345ZM13.0384 11.6123C13.0384 11.6201 13.0382 11.6279 13.0378 11.6357C13.0374 11.6435 13.0368 11.6513 13.0361 11.659C13.0353 11.6668 13.0344 11.6745 13.0332 11.6823C13.0321 11.69 13.0307 11.6977 13.0292 11.7053C13.0277 11.713 13.026 11.7206 13.0241 11.7281C13.0222 11.7357 13.0201 11.7432 13.0178 11.7507C13.0156 11.7581 13.0131 11.7655 13.0105 11.7729C13.0079 11.7802 13.0051 11.7875 13.0021 11.7947C12.9991 11.8019 12.9959 11.8091 12.9926 11.8161C12.9893 11.8232 12.9858 11.8301 12.9821 11.837C12.9784 11.8439 12.9746 11.8507 12.9705 11.8574C12.9665 11.8641 12.9624 11.8706 12.958 11.8771C12.9537 11.8836 12.9492 11.89 12.9446 11.8962C12.9399 11.9025 12.9351 11.9087 12.9302 11.9147C12.9252 11.9207 12.9201 11.9266 12.9149 11.9324C12.9097 11.9382 12.9043 11.9438 12.8988 11.9493C12.8933 11.9549 12.8876 11.9602 12.8818 11.9655C12.876 11.9707 12.8701 11.9758 12.8641 11.9808C12.8581 11.9857 12.8519 11.9905 12.8457 11.9952C12.8394 11.9998 12.833 12.0043 12.8265 12.0086C12.82 12.013 12.8135 12.0171 12.8068 12.0211C12.8001 12.0252 12.7933 12.029 12.7864 12.0327C12.7795 12.0363 12.7726 12.0399 12.7655 12.0432C12.7585 12.0465 12.7513 12.0497 12.7441 12.0527C12.7369 12.0557 12.7296 12.0585 12.7223 12.0611C12.715 12.0637 12.7076 12.0662 12.7001 12.0684C12.6926 12.0707 12.6851 12.0728 12.6775 12.0747C12.67 12.0766 12.6624 12.0783 12.6547 12.0798C12.6471 12.0813 12.6394 12.0826 12.6317 12.0838C12.624 12.0849 12.6162 12.0859 12.6085 12.0866C12.6007 12.0874 12.5929 12.088 12.5851 12.0884C12.5773 12.0888 12.5695 12.089 12.5617 12.089L1.46166 12.089C1.45385 12.089 1.44606 12.0888 1.43828 12.0884C1.43048 12.088 1.4227 12.0874 1.41493 12.0866C1.40718 12.0859 1.39943 12.0849 1.39171 12.0838C1.384 12.0826 1.37632 12.0813 1.36867 12.0798C1.36102 12.0783 1.35341 12.0766 1.34585 12.0747C1.33828 12.0728 1.33076 12.0707 1.3233 12.0684C1.31583 12.0662 1.30843 12.0637 1.30108 12.0611C1.29373 12.0585 1.28646 12.0557 1.27927 12.0527C1.27206 12.0497 1.26493 12.0465 1.25787 12.0432C1.25082 12.0399 1.24385 12.0363 1.23697 12.0327C1.23009 12.029 1.22331 12.0252 1.21662 12.0211C1.20993 12.0171 1.20334 12.013 1.19686 12.0086C1.19037 12.0043 1.18399 11.9998 1.17773 11.9952C1.17146 11.9905 1.16531 11.9857 1.15928 11.9808C1.15325 11.9758 1.14735 11.9707 1.14158 11.9655C1.13579 11.9602 1.13014 11.9549 1.12463 11.9493C1.11911 11.9438 1.11373 11.9382 1.10849 11.9324C1.10326 11.9266 1.09816 11.9207 1.09322 11.9147C1.08827 11.9087 1.08348 11.9025 1.07882 11.8962C1.07418 11.89 1.06969 11.8836 1.06536 11.8771C1.06102 11.8706 1.05685 11.8641 1.05284 11.8574C1.04882 11.8507 1.04498 11.8439 1.04131 11.837C1.03763 11.8301 1.03412 11.8232 1.03078 11.8161C1.02745 11.8091 1.02429 11.8019 1.02131 11.7947C1.01832 11.7875 1.01551 11.7802 1.01289 11.7729C1.01026 11.7655 1.00782 11.7581 1.00556 11.7507C1.00328 11.7432 1.0012 11.7357 0.999316 11.7281C0.997418 11.7206 0.995708 11.713 0.994184 11.7053C0.99266 11.6977 0.991324 11.69 0.990176 11.6823C0.989038 11.6745 0.988089 11.6668 0.987328 11.659C0.986555 11.6513 0.98598 11.6435 0.985605 11.6357C0.985219 11.6279 0.985025 11.6201 0.985025 11.6123L0.985025 2.35522C0.98553 2.34775 0.986203 2.34032 0.987047 2.33288C0.987903 2.32545 0.988928 2.31804 0.990123 2.31066C0.991318 2.30328 0.992689 2.29593 0.994236 2.2886C0.995783 2.28129 0.997501 2.27401 0.999387 2.26677C1.00127 2.25953 1.00332 2.25234 1.00554 2.2452C1.00777 2.23806 1.01016 2.23098 1.01273 2.22395C1.01528 2.21692 1.018 2.20996 1.02088 2.20305C1.02378 2.19614 1.02683 2.18932 1.03004 2.18257C1.03324 2.1758 1.0366 2.16912 1.04013 2.16253C1.04366 2.15594 1.04733 2.14942 1.05115 2.143C1.05499 2.13657 1.05896 2.13024 1.06309 2.124C1.06723 2.11776 1.0715 2.11162 1.0759 2.1056C1.08032 2.09955 1.08488 2.09362 1.08958 2.08781C1.09428 2.08199 1.09911 2.07628 1.10406 2.07067C1.10903 2.06508 1.11412 2.05961 1.11934 2.05425C1.12457 2.04889 1.12992 2.04367 1.13539 2.03855C1.14085 2.03346 1.14643 2.02848 1.15214 2.02365C1.15785 2.01881 1.16366 2.0141 1.16958 2.00953C1.17551 2.00496 1.18154 2.00053 1.18767 1.99626C1.1938 1.99197 1.20002 1.98784 1.20635 1.98385C1.21268 1.97986 1.2191 1.97601 1.2256 1.97234C1.23212 1.96864 1.23871 1.96511 1.24537 1.96174C1.25205 1.95834 1.2588 1.95513 1.26562 1.95207C1.27246 1.94901 1.27935 1.94611 1.28631 1.94338C1.29328 1.94064 1.30029 1.93808 1.30737 1.93567C1.31446 1.93326 1.3216 1.93103 1.32878 1.92895C1.33597 1.9269 1.3432 1.925 1.35047 1.92326C1.35775 1.92154 1.36507 1.91999 1.37243 1.9186C1.37978 1.91721 1.38715 1.916 1.39456 1.91496C1.40197 1.91392 1.4094 1.91306 1.41685 1.91238C1.42429 1.91169 1.43175 1.91118 1.43923 1.91085C1.4467 1.91051 1.45418 1.91036 1.46166 1.91037L6.75749 1.91037C6.82374 1.77328 6.89578 1.63931 6.97359 1.50843C7.05141 1.37756 7.13473 1.25027 7.22352 1.12658L1.05917 1.12658C1.04238 1.12656 1.02559 1.12694 1.00881 1.12772C0.992027 1.1285 0.975275 1.12967 0.958553 1.13124C0.941841 1.13282 0.925172 1.1348 0.908543 1.13716C0.891914 1.13953 0.87535 1.14229 0.85885 1.14544C0.842349 1.1486 0.825938 1.15214 0.809613 1.15608C0.793288 1.16002 0.777064 1.16434 0.760939 1.16905C0.744815 1.17376 0.728812 1.17885 0.712934 1.18431C0.697055 1.18978 0.681316 1.19563 0.665719 1.20185C0.650111 1.20806 0.634662 1.21465 0.619374 1.22161C0.604085 1.22856 0.588969 1.23587 0.574029 1.24355C0.559088 1.25121 0.544338 1.25923 0.529778 1.26761C0.515218 1.27598 0.500868 1.28469 0.486722 1.29375C0.472577 1.30281 0.458655 1.3122 0.444957 1.32191C0.431258 1.33164 0.4178 1.34168 0.40458 1.35204C0.391359 1.3624 0.378392 1.37306 0.365679 1.38403C0.352965 1.39501 0.34052 1.40629 0.328344 1.41785C0.316167 1.42942 0.304272 1.44127 0.292658 1.45341C0.281044 1.46554 0.269728 1.47794 0.258704 1.49061C0.247681 1.50329 0.236965 1.51622 0.226557 1.5294C0.216149 1.54258 0.206061 1.55599 0.196291 1.56966C0.186521 1.58332 0.177082 1.59721 0.167973 1.61132C0.158864 1.62543 0.150096 1.63975 0.141669 1.65428C0.133241 1.66881 0.125163 1.68353 0.117436 1.69843C0.109709 1.71335 0.10234 1.72844 0.0953297 1.7437C0.0883194 1.75897 0.0816768 1.77439 0.0754014 1.78996C0.0691247 1.80555 0.0632227 1.82127 0.0576949 1.83712C0.0521659 1.85298 0.047018 1.86896 0.0422508 1.88508C0.0374824 1.90118 0.0330996 1.91739 0.0291023 1.9337C0.0251061 1.95001 0.0214996 1.96641 0.018283 1.9829C0.0150662 1.99937 0.0122431 2.01593 0.00981387 2.03256C0.00738452 2.04917 0.00535134 2.06583 0.00371426 2.08255C0.00207831 2.09927 0.000840203 2.11602 0 2.13279L0 12.0996C0.000839062 12.1163 0.0020771 12.1331 0.00371426 12.1498C0.00535013 12.1665 0.00738278 12.1832 0.00981206 12.1998C0.0122414 12.2164 0.0150638 12.233 0.0182795 12.2494C0.0214963 12.2659 0.0251033 12.2823 0.0291006 12.2986C0.0330966 12.315 0.0374788 12.3312 0.0422473 12.3473C0.0470143 12.3634 0.0521624 12.3794 0.0576914 12.3952C0.063219 12.4111 0.0691207 12.4268 0.0753961 12.4424C0.0816727 12.458 0.0883155 12.4734 0.0953244 12.4886C0.102335 12.5039 0.109703 12.519 0.117431 12.5339C0.125158 12.5488 0.133235 12.5635 0.141662 12.5781C0.15009 12.5926 0.158859 12.6069 0.167968 12.621C0.177077 12.6351 0.186516 12.649 0.196286 12.6627C0.206054 12.6763 0.216144 12.6898 0.226552 12.703C0.23696 12.7161 0.247676 12.7291 0.258699 12.7417C0.269722 12.7544 0.281039 12.7668 0.292653 12.7789C0.304267 12.7911 0.316162 12.8029 0.328338 12.8145C0.340515 12.8261 0.35296 12.8373 0.365672 12.8483C0.378387 12.8593 0.391354 12.87 0.404575 12.8803C0.417795 12.8907 0.431253 12.9007 0.444952 12.9104C0.45865 12.9201 0.472572 12.9296 0.486717 12.9386C0.500862 12.9477 0.515213 12.9564 0.529773 12.9647C0.544333 12.9731 0.559083 12.9811 0.574024 12.9888C0.588966 12.9965 0.604081 13.0038 0.619369 13.0107C0.634658 13.0177 0.650102 13.0243 0.665701 13.0305C0.681311 13.0367 0.697055 13.0426 0.712934 13.048C0.728812 13.0535 0.744815 13.0586 0.760939 13.0633C0.777064 13.068 0.793288 13.0723 0.809613 13.0763C0.825938 13.0802 0.842349 13.0838 0.85885 13.0869C0.87535 13.0901 0.891914 13.0928 0.908543 13.0952C0.92516 13.0976 0.941831 13.0995 0.958553 13.1011C0.975275 13.1027 0.992027 13.1039 1.00881 13.1046C1.02559 13.1054 1.04238 13.1058 1.05917 13.1058L6.29147 13.1058L6.29147 14.3556L3.44231 14.3556C3.43311 14.3556 3.42394 14.3558 3.41476 14.3562C3.40559 14.3567 3.39643 14.3574 3.38729 14.3583C3.37815 14.3592 3.36902 14.3603 3.35994 14.3617C3.35085 14.363 3.34181 14.3646 3.33279 14.3664C3.32378 14.3681 3.31481 14.3702 3.3059 14.3724C3.29699 14.3746 3.28815 14.3771 3.27936 14.3797C3.27055 14.3824 3.26183 14.3853 3.25318 14.3884C3.24453 14.3915 3.23597 14.3948 3.22748 14.3983C3.21899 14.4018 3.21059 14.4056 3.20229 14.4095C3.19398 14.4134 3.18579 14.4175 3.17769 14.4218C3.16958 14.4262 3.16158 14.4307 3.15371 14.4354C3.14582 14.4402 3.13806 14.4451 3.13042 14.4502C3.12279 14.4553 3.11528 14.4606 3.1079 14.466C3.10052 14.4715 3.09328 14.4772 3.08617 14.483C3.07907 14.4888 3.07211 14.4948 3.06531 14.501C3.05851 14.5072 3.05184 14.5135 3.04536 14.52C3.03887 14.5265 3.03253 14.5331 3.02636 14.5399C3.02019 14.5467 3.01419 14.5537 3.00836 14.5608C3.00254 14.5679 2.99688 14.5751 2.99141 14.5825C2.98594 14.5899 2.98065 14.5974 2.97554 14.605C2.97044 14.6127 2.96554 14.6204 2.96081 14.6283C2.95608 14.6362 2.95156 14.6442 2.94722 14.6523C2.94288 14.6604 2.93875 14.6686 2.93483 14.6769C2.93091 14.6852 2.92718 14.6936 2.92366 14.7021C2.92015 14.7106 2.91684 14.7192 2.91375 14.7278C2.91066 14.7365 2.90777 14.7452 2.9051 14.754C2.90245 14.7628 2.89999 14.7716 2.89775 14.7805C2.89552 14.7894 2.89352 14.7984 2.89172 14.8074C2.88993 14.8164 2.88837 14.8255 2.88701 14.8346C2.88566 14.8437 2.88454 14.8528 2.88364 14.8619C2.88274 14.8711 2.88206 14.8802 2.8816 14.8894C2.88116 14.8986 2.88093 14.9077 2.88093 14.9169C2.88093 14.9261 2.88116 14.9352 2.8816 14.9443C2.88206 14.9534 2.88274 14.9625 2.88364 14.9716C2.88454 14.9807 2.88568 14.9897 2.88703 14.9987C2.88838 15.0078 2.88995 15.0167 2.89176 15.0257C2.89355 15.0346 2.89557 15.0436 2.89782 15.0524C2.90006 15.0612 2.90252 15.07 2.90521 15.0787C2.90788 15.0875 2.91078 15.0961 2.91389 15.1047C2.917 15.1133 2.92031 15.1218 2.92384 15.1302C2.92737 15.1386 2.93112 15.1469 2.93505 15.1552C2.93901 15.1634 2.94316 15.1715 2.9475 15.1795C2.95184 15.1876 2.95639 15.1955 2.96114 15.2032C2.96589 15.211 2.97083 15.2187 2.97594 15.2263C2.98106 15.2338 2.98637 15.2412 2.99187 15.2485C2.99735 15.2558 3.00301 15.263 3.00887 15.27C3.01472 15.277 3.02073 15.2838 3.02692 15.2905C3.03311 15.2972 3.03945 15.3038 3.04597 15.3102C3.05249 15.3166 3.05916 15.3228 3.06598 15.3289C3.07281 15.3349 3.07978 15.3408 3.08689 15.3465C3.09401 15.3522 3.10126 15.3578 3.10866 15.3631C3.11604 15.3685 3.12356 15.3736 3.13121 15.3786C3.13886 15.3836 3.14662 15.3884 3.15452 15.393C3.16239 15.3976 3.17039 15.402 3.17849 15.4062C3.1866 15.4104 3.19481 15.4143 3.2031 15.4181C3.2114 15.4219 3.21978 15.4255 3.22828 15.4289C3.23677 15.4322 3.24533 15.4354 3.25396 15.4383C3.26259 15.4413 3.27129 15.444 3.28006 15.4465C3.28883 15.449 3.29767 15.4513 3.30655 15.4534C3.31545 15.4555 3.32437 15.4573 3.33336 15.459C3.34234 15.4606 3.35134 15.462 3.36039 15.4632C3.36945 15.4644 3.37852 15.4653 3.38762 15.466C3.39671 15.4668 3.40581 15.4673 3.41494 15.4676C3.42406 15.4678 3.43318 15.4679 3.44231 15.4677L10.5811 15.4677C10.5902 15.4679 10.5993 15.4678 10.6085 15.4676C10.6176 15.4673 10.6267 15.4668 10.6358 15.466C10.6449 15.4653 10.6539 15.4644 10.663 15.4632C10.672 15.462 10.681 15.4606 10.69 15.459C10.699 15.4573 10.7079 15.4555 10.7168 15.4534C10.7257 15.4513 10.7345 15.449 10.7433 15.4465C10.7521 15.444 10.7608 15.4413 10.7694 15.4383C10.7781 15.4354 10.7866 15.4322 10.7951 15.4289C10.8036 15.4255 10.812 15.4219 10.8203 15.4181C10.8286 15.4143 10.8368 15.4104 10.8449 15.4062C10.853 15.402 10.861 15.3976 10.8689 15.393C10.8768 15.3884 10.8845 15.3836 10.8922 15.3786C10.8998 15.3736 10.9073 15.3685 10.9147 15.3631C10.9221 15.3578 10.9294 15.3522 10.9365 15.3465C10.9436 15.3408 10.9506 15.3349 10.9574 15.3289C10.9642 15.3228 10.9709 15.3166 10.9774 15.3102C10.9839 15.3038 10.9903 15.2972 10.9965 15.2905C11.0026 15.2838 11.0087 15.277 11.0145 15.27C11.0204 15.263 11.026 15.2558 11.0315 15.2485C11.037 15.2412 11.0423 15.2338 11.0474 15.2263C11.0526 15.2187 11.0575 15.211 11.0622 15.2032C11.067 15.1955 11.0715 15.1876 11.0759 15.1795C11.0802 15.1715 11.0844 15.1634 11.0883 15.1551C11.0923 15.1469 11.096 15.1386 11.0995 15.1302C11.1031 15.1218 11.1064 15.1133 11.1095 15.1047C11.1126 15.0961 11.1155 15.0875 11.1182 15.0787C11.1209 15.07 11.1233 15.0612 11.1255 15.0524C11.1278 15.0435 11.1298 15.0346 11.1316 15.0257C11.1334 15.0167 11.135 15.0078 11.1363 14.9987C11.1377 14.9897 11.1388 14.9807 11.1397 14.9716C11.1406 14.9625 11.1413 14.9534 11.1418 14.9443C11.1422 14.9352 11.1424 14.9261 11.1424 14.9169C11.1424 14.9077 11.1422 14.8986 11.1418 14.8894C11.1413 14.8802 11.1406 14.8711 11.1397 14.8619C11.1388 14.8528 11.1377 14.8437 11.1364 14.8346C11.135 14.8255 11.1334 14.8164 11.1316 14.8074C11.1299 14.7984 11.1278 14.7894 11.1256 14.7805C11.1234 14.7716 11.1209 14.7628 11.1183 14.754C11.1156 14.7452 11.1127 14.7365 11.1096 14.7278C11.1065 14.7192 11.1032 14.7106 11.0997 14.7021C11.0962 14.6936 11.0925 14.6852 11.0885 14.6769C11.0846 14.6686 11.0805 14.6604 11.0762 14.6523C11.0718 14.6442 11.0673 14.6362 11.0626 14.6283C11.0578 14.6205 11.0529 14.6127 11.0478 14.6051C11.0427 14.5974 11.0374 14.5899 11.032 14.5825C11.0265 14.5751 11.0208 14.5679 11.015 14.5608C11.0092 14.5537 11.0032 14.5468 10.997 14.54C10.9908 14.5332 10.9845 14.5265 10.978 14.52C10.9715 14.5135 10.9649 14.5072 10.9581 14.501C10.9513 14.4948 10.9443 14.4888 10.9372 14.483C10.9301 14.4772 10.9229 14.4715 10.9155 14.466C10.9081 14.4606 10.9006 14.4553 10.893 14.4502C10.8853 14.4451 10.8776 14.4402 10.8697 14.4354C10.8618 14.4307 10.8538 14.4262 10.8457 14.4219C10.8376 14.4175 10.8294 14.4134 10.8211 14.4095C10.8128 14.4056 10.8044 14.4018 10.7959 14.3983C10.7874 14.3948 10.7789 14.3915 10.7702 14.3884C10.7615 14.3853 10.7528 14.3824 10.744 14.3797C10.7352 14.3771 10.7264 14.3746 10.7175 14.3724C10.7086 14.3702 10.6996 14.3681 10.6906 14.3664C10.6816 14.3646 10.6725 14.363 10.6635 14.3616C10.6544 14.3603 10.6452 14.3592 10.6361 14.3583C10.627 14.3574 10.6178 14.3567 10.6086 14.3562C10.5995 14.3558 10.5903 14.3556 10.5811 14.3556L7.74251 14.3556L7.74251 13.074L12.9854 13.074C13.0022 13.074 13.019 13.0736 13.0358 13.0729C13.0525 13.0721 13.0693 13.0709 13.086 13.0693C13.1027 13.0678 13.1194 13.0658 13.136 13.0634C13.1527 13.061 13.1692 13.0583 13.1857 13.0551C13.2022 13.052 13.2186 13.0484 13.235 13.0445C13.2513 13.0406 13.2675 13.0362 13.2836 13.0315C13.2997 13.0268 13.3158 13.0217 13.3316 13.0163C13.3475 13.0108 13.3633 13.0049 13.3789 12.9987C13.3945 12.9925 13.4099 12.9859 13.4252 12.979C13.4405 12.972 13.4556 12.9647 13.4705 12.957C13.4855 12.9494 13.5002 12.9413 13.5148 12.933C13.5294 12.9246 13.5437 12.9159 13.5578 12.9068C13.572 12.8978 13.5859 12.8884 13.5996 12.8786C13.6133 12.8689 13.6268 12.8589 13.64 12.8485C13.6532 12.8382 13.6662 12.8275 13.6789 12.8165C13.6916 12.8056 13.704 12.7943 13.7162 12.7827C13.7284 12.7712 13.7403 12.7593 13.7519 12.7472C13.7635 12.735 13.7749 12.7226 13.7859 12.71C13.7969 12.6973 13.8076 12.6844 13.818 12.6712C13.8284 12.658 13.8385 12.6446 13.8483 12.6309C13.858 12.6173 13.8675 12.6034 13.8766 12.5893C13.8857 12.5751 13.8945 12.5608 13.9029 12.5463C13.9113 12.5318 13.9194 12.517 13.9271 12.5021C13.9349 12.4872 13.9422 12.4721 13.9492 12.4569C13.9563 12.4416 13.9629 12.4262 13.9692 12.4106C13.9755 12.395 13.9813 12.3793 13.9869 12.3635C13.9924 12.3476 13.9975 12.3316 14.0023 12.3155C14.0071 12.2994 14.0115 12.2832 14.0155 12.2669C14.0195 12.2506 14.0231 12.2342 14.0263 12.2177C14.0295 12.2012 14.0323 12.1846 14.0348 12.168C14.0372 12.1514 14.0392 12.1347 14.0409 12.118C14.0425 12.1013 14.0437 12.0846 14.0446 12.0678L14.0446 10.0236C13.8906 10.0742 13.735 10.119 13.5776 10.1579C13.4203 10.1968 13.2617 10.2297 13.1019 10.2566L13.1019 11.6123L13.0384 11.6123Z"   fill="#333333" >
</path>
</svg>
