<svg xmlns="http://www.w3.org/2000/svg" xmlns:xlink="http://www.w3.org/1999/xlink" width="18" height="18" viewBox="0 0 18 18" fill="none">
<path d="M13.4892 8.48343C14.1062 7.93816 14.4973 7.14873 14.4973 6.26859C14.4973 4.7421 13.3533 3.47472 11.8363 3.32038C11.5293 3.28927 11.2513 3.51427 11.2197 3.82329C11.1884 4.13231 11.4136 4.40829 11.7226 4.43958C12.663 4.53538 13.3721 5.32148 13.3721 6.26859C13.3721 7.20568 12.6711 7.9909 11.7418 8.09531C11.5372 8.11816 11.3791 8.25281 11.3002 8.42771C11.2995 8.42912 11.2988 8.43035 11.2981 8.43158C11.2763 8.4808 11.264 8.53177 11.2571 8.58662C11.2536 8.60701 11.2427 8.62441 11.2417 8.6455C11.2408 8.66115 11.2478 8.67468 11.2482 8.68998C11.2487 8.69929 11.2448 8.70756 11.2459 8.71687C11.2475 8.73093 11.2552 8.74218 11.2578 8.75572C11.2962 9.01464 11.5011 9.22295 11.7725 9.23806C13.8696 9.3539 15.5815 11.0214 15.7549 13.1169C15.7791 13.4107 16.0252 13.6329 16.3149 13.6329C16.3304 13.6329 16.346 13.6324 16.3618 13.631C16.6714 13.6055 16.9015 13.3337 16.876 13.024C16.7046 10.9526 15.3419 9.21609 13.4892 8.48343Z"   fill="#333333" >
</path>
<path d="M9.42642 8.77338C10.2025 8.15217 10.7017 7.19891 10.7017 6.1298C10.7017 4.26213 9.18227 2.74268 7.31494 2.74268C5.44762 2.74268 3.92816 4.26213 3.92816 6.1298C3.92816 7.19873 4.42738 8.15217 5.20346 8.77338C2.99072 9.58654 1.33275 11.6288 1.12937 14.0858C1.10388 14.3954 1.33398 14.6673 1.64353 14.6928C1.96099 14.7202 2.22501 14.4879 2.2505 14.1787C2.46671 11.5644 4.69141 9.51658 7.31494 9.51658C9.93848 9.51658 12.1632 11.5644 12.3794 14.1787C12.4036 14.4726 12.6497 14.6947 12.9394 14.6947C12.9549 14.6947 12.9705 14.6942 12.9863 14.6928C13.2959 14.6673 13.526 14.3954 13.5005 14.0858C13.2971 11.6288 11.6392 9.58654 9.42642 8.77338ZM5.05316 6.1298C5.05316 4.88264 6.06777 3.86768 7.31494 3.86768C8.56211 3.86768 9.57672 4.88246 9.57672 6.1298C9.57672 7.37715 8.56211 8.39158 7.31494 8.39158C6.06777 8.39158 5.05316 7.37697 5.05316 6.1298Z"   fill="#333333" >
</path>
</svg>
